<svg width="177" height="100" viewBox="0 0 177 100" fill="none" xmlns="http://www.w3.org/2000/svg">
<rect width="177" height="100" fill="#606060"/>
<g clip-path="url(#clip0_0_1)">
<rect width="1920" height="5252" transform="translate(-1443 -2508)" fill="white"/>
<g opacity="0.4">
<path d="M63.7956 100L44.4852 72.1429L43.3409 72.1429L23.1724 72.1429L23.1724 100L1.74846e-05 100L0 0L43.3409 -7.57797e-06C52.2094 -9.12857e-06 59.8858 1.47618 66.3703 4.42856C72.9501 7.38095 78.0041 11.5714 81.5324 17C85.0607 22.4286 86.8249 28.8571 86.8249 36.2857C86.8249 43.7143 85.013 50.1429 81.3894 55.5714C77.8611 60.9048 72.807 65 66.2272 67.8572L88.6844 100L63.7956 100ZM63.3664 36.2857C63.3664 30.6667 61.5546 26.381 57.9309 23.4286C54.3073 20.381 49.0148 18.8571 42.0536 18.8571L23.1724 18.8572L23.1724 53.7143L42.0536 53.7143C49.0148 53.7143 54.3073 52.1905 57.9309 49.1429C61.5546 46.0952 63.3664 41.8095 63.3664 36.2857Z" fill="#D8F8D9"/>
<path d="M177 58.7143L152.111 58.7143L152.111 83L133.659 83L133.659 58.7143L108.913 58.7143L108.913 41.2857L133.659 41.2857L133.659 17L152.111 17L152.111 41.2857L177 41.2857L177 58.7143Z" fill="#D8F8D9"/>
</g>
</g>
<defs>
<clipPath id="clip0_0_1">
<rect width="1920" height="5252" fill="white" transform="translate(-1443 -2508)"/>
</clipPath>
</defs>
</svg>
