<svg width="494" height="252" viewBox="0 0 494 252" fill="none" xmlns="http://www.w3.org/2000/svg">
<circle cx="188" cy="29" r="1" fill="#88BD6F"/>
<circle cx="202" cy="29" r="1" fill="#88BD6F"/>
<circle cx="216" cy="29" r="1" fill="#88BD6F"/>
<circle cx="230" cy="29" r="1" fill="#88BD6F"/>
<circle cx="244" cy="29" r="1" fill="#88BD6F"/>
<circle cx="258" cy="29" r="1" fill="#88BD6F"/>
<circle cx="272" cy="29" r="1" fill="#88BD6F"/>
<circle cx="286" cy="29" r="1" fill="#88BD6F"/>
<circle cx="188" cy="43" r="1" fill="#88BD6F"/>
<circle cx="202" cy="43" r="1" fill="#88BD6F"/>
<circle cx="216" cy="43" r="1" fill="#88BD6F"/>
<circle cx="230" cy="43" r="1" fill="#88BD6F"/>
<circle cx="244" cy="43" r="1" fill="#88BD6F"/>
<circle cx="258" cy="43" r="1" fill="#88BD6F"/>
<circle cx="272" cy="43" r="1" fill="#88BD6F"/>
<circle cx="286" cy="43" r="1" fill="#88BD6F"/>
<circle cx="188" cy="57" r="1" fill="#88BD6F"/>
<circle cx="202" cy="57" r="1" fill="#88BD6F"/>
<circle cx="216" cy="57" r="1" fill="#88BD6F"/>
<circle cx="230" cy="57" r="1" fill="#88BD6F"/>
<circle cx="244" cy="57" r="1" fill="#88BD6F"/>
<circle cx="258" cy="57" r="1" fill="#88BD6F"/>
<circle cx="272" cy="57" r="1" fill="#88BD6F"/>
<circle cx="286" cy="57" r="1" fill="#88BD6F"/>
<circle cx="188" cy="71" r="1" fill="#88BD6F"/>
<circle cx="202" cy="71" r="1" fill="#88BD6F"/>
<circle cx="216" cy="71" r="1" fill="#88BD6F"/>
<circle cx="230" cy="71" r="1" fill="#88BD6F"/>
<circle cx="244" cy="71" r="1" fill="#88BD6F"/>
<circle cx="258" cy="71" r="1" fill="#88BD6F"/>
<circle cx="272" cy="71" r="1" fill="#88BD6F"/>
<circle cx="286" cy="71" r="1" fill="#88BD6F"/>
<circle cx="188" cy="85" r="1" fill="#88BD6F"/>
<circle cx="202" cy="85" r="1" fill="#88BD6F"/>
<circle cx="216" cy="85" r="1" fill="#88BD6F"/>
<circle cx="230" cy="85" r="1" fill="#88BD6F"/>
<circle cx="244" cy="85" r="1" fill="#88BD6F"/>
<circle cx="258" cy="85" r="1" fill="#88BD6F"/>
<circle cx="272" cy="85" r="1" fill="#88BD6F"/>
<circle cx="286" cy="85" r="1" fill="#88BD6F"/>
<circle cx="188" cy="99" r="1" fill="#88BD6F"/>
<circle cx="202" cy="99" r="1" fill="#88BD6F"/>
<circle cx="216" cy="99" r="1" fill="#88BD6F"/>
<circle cx="230" cy="99" r="1" fill="#88BD6F"/>
<circle cx="244" cy="99" r="1" fill="#88BD6F"/>
<circle cx="258" cy="99" r="1" fill="#88BD6F"/>
<circle cx="272" cy="99" r="1" fill="#88BD6F"/>
<circle cx="286" cy="99" r="1" fill="#88BD6F"/>
<circle cx="188" cy="113" r="1" fill="#88BD6F"/>
<circle cx="202" cy="113" r="1" fill="#88BD6F"/>
<circle cx="216" cy="113" r="1" fill="#88BD6F"/>
<circle cx="230" cy="113" r="1" fill="#88BD6F"/>
<circle cx="244" cy="113" r="1" fill="#88BD6F"/>
<circle cx="258" cy="113" r="1" fill="#88BD6F"/>
<circle cx="272" cy="113" r="1" fill="#88BD6F"/>
<circle cx="286" cy="113" r="1" fill="#88BD6F"/>
<circle cx="188" cy="127" r="1" fill="#88BD6F"/>
<circle cx="202" cy="127" r="1" fill="#88BD6F"/>
<circle cx="216" cy="127" r="1" fill="#88BD6F"/>
<circle cx="230" cy="127" r="1" fill="#88BD6F"/>
<circle cx="244" cy="127" r="1" fill="#88BD6F"/>
<circle cx="258" cy="127" r="1" fill="#88BD6F"/>
<circle cx="272" cy="127" r="1" fill="#88BD6F"/>
<circle cx="286" cy="127" r="1" fill="#88BD6F"/>
<circle cx="312" cy="29" r="1" fill="#88BD6F"/>
<circle cx="326" cy="29" r="1" fill="#88BD6F"/>
<circle cx="340" cy="29" r="1" fill="#88BD6F"/>
<circle cx="354" cy="29" r="1" fill="#88BD6F"/>
<circle cx="368" cy="29" r="1" fill="#88BD6F"/>
<circle cx="382" cy="29" r="1" fill="#88BD6F"/>
<circle cx="396" cy="29" r="1" fill="#88BD6F"/>
<circle cx="410" cy="29" r="1" fill="#88BD6F"/>
<circle cx="312" cy="43" r="1" fill="#88BD6F"/>
<circle cx="326" cy="43" r="1" fill="#88BD6F"/>
<circle cx="340" cy="43" r="1" fill="#88BD6F"/>
<circle cx="354" cy="43" r="1" fill="#88BD6F"/>
<circle cx="368" cy="43" r="1" fill="#88BD6F"/>
<circle cx="382" cy="43" r="1" fill="#88BD6F"/>
<circle cx="396" cy="43" r="1" fill="#88BD6F"/>
<circle cx="410" cy="43" r="1" fill="#88BD6F"/>
<circle cx="312" cy="57" r="1" fill="#88BD6F"/>
<circle cx="326" cy="57" r="1" fill="#88BD6F"/>
<circle cx="340" cy="57" r="1" fill="#88BD6F"/>
<circle cx="354" cy="57" r="1" fill="#88BD6F"/>
<circle cx="368" cy="57" r="1" fill="#88BD6F"/>
<circle cx="382" cy="57" r="1" fill="#88BD6F"/>
<circle cx="396" cy="57" r="1" fill="#88BD6F"/>
<circle cx="410" cy="57" r="1" fill="#88BD6F"/>
<circle cx="312" cy="71" r="1" fill="#88BD6F"/>
<circle cx="326" cy="71" r="1" fill="#88BD6F"/>
<circle cx="340" cy="71" r="1" fill="#88BD6F"/>
<circle cx="354" cy="71" r="1" fill="#88BD6F"/>
<circle cx="368" cy="71" r="1" fill="#88BD6F"/>
<circle cx="382" cy="71" r="1" fill="#88BD6F"/>
<circle cx="396" cy="71" r="1" fill="#88BD6F"/>
<circle cx="410" cy="71" r="1" fill="#88BD6F"/>
<circle cx="312" cy="85" r="1" fill="#88BD6F"/>
<circle cx="326" cy="85" r="1" fill="#88BD6F"/>
<circle cx="340" cy="85" r="1" fill="#88BD6F"/>
<circle cx="354" cy="85" r="1" fill="#88BD6F"/>
<circle cx="368" cy="85" r="1" fill="#88BD6F"/>
<circle cx="382" cy="85" r="1" fill="#88BD6F"/>
<circle cx="396" cy="85" r="1" fill="#88BD6F"/>
<circle cx="410" cy="85" r="1" fill="#88BD6F"/>
<circle cx="312" cy="99" r="1" fill="#88BD6F"/>
<circle cx="326" cy="99" r="1" fill="#88BD6F"/>
<circle cx="340" cy="99" r="1" fill="#88BD6F"/>
<circle cx="354" cy="99" r="1" fill="#88BD6F"/>
<circle cx="368" cy="99" r="1" fill="#88BD6F"/>
<circle cx="382" cy="99" r="1" fill="#88BD6F"/>
<circle cx="396" cy="99" r="1" fill="#88BD6F"/>
<circle cx="410" cy="99" r="1" fill="#88BD6F"/>
<circle cx="312" cy="113" r="1" fill="#88BD6F"/>
<circle cx="326" cy="113" r="1" fill="#88BD6F"/>
<circle cx="340" cy="113" r="1" fill="#88BD6F"/>
<circle cx="354" cy="113" r="1" fill="#88BD6F"/>
<circle cx="368" cy="113" r="1" fill="#88BD6F"/>
<circle cx="382" cy="113" r="1" fill="#88BD6F"/>
<circle cx="396" cy="113" r="1" fill="#88BD6F"/>
<circle cx="410" cy="113" r="1" fill="#88BD6F"/>
<circle cx="312" cy="127" r="1" fill="#88BD6F"/>
<circle cx="326" cy="127" r="1" fill="#88BD6F"/>
<circle cx="340" cy="127" r="1" fill="#88BD6F"/>
<circle cx="354" cy="127" r="1" fill="#88BD6F"/>
<circle cx="368" cy="127" r="1" fill="#88BD6F"/>
<circle cx="382" cy="127" r="1" fill="#88BD6F"/>
<circle cx="396" cy="127" r="1" fill="#88BD6F"/>
<circle cx="410" cy="127" r="1" fill="#88BD6F"/>
<circle cx="188" cy="153" r="1" fill="#88BD6F"/>
<circle cx="202" cy="153" r="1" fill="#88BD6F"/>
<circle cx="216" cy="153" r="1" fill="#88BD6F"/>
<circle cx="230" cy="153" r="1" fill="#88BD6F"/>
<circle cx="244" cy="153" r="1" fill="#88BD6F"/>
<circle cx="258" cy="153" r="1" fill="#88BD6F"/>
<circle cx="272" cy="153" r="1" fill="#88BD6F"/>
<circle cx="286" cy="153" r="1" fill="#88BD6F"/>
<circle cx="188" cy="167" r="1" fill="#88BD6F"/>
<circle cx="202" cy="167" r="1" fill="#88BD6F"/>
<circle cx="216" cy="167" r="1" fill="#88BD6F"/>
<circle cx="230" cy="167" r="1" fill="#88BD6F"/>
<circle cx="244" cy="167" r="1" fill="#88BD6F"/>
<circle cx="258" cy="167" r="1" fill="#88BD6F"/>
<circle cx="272" cy="167" r="1" fill="#88BD6F"/>
<circle cx="286" cy="167" r="1" fill="#88BD6F"/>
<circle cx="188" cy="181" r="1" fill="#88BD6F"/>
<circle cx="202" cy="181" r="1" fill="#88BD6F"/>
<circle cx="216" cy="181" r="1" fill="#88BD6F"/>
<circle cx="230" cy="181" r="1" fill="#88BD6F"/>
<circle cx="244" cy="181" r="1" fill="#88BD6F"/>
<circle cx="258" cy="181" r="1" fill="#88BD6F"/>
<circle cx="272" cy="181" r="1" fill="#88BD6F"/>
<circle cx="286" cy="181" r="1" fill="#88BD6F"/>
<circle cx="188" cy="195" r="1" fill="#88BD6F"/>
<circle cx="202" cy="195" r="1" fill="#88BD6F"/>
<circle cx="216" cy="195" r="1" fill="#88BD6F"/>
<circle cx="230" cy="195" r="1" fill="#88BD6F"/>
<circle cx="244" cy="195" r="1" fill="#88BD6F"/>
<circle cx="258" cy="195" r="1" fill="#88BD6F"/>
<circle cx="272" cy="195" r="1" fill="#88BD6F"/>
<circle cx="286" cy="195" r="1" fill="#88BD6F"/>
<circle cx="188" cy="209" r="1" fill="#88BD6F"/>
<circle cx="202" cy="209" r="1" fill="#88BD6F"/>
<circle cx="216" cy="209" r="1" fill="#88BD6F"/>
<circle cx="230" cy="209" r="1" fill="#88BD6F"/>
<circle cx="244" cy="209" r="1" fill="#88BD6F"/>
<circle cx="258" cy="209" r="1" fill="#88BD6F"/>
<circle cx="272" cy="209" r="1" fill="#88BD6F"/>
<circle cx="286" cy="209" r="1" fill="#88BD6F"/>
<circle cx="188" cy="223" r="1" fill="#88BD6F"/>
<circle cx="202" cy="223" r="1" fill="#88BD6F"/>
<circle cx="216" cy="223" r="1" fill="#88BD6F"/>
<circle cx="230" cy="223" r="1" fill="#88BD6F"/>
<circle cx="244" cy="223" r="1" fill="#88BD6F"/>
<circle cx="258" cy="223" r="1" fill="#88BD6F"/>
<circle cx="272" cy="223" r="1" fill="#88BD6F"/>
<circle cx="286" cy="223" r="1" fill="#88BD6F"/>
<circle cx="188" cy="237" r="1" fill="#88BD6F"/>
<circle cx="202" cy="237" r="1" fill="#88BD6F"/>
<circle cx="216" cy="237" r="1" fill="#88BD6F"/>
<circle cx="230" cy="237" r="1" fill="#88BD6F"/>
<circle cx="244" cy="237" r="1" fill="#88BD6F"/>
<circle cx="258" cy="237" r="1" fill="#88BD6F"/>
<circle cx="272" cy="237" r="1" fill="#88BD6F"/>
<circle cx="286" cy="237" r="1" fill="#88BD6F"/>
<circle cx="188" cy="251" r="1" fill="#88BD6F"/>
<circle cx="202" cy="251" r="1" fill="#88BD6F"/>
<circle cx="216" cy="251" r="1" fill="#88BD6F"/>
<circle cx="230" cy="251" r="1" fill="#88BD6F"/>
<circle cx="244" cy="251" r="1" fill="#88BD6F"/>
<circle cx="258" cy="251" r="1" fill="#88BD6F"/>
<circle cx="272" cy="251" r="1" fill="#88BD6F"/>
<circle cx="286" cy="251" r="1" fill="#88BD6F"/>
<circle cx="312" cy="153" r="1" fill="#88BD6F"/>
<circle cx="326" cy="153" r="1" fill="#88BD6F"/>
<circle cx="340" cy="153" r="1" fill="#88BD6F"/>
<circle cx="354" cy="153" r="1" fill="#88BD6F"/>
<circle cx="368" cy="153" r="1" fill="#88BD6F"/>
<circle cx="382" cy="153" r="1" fill="#88BD6F"/>
<circle cx="396" cy="153" r="1" fill="#88BD6F"/>
<circle cx="410" cy="153" r="1" fill="#88BD6F"/>
<circle cx="312" cy="167" r="1" fill="#88BD6F"/>
<circle cx="326" cy="167" r="1" fill="#88BD6F"/>
<circle cx="340" cy="167" r="1" fill="#88BD6F"/>
<circle cx="354" cy="167" r="1" fill="#88BD6F"/>
<circle cx="368" cy="167" r="1" fill="#88BD6F"/>
<circle cx="382" cy="167" r="1" fill="#88BD6F"/>
<circle cx="396" cy="167" r="1" fill="#88BD6F"/>
<circle cx="410" cy="167" r="1" fill="#88BD6F"/>
<circle cx="312" cy="181" r="1" fill="#88BD6F"/>
<circle cx="326" cy="181" r="1" fill="#88BD6F"/>
<circle cx="340" cy="181" r="1" fill="#88BD6F"/>
<circle cx="354" cy="181" r="1" fill="#88BD6F"/>
<circle cx="368" cy="181" r="1" fill="#88BD6F"/>
<circle cx="382" cy="181" r="1" fill="#88BD6F"/>
<circle cx="396" cy="181" r="1" fill="#88BD6F"/>
<circle cx="410" cy="181" r="1" fill="#88BD6F"/>
<circle cx="312" cy="195" r="1" fill="#88BD6F"/>
<circle cx="326" cy="195" r="1" fill="#88BD6F"/>
<circle cx="340" cy="195" r="1" fill="#88BD6F"/>
<circle cx="354" cy="195" r="1" fill="#88BD6F"/>
<circle cx="368" cy="195" r="1" fill="#88BD6F"/>
<circle cx="382" cy="195" r="1" fill="#88BD6F"/>
<circle cx="396" cy="195" r="1" fill="#88BD6F"/>
<circle cx="410" cy="195" r="1" fill="#88BD6F"/>
<circle cx="312" cy="209" r="1" fill="#88BD6F"/>
<circle cx="326" cy="209" r="1" fill="#88BD6F"/>
<circle cx="340" cy="209" r="1" fill="#88BD6F"/>
<circle cx="354" cy="209" r="1" fill="#88BD6F"/>
<circle cx="368" cy="209" r="1" fill="#88BD6F"/>
<circle cx="382" cy="209" r="1" fill="#88BD6F"/>
<circle cx="396" cy="209" r="1" fill="#88BD6F"/>
<circle cx="410" cy="209" r="1" fill="#88BD6F"/>
<circle cx="312" cy="223" r="1" fill="#88BD6F"/>
<circle cx="326" cy="223" r="1" fill="#88BD6F"/>
<circle cx="340" cy="223" r="1" fill="#88BD6F"/>
<circle cx="354" cy="223" r="1" fill="#88BD6F"/>
<circle cx="368" cy="223" r="1" fill="#88BD6F"/>
<circle cx="382" cy="223" r="1" fill="#88BD6F"/>
<circle cx="396" cy="223" r="1" fill="#88BD6F"/>
<circle cx="410" cy="223" r="1" fill="#88BD6F"/>
<circle cx="312" cy="237" r="1" fill="#88BD6F"/>
<circle cx="326" cy="237" r="1" fill="#88BD6F"/>
<circle cx="340" cy="237" r="1" fill="#88BD6F"/>
<circle cx="354" cy="237" r="1" fill="#88BD6F"/>
<circle cx="368" cy="237" r="1" fill="#88BD6F"/>
<circle cx="382" cy="237" r="1" fill="#88BD6F"/>
<circle cx="396" cy="237" r="1" fill="#88BD6F"/>
<circle cx="410" cy="237" r="1" fill="#88BD6F"/>
<circle cx="312" cy="251" r="1" fill="#88BD6F"/>
<circle cx="326" cy="251" r="1" fill="#88BD6F"/>
<circle cx="340" cy="251" r="1" fill="#88BD6F"/>
<circle cx="354" cy="251" r="1" fill="#88BD6F"/>
<circle cx="368" cy="251" r="1" fill="#88BD6F"/>
<circle cx="382" cy="251" r="1" fill="#88BD6F"/>
<circle cx="396" cy="251" r="1" fill="#88BD6F"/>
<circle cx="410" cy="251" r="1" fill="#88BD6F"/>
<ellipse opacity="0.5" cx="410.5" cy="141" rx="83.5" ry="83" fill="#F2F2F2"/>
<ellipse opacity="0.5" cx="270.5" cy="36" rx="36.5" ry="36" fill="#F2F2F2"/>
<ellipse opacity="0.5" cx="79.5" cy="216" rx="36.5" ry="36" fill="#F2F2F2"/>
<line x1="87" y1="19" x2="109" y2="19" stroke="#E0E0E0" stroke-width="2"/>
<line x1="98" y1="30" x2="98" y2="8" stroke="#E0E0E0" stroke-width="2"/>
<line x1="134" y1="37" x2="146" y2="37" stroke="#E0E0E0" stroke-width="2"/>
<line x1="140" y1="43" x2="140" y2="31" stroke="#E0E0E0" stroke-width="2"/>
<circle cx="21.5" cy="165.5" r="21" stroke="#D8F8D9"/>
<g opacity="0.6">
<path d="M159.432 214L130.848 172.771H129.154H99.3003L99.3003 214H65L65 66L129.154 66C142.282 66 153.645 68.1848 163.243 72.5543C172.983 76.9238 180.464 83.1257 185.686 91.16C190.909 99.1943 193.52 108.709 193.52 119.703C193.52 130.697 190.839 140.211 185.475 148.246C180.252 156.139 172.771 162.2 163.031 166.429L196.273 214H159.432ZM158.797 119.703C158.797 111.387 156.115 105.044 150.751 100.674C145.387 96.1638 137.553 93.9086 127.249 93.9086L99.3003 93.9086L99.3003 145.497H127.249C137.553 145.497 145.387 143.242 150.751 138.731C156.115 134.221 158.797 127.878 158.797 119.703Z" fill="#D8F8D9"/>
<path d="M327 152.897H290.159V188.84L262.846 188.84V152.897H226.216V127.103H262.846V91.16H290.159V127.103L327 127.103V152.897Z" fill="#D8F8D9"/>
</g>
</svg>
