<svg width="32" height="32" viewBox="0 0 32 32" fill="none" xmlns="http://www.w3.org/2000/svg">
<circle cx="16" cy="16" r="16" fill="#88BD6F"/>
<path d="M15.6023 7C11.9622 7 9 9.96169 9 13.602C9 18.3095 14.6494 24.4314 14.8903 24.6893C15.074 24.8873 15.3318 25 15.6023 25C15.8722 25 16.1299 24.8875 16.3142 24.6893C16.5551 24.4316 22.2047 18.3095 22.2047 13.602C22.2045 9.96151 19.2424 7 15.6023 7ZM12.9963 13.3941C12.9963 11.9545 14.1631 10.7873 15.6023 10.7873C17.0416 10.7873 18.2083 11.9541 18.2083 13.3941C18.2083 14.8333 17.0418 16.0001 15.6023 16.0001C14.1632 15.9999 12.9963 14.8332 12.9963 13.3941Z" fill="white"/>
</svg>
