<svg width="20" height="20" viewBox="0 0 20 20" fill="none" xmlns="http://www.w3.org/2000/svg">
<path d="M17.6 1.6H16.2V1.2C16.2 0.52 15.68 0 15 0C14.32 0 13.8 0.52 13.8 1.2V1.6H6.2V1.2C6.2 0.52 5.68 0 5 0C4.32 0 3.8 0.52 3.8 1.2V1.6H2.4C1.08 1.6 0 2.68 0 4V8.2V17.6C0 18.92 1.08 20 2.4 20H17.6C18.92 20 20 18.92 20 17.6V8.2V4C20 2.68 18.92 1.6 17.6 1.6ZM18.4 17.6C18.4 18.04 18.04 18.4 17.6 18.4H2.4C1.96 18.4 1.6 18.04 1.6 17.6V9H18.4V17.6ZM18.4 7.4H1.6V4C1.6 3.56 1.96 3.2 2.4 3.2H3.88C4.04 3.68 4.48 4 5 4C5.52 4 5.96 3.68 6.12 3.2H13.84C14 3.68 14.44 4 14.96 4C15.48 4 15.92 3.68 16.08 3.2H17.6C18.04 3.2 18.4 3.56 18.4 4V7.4Z" fill="#949699"/>
<path d="M13.1998 10.2002H10.7998V12.6002H13.1998V10.2002Z" fill="#949699"/>
<path d="M9.1998 10.2002H6.7998V12.6002H9.1998V10.2002Z" fill="#949699"/>
<path d="M5.1998 10.2002H2.7998V12.6002H5.1998V10.2002Z" fill="#949699"/>
<path d="M17.1998 10.2002H14.7998V12.6002H17.1998V10.2002Z" fill="#949699"/>
<path d="M5.1998 13.7998H2.7998V16.1998H5.1998V13.7998Z" fill="#949699"/>
<path d="M9.1998 13.7998H6.7998V16.1998H9.1998V13.7998Z" fill="#949699"/>
<path d="M13.1998 13.7998H10.7998V16.1998H13.1998V13.7998Z" fill="#949699"/>
</svg>
