<svg width="85" height="85" viewBox="0 0 85 85" fill="none" xmlns="http://www.w3.org/2000/svg">
<circle cx="42.5" cy="42.5" r="42" stroke="#252628"/>
<path d="M62.3853 26.8931C62.3853 21.438 57.9482 17 52.494 17C47.0386 17 42.6001 21.438 42.6001 26.8931C42.6001 27.2705 42.6633 27.7018 42.7794 28.1762C42.3278 28.1454 41.877 28.1298 41.4351 28.1298C35.2751 28.1298 29.7761 31.0108 26.2128 35.4956C26.1753 35.5255 26.1448 35.5631 26.1244 35.607C23.5415 38.9068 22 43.0588 22 47.5643C22 52.0713 23.5423 56.2246 26.1265 59.525C26.1463 59.566 26.175 59.6015 26.2101 59.6304C29.7733 64.1174 35.2736 67 41.4351 67C47.5971 67 53.0978 64.1168 56.661 59.6293C56.6949 59.6012 56.7227 59.5667 56.7422 59.5271C59.3274 56.2264 60.8702 52.0724 60.8702 47.5644C60.8703 43.8471 59.8173 40.2412 57.8243 37.1221C60.2115 33.1772 62.3853 29.1114 62.3853 26.8931ZM52.494 17.621C57.6057 17.621 61.7643 21.7807 61.7643 26.8931C61.7643 28.9811 59.5349 33.0982 57.1931 36.962C57.1928 36.9625 57.1923 36.9629 57.1918 36.9636C56.2404 38.5341 55.2634 40.0725 54.4014 41.4296C53.6511 42.6111 52.9863 43.6578 52.4935 44.481C52.4769 44.4529 52.458 44.4226 52.4408 44.3937C51.9546 43.5868 51.3134 42.5774 50.5914 41.4407C48.3006 37.8349 45.0958 32.7903 43.7993 29.3484C43.7886 29.3193 43.7779 29.2905 43.7672 29.2616C43.735 29.1752 43.7045 29.0898 43.6747 29.0054C43.6555 28.9507 43.6372 28.8963 43.6189 28.8424C43.6037 28.7963 43.5882 28.7505 43.5736 28.7052C43.5508 28.6347 43.5293 28.5652 43.5085 28.4964C43.3241 27.8835 43.2209 27.3412 43.2209 26.8927C43.2213 21.7804 47.381 17.621 52.494 17.621ZM36.1087 47.2539C36.1279 43.1487 36.5278 39.2578 37.2513 36.0482H45.6173C46.3353 39.2355 46.7386 43.1341 46.7581 47.2539H36.1087ZM46.7582 47.8749C46.7387 51.9808 46.3397 55.8714 45.6174 59.0802H37.2508C36.5275 55.8708 36.1278 51.9802 36.1087 47.8749H46.7582ZM46.1095 35.4271C46.0986 35.3818 46.0874 35.3368 46.0766 35.2916C46.1027 35.3368 46.1287 35.3819 46.1548 35.4271H46.1095ZM41.4354 28.7508C42.3265 28.7508 43.0731 29.6344 43.5464 30.3848C43.5626 30.4231 43.58 30.4625 43.5968 30.5011C43.598 30.504 43.5991 30.5069 43.6004 30.5098C43.6089 30.529 43.6169 30.5482 43.6254 30.5675C43.6296 30.5775 43.6338 30.5872 43.6382 30.5971C43.6526 30.6295 43.6667 30.6621 43.6812 30.6948C43.9622 31.3316 44.2877 32.0018 44.6457 32.6933C44.9512 33.5167 45.2267 34.4339 45.4708 35.4271H37.397C37.5068 34.9798 37.6229 34.5465 37.7458 34.1298C38.7537 30.7114 40.0985 28.7508 41.4354 28.7508ZM39.8175 28.8212C38.8007 29.7168 37.8844 31.4643 37.1503 33.9542C37.0113 34.4257 36.8807 34.9176 36.7581 35.4271H27.0726C30.1992 31.7332 34.7213 29.2574 39.8175 28.8212ZM26.5686 36.0482H36.6148C35.9007 39.2765 35.5066 43.1625 35.4875 47.2539H22.6253C22.6939 43.0388 24.1551 39.1566 26.5686 36.0482ZM22.6253 47.8749H35.4876C35.5067 51.9661 35.9006 55.852 36.6145 59.0802H26.5678C24.1548 55.9716 22.6939 52.0897 22.6253 47.8749ZM27.0717 59.7012H36.7577C36.8805 60.2117 37.0113 60.704 37.1504 61.1759C37.8844 63.666 38.8007 65.4133 39.8175 66.3089C34.7208 65.8724 30.1983 63.3959 27.0717 59.7012ZM41.4354 66.379C40.0984 66.379 38.7537 64.4186 37.746 61.0003C37.6231 60.5831 37.5067 60.1488 37.3968 59.7009H45.4715C45.3616 60.1488 45.2454 60.5829 45.1226 61.0003C44.116 64.4186 42.7721 66.379 41.4354 66.379ZM43.0531 66.3086C44.0694 65.4129 44.9851 63.6657 45.7185 61.1755C45.8576 60.7035 45.9881 60.2114 46.1107 59.7009H55.7993C52.6725 63.396 48.1499 65.8726 43.0531 66.3086ZM56.303 59.0802H46.2536C46.9666 55.8525 47.3598 51.9666 47.3791 47.8749H60.2456C60.177 52.0897 58.7162 55.9716 56.303 59.0802ZM60.2441 47.2539H47.3789C47.3597 43.1504 46.9622 39.2574 46.2528 36.0482H46.5184C46.8404 36.5935 47.1699 37.1399 47.5016 37.6825C47.5102 37.6965 47.5187 37.7105 47.5273 37.7244C47.5973 37.8387 47.6673 37.9528 47.7372 38.0666C47.7859 38.1457 47.8343 38.2244 47.8829 38.3031C47.8869 38.3097 47.8909 38.3161 47.8949 38.3226C48.6431 39.5336 49.3879 40.7061 50.067 41.7749C50.8584 43.0207 51.5538 44.1147 52.0484 44.9478C52.1105 45.0519 52.1695 45.1526 52.2248 45.2482C52.2803 45.3444 52.3828 45.4033 52.4938 45.4033H52.494C52.5774 45.4033 52.6558 45.3701 52.7131 45.3125C52.7141 45.3117 52.7146 45.3104 52.7152 45.3099C52.7332 45.2912 52.7494 45.271 52.7626 45.248C53.262 44.3828 54.035 43.1652 54.9298 41.7558C55.7295 40.4968 56.6039 39.1197 57.4636 37.7145C59.2339 40.5859 60.1889 43.8674 60.2441 47.2539Z" fill="#252628" stroke="#252628" stroke-width="0.5"/>
<path d="M52.4938 32.475C55.8999 32.475 58.6715 29.7028 58.6715 26.2951C58.6715 22.8875 55.9002 20.1152 52.4938 20.1152C49.0853 20.1152 46.3125 22.8875 46.3125 26.2951C46.3126 29.7028 49.0855 32.475 52.4938 32.475ZM52.4938 20.7363C55.5577 20.7363 58.0505 23.2299 58.0505 26.2951C58.0505 29.3603 55.5577 31.8539 52.4938 31.8539C49.4278 31.8539 46.9333 29.3603 46.9333 26.2951C46.9337 23.2299 49.4279 20.7363 52.4938 20.7363Z" fill="#252628" stroke="#252628" stroke-width="0.5"/>
</svg>
