<svg width="85" height="85" viewBox="0 0 85 85" fill="none" xmlns="http://www.w3.org/2000/svg">
<circle cx="42.5" cy="42.5" r="42" stroke="#252628"/>
<path d="M48.2712 66H29.0214C28.8968 66 28.7949 65.8981 28.7949 65.7735V51.0531C28.7949 50.9285 28.8968 50.8266 29.0214 50.8266C29.1459 50.8266 29.2479 50.9285 29.2479 51.0531V65.5471H48.2712C48.3958 65.5471 48.4977 65.649 48.4977 65.7735C48.4977 65.8981 48.3958 66 48.2712 66ZM49.4036 63.7353C49.279 63.7353 49.1771 63.6334 49.1771 63.5088V52.1854C49.1771 52.0609 49.279 51.959 49.4036 51.959H55.9711V41.9943C55.9711 41.8698 56.0731 41.7679 56.1976 41.7679H61.8593C61.9839 41.7679 62.0858 41.8698 62.0858 41.9943C62.0858 42.1189 61.9839 42.2208 61.8593 42.2208H56.4241V52.1854C56.4241 52.31 56.3222 52.4119 56.1976 52.4119H49.63V63.5088C49.63 63.6334 49.5281 63.7353 49.4036 63.7353ZM61.0327 38.9257C60.9308 38.9257 60.8402 38.8577 60.8176 38.7558L59.3795 32.9922C59.3795 32.9696 59.3682 32.9582 59.3682 32.9356C59.3682 24.9413 52.8685 18.4416 44.8742 18.4416H43.7418C42.5076 18.4416 41.2733 18.6001 40.0957 18.8946C39.9711 18.9285 39.8466 18.8493 39.8239 18.736C39.79 18.6115 39.8692 18.4869 39.9825 18.4643C41.2054 18.1585 42.4623 18 43.7418 18H44.8742C48.894 18 52.6534 19.5513 55.4616 22.3595C58.2698 25.1677 59.8098 28.9158 59.8211 32.9243L61.2592 38.6653C61.2932 38.7898 61.2139 38.9144 61.0893 38.937C61.0667 38.9257 61.0554 38.9257 61.0327 38.9257ZM35.521 20.9214C35.4531 20.9214 35.3738 20.8875 35.3285 20.8195C35.2606 20.7176 35.2832 20.5704 35.3852 20.5025C35.8268 20.2081 36.291 19.9363 36.7666 19.6872C36.8798 19.6306 37.0157 19.6759 37.0723 19.7778C37.129 19.891 37.0837 20.0269 36.9818 20.0835C36.5288 20.3213 36.0759 20.5931 35.6456 20.8762C35.6003 20.9101 35.5663 20.9214 35.521 20.9214Z" fill="#252628"/>
<path fill-rule="evenodd" clip-rule="evenodd" d="M39.8919 18.0741C41.1439 17.7617 42.4311 17.5996 43.7415 17.5996H44.8738C48.9986 17.5996 52.86 19.1923 55.744 22.0763C58.6168 24.949 60.1965 28.7798 60.2205 32.8737L61.646 38.5645C61.738 38.9129 61.515 39.2657 61.1605 39.3302L61.0293 39.354L60.9644 39.3216C60.7139 39.2941 60.4904 39.1158 60.4281 38.8485L58.9791 33.041V33.0373C58.9727 33.0086 58.9678 32.9743 58.9678 32.9352C58.9678 25.1618 52.6472 18.8412 44.8738 18.8412H43.7415C42.5421 18.8412 41.3415 18.9952 40.1954 19.2814C39.8631 19.369 39.5104 19.1682 39.4342 18.8277C39.3518 18.4972 39.553 18.1488 39.8919 18.0741ZM36.5873 19.329C36.8911 19.1771 37.2605 19.293 37.4216 19.5831L37.4258 19.5907L37.4297 19.5985C37.5816 19.9023 37.4657 20.2716 37.1756 20.4328L37.1674 20.4374C36.7308 20.6666 36.2921 20.9293 35.8735 21.2044C35.7718 21.2777 35.6587 21.3211 35.5206 21.3211C35.3362 21.3211 35.1239 21.2338 34.9953 21.041C34.8168 20.7733 34.8597 20.3714 35.1629 20.1693C35.6175 19.8662 36.094 19.5873 36.5806 19.3325L36.5873 19.329ZM55.5708 41.9939C55.5708 41.6485 55.8517 41.3675 56.1972 41.3675H61.8589C62.2044 41.3675 62.4854 41.6485 62.4854 41.9939C62.4854 42.3394 62.2044 42.6204 61.8589 42.6204H56.8237V52.185C56.8237 52.5305 56.5427 52.8115 56.1972 52.8115H50.0296V63.5085C50.0296 63.8539 49.7486 64.1349 49.4032 64.1349C49.0577 64.1349 48.7767 63.8539 48.7767 63.5085V52.185C48.7767 51.8396 49.0577 51.5586 49.4032 51.5586H55.5708V41.9939ZM28.3945 51.0527C28.3945 50.7072 28.6755 50.4262 29.021 50.4262C29.3665 50.4262 29.6475 50.7072 29.6475 51.0527V65.1467H48.2708C48.6163 65.1467 48.8973 65.4277 48.8973 65.7731C48.8973 66.1186 48.6163 66.3996 48.2708 66.3996H29.021C28.6755 66.3996 28.3945 66.1186 28.3945 65.7731V51.0527Z" fill="#252628"/>
<path d="M49.4019 52.4119H43.7401C43.6156 52.4119 43.5137 52.31 43.5137 52.1855C43.5137 52.0609 43.6156 51.959 43.7401 51.959H49.4019C49.5264 51.959 49.6283 52.0609 49.6283 52.1855C49.6283 52.31 49.5264 52.4119 49.4019 52.4119Z" fill="#252628"/>
<path fill-rule="evenodd" clip-rule="evenodd" d="M43.1133 52.1851C43.1133 51.8396 43.3943 51.5586 43.7397 51.5586H49.4015C49.7469 51.5586 50.0279 51.8396 50.0279 52.1851C50.0279 52.5305 49.7469 52.8115 49.4015 52.8115H43.7397C43.3943 52.8115 43.1133 52.5305 43.1133 52.1851Z" fill="#252628"/>
<path d="M34.1953 51.2799H22.2265C22.1019 51.2799 22 51.178 22 51.0535V47.5092C22 47.3847 22.1019 47.2828 22.2265 47.2828C22.351 47.2828 22.4529 47.3847 22.4529 47.5092V50.827H34.1953C35.5881 50.827 36.7205 49.6947 36.7205 48.3019V34.1702C36.7205 34.0457 36.8224 33.9438 36.9469 33.9438C37.0715 33.9438 37.1734 34.0457 37.1734 34.1702V48.3019C37.1734 49.9438 35.8372 51.2799 34.1953 51.2799ZM22.2265 44.3387C22.1019 44.3387 22 44.2368 22 44.1122V32.2226C22 30.6147 23.3022 29.3125 24.9101 29.3125H39.2116C39.3362 29.3125 39.4381 29.4144 39.4381 29.539C39.4381 29.6635 39.3362 29.7654 39.2116 29.7654C38.0906 29.7654 37.1734 30.6826 37.1734 31.8037C37.1734 31.9282 37.0715 32.0301 36.9469 32.0301C36.8224 32.0301 36.7205 31.9282 36.7205 31.8037C36.7205 30.9657 37.1394 30.2184 37.7849 29.7654H24.9101C23.5626 29.7654 22.4529 30.8638 22.4529 32.2226V44.1122C22.4529 44.2368 22.351 44.3387 22.2265 44.3387Z" fill="#252628"/>
<path fill-rule="evenodd" clip-rule="evenodd" d="M36.832 30.165H24.9097C23.782 30.165 22.8525 31.0855 22.8525 32.2222V44.1118C22.8525 44.4573 22.5715 44.7383 22.2261 44.7383C21.8806 44.7383 21.5996 44.4573 21.5996 44.1118V32.2222C21.5996 30.3934 23.0809 28.9121 24.9097 28.9121H39.2112C39.5567 28.9121 39.8377 29.1931 39.8377 29.5386C39.8377 29.884 39.5567 30.165 39.2112 30.165C38.3111 30.165 37.573 30.9032 37.573 31.8033C37.573 32.1487 37.292 32.4297 36.9465 32.4297C36.6011 32.4297 36.3201 32.1487 36.3201 31.8033C36.3201 31.1967 36.509 30.6317 36.832 30.165ZM36.3201 34.1699C36.3201 33.8244 36.6011 33.5434 36.9465 33.5434C37.292 33.5434 37.573 33.8244 37.573 34.1699V48.3015C37.573 50.1643 36.0577 51.6796 34.1949 51.6796H22.2261C21.8806 51.6796 21.5996 51.3986 21.5996 51.0531V47.5089C21.5996 47.1634 21.8806 46.8824 22.2261 46.8824C22.5715 46.8824 22.8525 47.1634 22.8525 47.5089V50.4266H34.1949C35.3668 50.4266 36.3201 49.4734 36.3201 48.3015V34.1699Z" fill="#252628"/>
<path d="M36.9472 45.6182C36.8226 45.6182 36.7207 45.5163 36.7207 45.3918V31.8037C36.7207 30.4335 37.8417 29.3125 39.2119 29.3125C40.582 29.3125 41.703 30.4335 41.703 31.8037V43.1271C41.703 43.2516 41.6011 43.3535 41.4765 43.3535C41.352 43.3535 41.2501 43.2516 41.2501 43.1271V31.8037C41.2501 30.6826 40.3329 29.7654 39.2119 29.7654C38.0908 29.7654 37.1736 30.6826 37.1736 31.8037V45.3918C37.1736 45.5163 37.0717 45.6182 36.9472 45.6182Z" fill="#252628"/>
<path fill-rule="evenodd" clip-rule="evenodd" d="M36.3203 31.8033C36.3203 30.2122 37.6204 28.9121 39.2115 28.9121C40.8025 28.9121 42.1026 30.2122 42.1026 31.8033V43.1267C42.1026 43.4722 41.8216 43.7532 41.4762 43.7532C41.1307 43.7532 40.8497 43.4722 40.8497 43.1267V31.8033C40.8497 30.9032 40.1116 30.165 39.2115 30.165C38.3114 30.165 37.5732 30.9032 37.5732 31.8033V45.3914C37.5732 45.7368 37.2923 46.0178 36.9468 46.0178C36.6013 46.0178 36.3203 45.7368 36.3203 45.3914V31.8033Z" fill="#252628"/>
<path d="M43.7412 45.6177C42.371 45.6177 41.25 44.4967 41.25 43.1265V32.9355C41.25 32.8109 41.3519 32.709 41.4765 32.709C41.601 32.709 41.7029 32.8109 41.7029 32.9355V43.1265C41.7029 44.2476 42.6201 45.1648 43.7412 45.1648C44.8622 45.1648 45.7794 44.2476 45.7794 43.1265V36.3325C45.7794 36.2079 45.8813 36.106 46.0058 36.106C46.1304 36.106 46.2323 36.2079 46.2323 36.3325V43.1265C46.2323 44.4967 45.1113 45.6177 43.7412 45.6177Z" fill="#252628"/>
<path fill-rule="evenodd" clip-rule="evenodd" d="M40.8496 32.9351C40.8496 32.5896 41.1306 32.3086 41.4761 32.3086C41.8215 32.3086 42.1025 32.5896 42.1025 32.9351V43.1261C42.1025 44.0262 42.8407 44.7644 43.7408 44.7644C44.6409 44.7644 45.379 44.0262 45.379 43.1261V36.3321C45.379 35.9866 45.66 35.7056 46.0054 35.7056C46.3509 35.7056 46.6319 35.9866 46.6319 36.3321V43.1261C46.6319 44.7172 45.3318 46.0173 43.7408 46.0173C42.1497 46.0173 40.8496 44.7172 40.8496 43.1261V32.9351Z" fill="#252628"/>
<path d="M33.5508 33.1619H29.0214C28.8968 33.1619 28.7949 33.06 28.7949 32.9355C28.7949 32.8109 28.8968 32.709 29.0214 32.709H33.5508C33.6753 32.709 33.7772 32.8109 33.7772 32.9355C33.7772 33.06 33.6753 33.1619 33.5508 33.1619Z" fill="#252628"/>
<path fill-rule="evenodd" clip-rule="evenodd" d="M28.3945 32.9351C28.3945 32.5896 28.6755 32.3086 29.021 32.3086H33.5504C33.8958 32.3086 34.1768 32.5896 34.1768 32.9351C34.1768 33.2805 33.8958 33.5615 33.5504 33.5615H29.021C28.6755 33.5615 28.3945 33.2805 28.3945 32.9351Z" fill="#252628"/>
<path d="M25.623 33.1622C25.5663 33.1622 25.5097 33.1396 25.4644 33.0943C25.4191 33.049 25.3965 32.9924 25.3965 32.9357C25.3965 32.8791 25.4191 32.8225 25.4644 32.7772C25.5437 32.698 25.7022 32.698 25.7815 32.7772C25.8268 32.8225 25.8494 32.8791 25.8494 32.9357C25.8494 32.9924 25.8268 33.049 25.7815 33.0943C25.7362 33.1396 25.6796 33.1622 25.623 33.1622Z" fill="#252628"/>
<path fill-rule="evenodd" clip-rule="evenodd" d="M25.6226 33.1174C25.6425 33.1174 25.6945 33.112 25.7469 33.0597C25.7469 33.0597 25.7469 33.0597 25.7469 33.0597C25.7742 33.0323 25.7961 32.9882 25.7961 32.9354C25.7961 32.8826 25.7742 32.8384 25.7469 32.811C25.7469 32.811 25.7469 32.811 25.7469 32.811C25.7196 32.7837 25.6754 32.7618 25.6226 32.7618C25.5698 32.7618 25.5256 32.7837 25.4982 32.811C25.4982 32.811 25.4982 32.811 25.4982 32.811C25.4709 32.8384 25.449 32.8826 25.449 32.9354C25.449 32.9882 25.4709 33.0323 25.4982 33.0597C25.4982 33.0597 25.4982 33.0597 25.4982 33.0597C25.5506 33.112 25.6026 33.1174 25.6226 33.1174ZM25.6226 32.3174C25.7614 32.3174 25.9323 32.3624 26.0639 32.494C26.1818 32.6119 26.249 32.7693 26.249 32.9354C26.249 33.1014 26.1818 33.2588 26.0639 33.3767C25.946 33.4946 25.7886 33.5618 25.6226 33.5618C25.4565 33.5618 25.2991 33.4946 25.1812 33.3767C25.0633 33.2588 24.9961 33.1014 24.9961 32.9354C24.9961 32.7693 25.0633 32.6119 25.1812 32.494C25.3128 32.3624 25.4837 32.3174 25.6226 32.3174Z" fill="#252628"/>
<path d="M46.0058 33.1622C45.9491 33.1622 45.8925 33.1396 45.8472 33.0943C45.8019 33.049 45.7793 32.9924 45.7793 32.9357C45.7793 32.8791 45.8019 32.8225 45.8472 32.7772C45.9265 32.698 46.085 32.698 46.1643 32.7772C46.2096 32.8225 46.2322 32.8791 46.2322 32.9357C46.2322 32.9924 46.2096 33.049 46.1643 33.0943C46.119 33.1396 46.0624 33.1622 46.0058 33.1622Z" fill="#252628"/>
<path fill-rule="evenodd" clip-rule="evenodd" d="M46.0054 33.1174C46.0253 33.1174 46.0773 33.112 46.1297 33.0597C46.157 33.0323 46.1789 32.9882 46.1789 32.9354C46.1789 32.8825 46.157 32.8384 46.1297 32.811C46.1024 32.7837 46.0582 32.7618 46.0054 32.7618C45.9526 32.7618 45.9084 32.7837 45.8811 32.811C45.8537 32.8384 45.8318 32.8825 45.8318 32.9354C45.8318 32.9882 45.8537 33.0323 45.8811 33.0597C45.9334 33.112 45.9854 33.1174 46.0054 33.1174ZM46.0054 32.3174C46.1442 32.3174 46.3151 32.3624 46.4467 32.494C46.5647 32.6119 46.6318 32.7693 46.6318 32.9354C46.6318 33.1014 46.5647 33.2588 46.4467 33.3767C46.3288 33.4946 46.1714 33.5618 46.0054 33.5618C45.8393 33.5618 45.6819 33.4946 45.564 33.3767C45.4461 33.2588 45.3789 33.1014 45.3789 32.9354C45.3789 32.7693 45.4461 32.6119 45.564 32.494C45.6956 32.3624 45.8665 32.3174 46.0054 32.3174Z" fill="#252628"/>
<path d="M33.5508 36.5594H29.0214C28.8968 36.5594 28.7949 36.4575 28.7949 36.3329C28.7949 36.2084 28.8968 36.1064 29.0214 36.1064H33.5508C33.6753 36.1064 33.7772 36.2084 33.7772 36.3329C33.7772 36.4575 33.6753 36.5594 33.5508 36.5594Z" fill="#252628"/>
<path fill-rule="evenodd" clip-rule="evenodd" d="M28.3945 36.3325C28.3945 35.9871 28.6755 35.7061 29.021 35.7061H33.5504C33.8958 35.7061 34.1768 35.9871 34.1768 36.3325C34.1768 36.678 33.8958 36.959 33.5504 36.959H29.021C28.6755 36.959 28.3945 36.678 28.3945 36.3325Z" fill="#252628"/>
<path d="M25.623 36.5587C25.5663 36.5587 25.5097 36.5361 25.4644 36.4908C25.4191 36.4455 25.3965 36.3889 25.3965 36.3322C25.3965 36.2756 25.4191 36.219 25.4644 36.1737C25.5437 36.0944 25.7022 36.0944 25.7815 36.1737C25.8268 36.219 25.8494 36.2756 25.8494 36.3322C25.8494 36.3889 25.8268 36.4455 25.7815 36.4908C25.7362 36.5361 25.6796 36.5587 25.623 36.5587Z" fill="#252628"/>
<path fill-rule="evenodd" clip-rule="evenodd" d="M25.6226 36.5139C25.6425 36.5139 25.6945 36.5085 25.7469 36.4562C25.7469 36.4562 25.7469 36.4562 25.7469 36.4562C25.7742 36.4288 25.7961 36.3846 25.7961 36.3318C25.7961 36.279 25.7742 36.2349 25.7469 36.2075C25.7469 36.2075 25.7469 36.2075 25.7469 36.2075C25.7196 36.1802 25.6754 36.1583 25.6226 36.1583C25.5698 36.1583 25.5256 36.1802 25.4982 36.2075C25.4982 36.2075 25.4982 36.2075 25.4982 36.2075C25.4709 36.2349 25.449 36.279 25.449 36.3318C25.449 36.3846 25.4709 36.4288 25.4982 36.4562C25.4982 36.4562 25.4982 36.4562 25.4982 36.4562C25.5506 36.5085 25.6026 36.5139 25.6226 36.5139ZM25.6226 35.7139C25.7614 35.7139 25.9323 35.7589 26.0639 35.8905C26.1818 36.0084 26.249 36.1658 26.249 36.3318C26.249 36.4979 26.1818 36.6553 26.0639 36.7732C25.946 36.8911 25.7886 36.9583 25.6226 36.9583C25.4565 36.9583 25.2991 36.8911 25.1812 36.7732C25.0633 36.6553 24.9961 36.4979 24.9961 36.3318C24.9961 36.1658 25.0633 36.0084 25.1812 35.8905C25.3128 35.7589 25.4837 35.7139 25.6226 35.7139Z" fill="#252628"/>
<path d="M33.5508 39.9559H29.0214C28.8968 39.9559 28.7949 39.854 28.7949 39.7294C28.7949 39.6048 28.8968 39.5029 29.0214 39.5029H33.5508C33.6753 39.5029 33.7772 39.6048 33.7772 39.7294C33.7772 39.854 33.6753 39.9559 33.5508 39.9559Z" fill="#252628"/>
<path fill-rule="evenodd" clip-rule="evenodd" d="M28.3945 39.729C28.3945 39.3835 28.6755 39.1025 29.021 39.1025H33.5504C33.8958 39.1025 34.1768 39.3835 34.1768 39.729C34.1768 40.0745 33.8958 40.3555 33.5504 40.3555H29.021C28.6755 40.3555 28.3945 40.0745 28.3945 39.729Z" fill="#252628"/>
<path d="M25.623 39.9562C25.5663 39.9562 25.5097 39.9335 25.4644 39.8882C25.4191 39.8429 25.3965 39.7863 25.3965 39.7297C25.3965 39.6731 25.4191 39.6165 25.4644 39.5712C25.5437 39.4919 25.7022 39.4919 25.7815 39.5712C25.8268 39.6165 25.8494 39.6731 25.8494 39.7297C25.8494 39.7863 25.8268 39.8429 25.7815 39.8882C25.7362 39.9335 25.6796 39.9562 25.623 39.9562Z" fill="#252628"/>
<path fill-rule="evenodd" clip-rule="evenodd" d="M25.6226 39.9113C25.6425 39.9113 25.6945 39.906 25.7469 39.8536C25.7469 39.8536 25.7469 39.8536 25.7469 39.8536C25.7742 39.8263 25.7961 39.7821 25.7961 39.7293C25.7961 39.6765 25.7742 39.6323 25.7469 39.605C25.7469 39.605 25.7469 39.605 25.7469 39.605C25.7196 39.5777 25.6754 39.5558 25.6226 39.5558C25.5698 39.5558 25.5256 39.5777 25.4982 39.605C25.4982 39.605 25.4982 39.605 25.4982 39.605C25.4709 39.6323 25.449 39.6765 25.449 39.7293C25.449 39.7821 25.4709 39.8263 25.4982 39.8536C25.4982 39.8536 25.4982 39.8536 25.4982 39.8536C25.5506 39.906 25.6026 39.9113 25.6226 39.9113ZM25.6226 39.1113C25.7614 39.1113 25.9323 39.1563 26.0639 39.2879C26.1818 39.4058 26.249 39.5633 26.249 39.7293C26.249 39.8953 26.1818 40.0528 26.0639 40.1707C25.946 40.2886 25.7886 40.3558 25.6226 40.3558C25.4565 40.3558 25.2991 40.2886 25.1812 40.1707C25.0633 40.0528 24.9961 39.8953 24.9961 39.7293C24.9961 39.5633 25.0633 39.4058 25.1812 39.2879C25.3128 39.1563 25.4837 39.1113 25.6226 39.1113Z" fill="#252628"/>
<path d="M33.5508 43.3533H29.0214C28.8968 43.3533 28.7949 43.2514 28.7949 43.1269C28.7949 43.0023 28.8968 42.9004 29.0214 42.9004H33.5508C33.6753 42.9004 33.7772 43.0023 33.7772 43.1269C33.7772 43.2514 33.6753 43.3533 33.5508 43.3533Z" fill="#252628"/>
<path fill-rule="evenodd" clip-rule="evenodd" d="M28.3945 43.1265C28.3945 42.781 28.6755 42.5 29.021 42.5H33.5504C33.8958 42.5 34.1768 42.781 34.1768 43.1265C34.1768 43.4719 33.8958 43.7529 33.5504 43.7529H29.021C28.6755 43.7529 28.3945 43.4719 28.3945 43.1265Z" fill="#252628"/>
<path d="M25.623 43.3526C25.5663 43.3526 25.5097 43.33 25.4644 43.2847C25.4191 43.2394 25.3965 43.1828 25.3965 43.1262C25.3965 43.0696 25.4191 43.0129 25.4644 42.9677C25.5437 42.8884 25.7022 42.8884 25.7815 42.9677C25.8268 43.0129 25.8494 43.0696 25.8494 43.1262C25.8494 43.1828 25.8268 43.2394 25.7815 43.2847C25.7362 43.33 25.6796 43.3526 25.623 43.3526Z" fill="#252628"/>
<path fill-rule="evenodd" clip-rule="evenodd" d="M25.6226 43.3078C25.6425 43.3078 25.6945 43.3025 25.7469 43.2501C25.7469 43.2501 25.7469 43.2501 25.7469 43.2501C25.7742 43.2228 25.7961 43.1786 25.7961 43.1258C25.7961 43.073 25.7742 43.0288 25.7469 43.0015C25.7469 43.0015 25.7469 43.0015 25.7469 43.0015C25.7196 42.9741 25.6754 42.9523 25.6226 42.9523C25.5698 42.9523 25.5256 42.9741 25.4982 43.0015C25.4982 43.0015 25.4982 43.0015 25.4982 43.0015C25.4709 43.0288 25.449 43.073 25.449 43.1258C25.449 43.1786 25.4709 43.2228 25.4982 43.2501C25.4982 43.2501 25.4982 43.2501 25.4982 43.2501C25.5506 43.3025 25.6026 43.3078 25.6226 43.3078ZM25.6226 42.5078C25.7614 42.5078 25.9323 42.5528 26.0639 42.6844C26.1818 42.8023 26.249 42.9597 26.249 43.1258C26.249 43.2918 26.1818 43.4492 26.0639 43.5672C25.946 43.6851 25.7886 43.7523 25.6226 43.7523C25.4565 43.7523 25.2991 43.6851 25.1812 43.5672C25.0633 43.4492 24.9961 43.2918 24.9961 43.1258C24.9961 42.9597 25.0633 42.8023 25.1812 42.6844C25.3128 42.5528 25.4837 42.5078 25.6226 42.5078Z" fill="#252628"/>
<path d="M43.7412 45.618H36.9472C36.8226 45.618 36.7207 45.5161 36.7207 45.3915C36.7207 45.2669 36.8226 45.165 36.9472 45.165H43.7412C43.8658 45.165 43.9677 45.2669 43.9677 45.3915C43.9677 45.5161 43.8658 45.618 43.7412 45.618Z" fill="#252628"/>
<path fill-rule="evenodd" clip-rule="evenodd" d="M36.3203 45.3911C36.3203 45.0456 36.6013 44.7646 36.9468 44.7646H43.7408C44.0863 44.7646 44.3673 45.0456 44.3673 45.3911C44.3673 45.7366 44.0863 46.0176 43.7408 46.0176H36.9468C36.6013 46.0176 36.3203 45.7366 36.3203 45.3911Z" fill="#252628"/>
<path d="M33.5497 47.8826H31.2851C31.1605 47.8826 31.0586 47.7807 31.0586 47.6562C31.0586 47.5316 31.1605 47.4297 31.2851 47.4297H33.5497C33.6743 47.4297 33.7762 47.5316 33.7762 47.6562C33.7762 47.7807 33.6743 47.8826 33.5497 47.8826Z" fill="#252628"/>
<path fill-rule="evenodd" clip-rule="evenodd" d="M30.6582 47.6558C30.6582 47.3103 30.9392 47.0293 31.2847 47.0293H33.5494C33.8948 47.0293 34.1758 47.3103 34.1758 47.6558C34.1758 48.0012 33.8948 48.2822 33.5494 48.2822H31.2847C30.9392 48.2822 30.6582 48.0012 30.6582 47.6558Z" fill="#252628"/>
<path d="M33.5507 66C33.4261 66 33.3242 65.898 33.3242 65.7735V56.7147C33.3242 56.5902 33.4261 56.4883 33.5507 56.4883C33.6752 56.4883 33.7772 56.5902 33.7772 56.7147V65.7735C33.7772 65.898 33.6752 66 33.5507 66Z" fill="#252628"/>
<path fill-rule="evenodd" clip-rule="evenodd" d="M32.9238 56.7144C32.9238 56.3689 33.2048 56.0879 33.5503 56.0879C33.8958 56.0879 34.1768 56.3689 34.1768 56.7144V65.7731C34.1768 66.1186 33.8958 66.3996 33.5503 66.3996C33.2048 66.3996 32.9238 66.1186 32.9238 65.7731V56.7144Z" fill="#252628"/>
<path d="M54.2929 57.2801H53.1152L53.3417 56.8271H54.7911V64.3799H54.2929V57.2801Z" fill="#252628"/>
<path d="M56.207 64.3802L59.1058 61.187C59.3663 60.8926 59.6607 60.5756 59.9324 60.1679C60.1476 59.8395 60.3741 59.4092 60.3741 58.877C60.3741 57.9259 59.6607 57.1785 58.6189 57.1785C58.2113 57.1785 57.713 57.2804 57.3167 57.7334C57.0903 57.9825 56.8751 58.4128 56.8751 58.9676H56.3769C56.3769 58.2882 56.6373 57.7334 56.977 57.3823C57.3054 57.0426 57.8376 56.7256 58.6529 56.7256C59.9551 56.7256 60.8949 57.6541 60.8949 58.877C60.8949 59.5225 60.6458 60.0207 60.3514 60.4283C60.1816 60.6661 59.8985 61.0058 59.6833 61.2436L57.2601 63.9273H60.861V64.3802H56.207Z" fill="#252628"/>
</svg>
