<svg width="85" height="85" viewBox="0 0 85 85" fill="none" xmlns="http://www.w3.org/2000/svg">
<circle cx="42.5" cy="42.5" r="42" stroke="#252628"/>
<mask id="path-2-inside-1_1493_10" fill="white">
<path d="M61.5117 48.7701V23H60.644V48.7701H53.9629L61.0779 63L68.1928 48.7701H61.5117ZM55.4379 49.6377H66.8045L61.0779 61.0043L55.4379 49.6377Z"/>
</mask>
<path d="M61.5117 48.7701H60.5117V49.7701H61.5117V48.7701ZM61.5117 23H62.5117V22H61.5117V23ZM60.644 23V22H59.644V23H60.644ZM60.644 48.7701V49.7701H61.644V48.7701H60.644ZM53.9629 48.7701V47.7701H52.3449L53.0685 49.2173L53.9629 48.7701ZM61.0779 63L60.1834 63.4472L61.0779 65.2361L61.9723 63.4472L61.0779 63ZM68.1928 48.7701L69.0873 49.2173L69.8109 47.7701H68.1928V48.7701ZM55.4379 49.6377V48.6377H53.8254L54.5422 50.0822L55.4379 49.6377ZM66.8045 49.6377L67.6976 50.0877L68.4281 48.6377H66.8045V49.6377ZM61.0779 61.0043L60.1821 61.4488L61.071 63.2404L61.9709 61.4543L61.0779 61.0043ZM62.5117 48.7701V23H60.5117V48.7701H62.5117ZM61.5117 22H60.644V24H61.5117V22ZM59.644 23V48.7701H61.644V23H59.644ZM60.644 47.7701H53.9629V49.7701H60.644V47.7701ZM53.0685 49.2173L60.1834 63.4472L61.9723 62.5528L54.8573 48.3229L53.0685 49.2173ZM61.9723 63.4472L69.0873 49.2173L67.2984 48.3229L60.1834 62.5528L61.9723 63.4472ZM68.1928 47.7701H61.5117V49.7701H68.1928V47.7701ZM55.4379 50.6377H66.8045V48.6377H55.4379V50.6377ZM65.9115 49.1878L60.1848 60.5544L61.9709 61.4543L67.6976 50.0877L65.9115 49.1878ZM61.9736 60.5599L56.3337 49.1933L54.5422 50.0822L60.1821 61.4488L61.9736 60.5599Z" fill="#252628" mask="url(#path-2-inside-1_1493_10)"/>
<path d="M36.7832 23.0879C40.5142 23.0879 43.7246 24.3894 46.3277 26.9057C48.9307 29.4219 50.2322 32.5456 50.2322 36.1898C50.2322 39.8341 48.9307 42.9577 46.3277 45.474C43.7246 47.9903 40.601 49.2918 36.7832 49.2918H31.0565V62.8276H22.293V23.0879H36.7832ZM36.7832 41.3959C38.1715 41.3959 39.2127 40.7885 40.0804 39.8341C40.9481 38.8796 41.3819 37.7517 41.3819 36.3634C41.3819 34.9751 40.9481 33.8471 40.0804 32.8927C39.2127 31.9382 38.0847 31.5044 36.7832 31.5044H31.0565V41.3959H36.7832Z" stroke="#252628" stroke-width="1.1" stroke-miterlimit="10"/>
<mask id="path-5-inside-2_1493_10" fill="white">
<path d="M50.2323 54.0635H31.0566V55.0179H50.2323V54.0635Z"/>
</mask>
<path d="M31.0566 54.0635V53.0635H30.0566V54.0635H31.0566ZM50.2323 54.0635H51.2323V53.0635H50.2323V54.0635ZM50.2323 55.0179V56.0179H51.2323V55.0179H50.2323ZM31.0566 55.0179H30.0566V56.0179H31.0566V55.0179ZM31.0566 55.0635H50.2323V53.0635H31.0566V55.0635ZM49.2323 54.0635V55.0179H51.2323V54.0635H49.2323ZM50.2323 54.0179H31.0566V56.0179H50.2323V54.0179ZM32.0566 55.0179V54.0635H30.0566V55.0179H32.0566Z" fill="#252628" mask="url(#path-5-inside-2_1493_10)"/>
<mask id="path-7-inside-3_1493_10" fill="white">
<path d="M22.2928 54.0635H17V55.0179H22.2928V54.0635Z"/>
</mask>
<path d="M17 54.0635V53.0635H16V54.0635H17ZM22.2928 54.0635H23.2928V53.0635H22.2928V54.0635ZM22.2928 55.0179V56.0179H23.2928V55.0179H22.2928ZM17 55.0179H16V56.0179H17V55.0179ZM17 55.0635H22.2928V53.0635H17V55.0635ZM21.2928 54.0635V55.0179H23.2928V54.0635H21.2928ZM22.2928 54.0179H17V56.0179H22.2928V54.0179ZM18 55.0179V54.0635H16V55.0179H18Z" fill="#252628" mask="url(#path-7-inside-3_1493_10)"/>
</svg>
