<svg width="85" height="85" viewBox="0 0 85 85" fill="none" xmlns="http://www.w3.org/2000/svg">
<circle cx="42.5" cy="42.5" r="42" stroke="#252628"/>
<path d="M49.3153 66.7895C49.9995 66.7895 50.3679 66.4737 51.0521 65.8947C51.4732 66.1053 51.8942 66.3158 52.2626 66.4737L52.6837 65.5789C52.4205 65.4737 52.1574 65.3684 51.8942 65.2105C53.5784 63.8421 55.1574 62.3158 56.5258 60.6316C57.0521 60.7895 57.5258 60.9474 57.9995 61.1579L58.4732 60.2632C57.9995 60.0526 57.5784 59.8947 57.0521 59.7368C57.3153 58.7368 56.5258 57.7368 55.4205 57.7368C54.5258 57.7368 54.1574 58.3158 53.7363 58.7368C53.21 58.5263 52.789 58.3684 52.4205 58.1053C52.6311 57.8421 52.8416 57.5789 53.0521 57.3158C53.5784 56.6842 53.5258 55.7895 52.8942 55.2105C52.5784 54.8947 52.1574 54.7368 51.6837 54.7368C50.8416 54.7368 50.4732 55.2105 50.1047 55.6842C49.5784 54.7368 49.2626 53.7895 49.1047 52.7895C49.8942 52.5789 50.4205 51.8947 50.4205 51.1053C50.4205 50.2105 49.7363 49.4737 48.8416 49.3684C48.8416 48.6316 48.8416 48.5263 48.8416 48.1053C50.9469 47.8421 50.9995 44.9474 48.8942 44.6316C48.8942 44.2105 48.8942 43.7895 48.9469 43.3684C50.9469 43 50.9995 40.3684 49.0521 39.9474C49.0521 39.5263 49.1047 39.0526 49.1047 38.6316C50.9469 38.1053 50.8416 35.8947 49.2626 35.3158C49.2626 35.2105 49.2626 35.1053 49.2626 35.0526C50.0521 35.6842 51.1047 35.4211 51.5258 34.5263C51.789 34 51.6837 33.3684 51.5784 32.6316C51.4205 31.4211 51.21 29.7368 52.2626 27.2105C52.3679 26.9474 52.5258 26.6842 52.6837 26.3684C53.4732 24.8421 54.4732 22.6842 53.4732 19.8421C53.21 19.1053 52.6311 19 52.4205 19C52.1574 19 51.8942 19.1053 51.6837 19.3158C51.4732 19.5263 51.3153 19.8421 51.3679 20.1053C51.3679 23.1053 51.789 23.5789 50.789 23.0526C50.7363 23 50.0521 22.5789 48.9469 22.5789C47.3153 22.5789 45.789 23.5789 45.4205 25.5789C45.3679 25.9474 45.3153 26.2632 45.1047 26.4737C44.5258 27.1053 43.5258 26.4211 43.4732 26.4211H43.1574C43.0521 26.4737 42.8416 26.6842 42.5258 26.7368C42.1574 26.8421 41.7363 26.7368 41.5258 26.4737C41.2626 26.1579 41.2626 25.6316 41.1047 25.0526C40.5258 23 37.9995 21.9474 35.9995 23C35.1047 23.5263 35.1047 23.5263 35.2626 21.1053C35.3153 20.1053 35.3679 19.4211 34.5258 19.1053C33.9995 18.9474 33.3679 19.1579 33.0521 20C31.21 25.1579 35.8942 26.7368 34.9469 32.7895C34.8416 33.4737 34.7363 34.0526 34.9995 34.6842C35.2626 35.2105 35.789 35.5263 36.3153 35.5263C37.1047 35.5263 37.4732 34.8947 37.8942 34.4211C37.8942 34.7895 37.9469 35.1579 37.9469 35.4737C36.3153 36.0526 36.3679 38.3158 38.1047 38.7895C38.1047 39.2105 38.1574 39.6842 38.1574 40.1053C37.3679 40.3158 36.7363 40.9474 36.7363 41.7895C36.7363 42.6316 37.3679 43.3684 38.2626 43.5263C38.2626 43.9474 38.2626 44.3684 38.3153 44.7895C37.4205 44.8947 36.7363 45.6316 36.7363 46.5263C36.7363 47.4211 37.4205 48.1579 38.3153 48.2632C38.3153 48.3158 38.3153 48.3158 38.3153 48.3684C38.3153 48.7368 38.3153 49.1579 38.3153 49.5263C37.4205 49.6316 36.7363 50.3684 36.7363 51.2632C36.7363 52.0526 37.2626 52.6842 38.0521 52.9474C37.8942 53.7895 37.6837 54.5263 37.2626 55.3684C36.8942 54.9474 36.5258 54.5263 35.7363 54.5263C35.2626 54.5263 34.8416 54.6842 34.5258 55C33.9469 55.5789 33.8942 56.4737 34.3679 57.1053C34.6311 57.4211 34.8416 57.7368 35.1047 58C34.789 58.2105 34.4732 58.4211 33.8416 58.6842C33.2626 58.0526 32.9469 57.5263 31.9995 57.5263C30.789 57.5263 29.9469 58.7368 30.4732 59.7895C30.0521 59.8947 29.6311 60.0526 29.2626 60.2105C29.1047 60.2632 28.8942 60.3684 28.7363 60.4211L29.21 61.3158C29.3679 61.2632 29.5258 61.1579 29.6837 61.1053C30.1574 60.9474 30.6311 60.7895 31.1574 60.6316C32.5258 62.2632 34.0521 63.7895 35.789 65.1579C35.1574 65.4737 34.4732 65.7895 33.7363 66.0526L34.1047 67C34.9995 66.6842 35.8416 66.3158 36.6311 65.8947C37.1574 66.3158 37.5258 66.6316 38.21 66.6316C39.6837 66.6316 40.4732 65 39.4205 63.9474C39.789 63.6316 40.1047 63.3684 40.4205 63.0526C40.5784 63.1579 40.6837 63.2632 40.8416 63.3684C42.5784 64.6316 44.6311 62.2105 42.9469 60.8947C42.789 60.7895 42.6837 60.6842 42.5258 60.5789C42.9469 59.9474 43.3153 59.3684 43.5258 58.8947C43.789 59.4737 44.2626 60.2105 44.8416 61C44.3153 61.4211 43.8942 61.6842 43.8416 62.4737C43.789 63.8421 45.4205 64.6316 46.5258 63.8421C46.6837 63.7368 46.8416 63.6316 46.9995 63.5263C47.3153 63.8421 47.6837 64.1579 47.9995 64.4211C47.6837 64.6842 47.4732 65.0526 47.4732 65.4737C47.5784 66.0526 48.3153 66.7895 49.3153 66.7895ZM54.9995 59C55.5258 58.4211 56.4732 59.1053 55.9469 59.7895C53.4732 62.8947 51.21 64.5263 50.6837 65C49.9995 65.5263 49.3679 66.1579 48.8942 65.6842C48.6311 65.4737 48.6311 65.0526 48.9469 64.7895C51.3153 62.8421 53.3679 60.8421 54.9995 59ZM47.9469 62.5789C49.3679 61.4737 50.6311 60.2632 51.8416 58.9474C52.21 59.1579 52.6311 59.3684 53.1047 59.5789C51.8416 60.9474 50.4732 62.2105 48.9995 63.4211C48.5784 63.1579 48.2626 62.8421 47.9469 62.5789ZM39.4732 48.3158C40.8416 48.4737 42.2626 48.5263 43.6837 48.5263C45.0521 48.5263 46.4732 48.4211 47.8942 48.3158C47.8942 48.6842 47.8942 49.1053 47.8942 49.4737C45.1047 49.6842 42.3153 49.6842 39.4732 49.4737C39.4732 49.1053 39.4732 48.7368 39.4732 48.3158ZM39.4205 44.7895C39.4205 44.4211 39.4205 44 39.4205 43.6316C40.8416 43.7895 42.2626 43.8421 43.6837 43.8421C45.1047 43.8421 46.5258 43.7368 47.9469 43.6316C47.9469 44 47.9469 44.4211 47.9469 44.7895C45.1047 45 42.2626 45 39.4205 44.7895ZM39.3153 40.0526C39.3153 39.6842 39.2626 39.2632 39.2626 38.8947C40.7363 39.0526 42.21 39.1579 43.6837 39.1579C45.1574 39.1579 46.6311 39.0526 48.1047 38.8947C48.1047 39.2632 48.0521 39.6842 48.0521 40.0526C45.1574 40.3158 42.21 40.3158 39.3153 40.0526ZM39.0521 35.3158C38.9995 34.7895 38.9995 34.1053 38.9469 33.5263C40.3153 32.6316 41.8416 32 43.5258 32C44.6311 32 47.1574 32.9474 48.3679 34.0526C48.3153 34.4737 48.3153 34.8947 48.2626 35.3158C45.21 35.5789 42.1047 35.5789 39.0521 35.3158ZM37.0521 33.8421C36.8416 34.1053 36.5784 34.5263 36.3153 34.5263C36.1574 34.5263 35.9995 34.3684 35.9469 34.2632C35.789 33.8947 35.8942 33.3684 35.9469 32.9474C36.9469 26.5263 32.3153 25 33.9995 20.3684C34.0521 20.2105 34.1574 20.1053 34.1574 20.1053C34.4205 20.5789 33.5258 23.3684 34.6311 24.1579C35.2626 24.5789 35.8416 24.2632 36.4205 23.9474C37.8416 23.2105 39.5784 23.9474 39.9995 25.3684C40.1574 25.8947 40.1574 26.5789 40.6311 27.1579C41.1574 27.7895 42.2626 28 43.2626 27.5263C44.21 28 45.3153 27.7895 45.8416 27.1579C46.3153 26.6316 46.3153 25.8947 46.4732 25.3684C46.789 24.3684 47.7363 23.6316 48.8942 23.6316C50.21 23.6316 50.8416 24.7895 51.8416 24.1053C52.7363 23.5263 52.3153 22.6842 52.3153 20.1579C52.3153 20.1053 52.3153 20.1053 52.3153 20.0526C52.3679 20.1053 52.4205 20.1579 52.4732 20.3158C53.3679 22.7895 52.4732 24.5789 51.7363 26.0526C51.5784 26.3684 51.4205 26.6842 51.3153 26.9474C50.1574 29.6842 50.4205 31.5789 50.5784 32.8421C50.6311 33.3684 50.8416 34.4737 50.21 34.5263C50.0521 34.5263 49.9469 34.4211 49.4732 33.8421C48.2626 32.3158 44.8942 31 43.4732 31C43.3679 31 43.3153 31 43.2626 31C43.21 31 43.1047 31 43.0521 31C41.6311 31 38.2626 32.2632 37.0521 33.8421ZM38.5784 36.3158C47.4732 37.1053 49.4205 35.4211 49.4205 37.0526C49.4205 37.5789 48.9469 37.7895 48.5258 37.8421C43.3153 38.5263 39.6311 37.8947 38.5258 37.8421C37.5784 37.6842 37.6837 36.3684 38.5784 36.3158ZM38.7363 41C47.5784 41.7895 49.4732 40.1053 49.4732 41.7368C49.4732 41.9474 49.4205 42.1053 49.2626 42.2105C48.9995 42.5263 48.6311 42.4737 48.4205 42.5263C43.1574 43.1579 38.7363 42.4737 38.5784 42.4737C37.5258 42.3684 37.6837 40.9474 38.7363 41ZM38.7363 45.7368H38.8942C47.5258 46.4737 49.4732 44.8947 49.4732 46.4737C49.4732 47.1579 48.789 47.2105 48.3153 47.2632C45.21 47.6316 41.9469 47.6316 38.5784 47.2105C37.5258 47.1053 37.7363 45.6316 38.7363 45.7368ZM38.8942 50.4737C47.5258 51.2105 49.4732 49.6316 49.4732 51.2105C49.4732 51.6316 49.21 51.9474 48.5258 52C44.9469 52.4737 41.21 52.3684 38.5784 51.9474C37.5784 51.7895 37.5784 50.3684 38.8942 50.4737ZM35.9469 58.6316C37.1047 59.8947 38.4205 61.1053 39.789 62.2105C39.4732 62.5263 39.1574 62.7895 38.789 63.1053C37.3679 61.9474 35.9995 60.6842 34.7363 59.3684C35.3153 59.0526 35.6311 58.8947 35.9469 58.6316ZM37.9469 65.3158C35.6311 63.6842 33.5258 61.6842 31.7363 59.4737C31.7363 59.4211 31.2626 59 31.7363 58.5789C31.9995 58.3158 32.4205 58.3158 32.6837 58.6316C37.1047 63.6842 38.9995 64.1053 38.9995 64.8421C38.9995 64.9474 38.3679 65.5789 37.9469 65.3158ZM41.6311 62.3684C39.2626 60.6842 37.1047 58.6316 35.3679 56.4211C35.0521 56.0526 35.3153 55.4737 35.8942 55.4737C36.2626 55.4737 36.3153 55.6316 37.1574 56.5263C41.0521 60.7368 42.6837 61.2105 42.7363 61.8947C42.6837 62.3684 42.0521 62.6316 41.6311 62.3684ZM43.6837 57.3158C43.3679 57.3158 43.0521 57.4737 42.9469 57.7895C42.7363 58.2632 42.4205 58.8947 41.8942 59.6842C40.5784 58.5789 39.3153 57.3684 38.1574 56.1053C38.7363 55.0526 38.9995 54.0526 39.21 53.0526C40.6837 53.2105 42.21 53.3158 43.6837 53.3158C45.1574 53.3158 46.6837 53.2105 48.1574 53.0526C48.3679 54.2632 48.7363 55.3684 49.4732 56.5789C48.3153 57.7895 47.0521 59 45.7363 60.1053C45.0521 59.1579 44.6311 58.3684 44.3679 57.7895C44.2626 57.4737 43.9995 57.3158 43.6837 57.3158ZM45.21 62.6842C44.9469 62.4211 44.9469 62 45.2626 61.7895C51.1574 57.1579 51.3679 55.1053 52.3153 55.9474C52.5258 56.1579 52.5784 56.4737 52.3679 56.7368C52.0521 57.1579 51.7363 57.5263 51.3679 57.8947C50.0521 59.4211 48.5258 60.8421 46.8416 62.1053C46.2626 62.5789 45.6837 63.1579 45.21 62.6842Z" fill="#252628"/>
<path d="M22.4737 27.1588C21.2632 27.1588 20.2632 26.1588 20.2632 24.9482H19.2105C19.2105 26.1588 18.2105 27.1588 17 27.1588V28.2114C18.2105 28.2114 19.2105 29.2114 19.2105 30.4219H20.2632C20.2632 29.2114 21.2632 28.2114 22.4737 28.2114V27.1588ZM19.7895 28.6325C19.5263 28.264 19.2105 27.9482 18.8421 27.6851C19.2105 27.4219 19.5263 27.1061 19.7895 26.7377C20 27.1061 20.3684 27.4219 20.7368 27.6851C20.3684 27.9482 20 28.264 19.7895 28.6325Z" fill="#252628"/>
<path d="M27.3687 44.6319H28.4214C28.4214 43.4214 29.4214 42.4214 30.6319 42.4214V41.3687C29.4214 41.3687 28.4214 40.3687 28.4214 39.1582H27.3687C27.3687 40.3687 26.3687 41.3687 25.1582 41.3687V42.4214C26.4214 42.474 27.3687 43.4214 27.3687 44.6319ZM27.895 41.0003C28.1582 41.3687 28.474 41.6845 28.8424 41.9477C28.474 42.2108 28.1582 42.5266 27.895 42.895C27.6319 42.5266 27.3161 42.2108 26.9477 41.9477C27.3161 41.6845 27.6845 41.3687 27.895 41.0003Z" fill="#252628"/>
<path d="M63.2109 29.0532C64.4215 29.0532 65.4215 30.0532 65.4215 31.2637H66.4741C66.4741 30.0532 67.4741 29.0532 68.6846 29.0532V28.0006C67.4741 28.0006 66.4741 27.0006 66.4741 25.79H65.4215C65.4215 27.0006 64.4215 28.0006 63.2109 28.0006V29.0532ZM65.8952 27.5795C66.1583 27.9479 66.4741 28.2637 66.8425 28.5269C66.4741 28.79 66.1583 29.1058 65.8952 29.4742C65.632 29.1058 65.3162 28.79 64.9478 28.5269C65.3162 28.2637 65.6846 27.9479 65.8952 27.5795Z" fill="#252628"/>
<path d="M59.9473 49.4204C61.1578 49.4204 62.1578 50.4204 62.1578 51.6309H63.2104C63.2104 50.4204 64.2104 49.4204 65.421 49.4204V48.3678C64.2104 48.3678 63.2104 47.3678 63.2104 46.1572H62.1578C62.1578 47.3678 61.1578 48.3678 59.9473 48.3678V49.4204ZM62.6841 47.9467C62.9473 48.3151 63.2631 48.6309 63.6315 48.8941C63.2631 49.1572 62.9473 49.473 62.6841 49.8414C62.4209 49.473 62.1052 49.1572 61.7367 48.8941C62.1052 48.6309 62.4209 48.3151 62.6841 47.9467Z" fill="#252628"/>
<path d="M17.0527 59.4731C18.2633 59.4731 19.2633 60.4731 19.2633 61.6836H20.3159C20.3159 60.4731 21.3159 59.4731 22.5264 59.4731V58.4205C21.3159 58.4205 20.3159 57.4205 20.3159 56.21H19.2633C19.2633 57.4205 18.2633 58.4205 17.0527 58.4205V59.4731ZM19.7896 57.9994C20.0527 58.3679 20.3685 58.6836 20.7369 58.9468C20.3685 59.21 20.0527 59.5258 19.7896 59.8942C19.5264 59.5258 19.2106 59.21 18.8422 58.9468C19.2106 58.6836 19.5264 58.3679 19.7896 57.9994Z" fill="#252628"/>
</svg>
