<svg width="85" height="85" viewBox="0 0 85 85" fill="none" xmlns="http://www.w3.org/2000/svg">
<circle cx="42.5" cy="42.5" r="42" stroke="#252628"/>
<path d="M36.1473 50.3868C36.2528 58.9846 43.3209 66 51.9187 66C60.5692 66 67.5846 58.9846 67.5846 50.3341C67.5319 44.6901 64.5253 39.5209 59.7253 36.778L59.1978 37.7275C63.6813 40.3648 66.4769 45.1648 66.4769 50.3341C66.4769 58.3517 59.9363 64.8923 51.9187 64.8923C48.8593 64.8923 45.9055 63.9429 43.3736 62.1495L43.1099 61.9385L43.3209 61.7275C46.4857 58.7736 48.2264 54.7121 48.2264 50.3341H47.1714C47.1714 54.5011 45.4835 58.2989 42.3714 61.1473L42.2659 61.3055L42.1077 61.1473C39.0484 58.3517 37.3077 54.5011 37.3077 50.3341C37.3077 46.167 38.9956 42.3165 42.1077 39.5209L42.2659 39.3626L42.4242 39.5209C44.6923 41.578 46.222 44.2154 46.8549 47.222L46.9077 47.433L46.6967 47.4857C45.167 47.9604 43.6901 48.1714 42.2659 48.1714C41.3692 48.1714 40.4725 48.0659 39.5231 47.9077L39.3121 48.9626C40.5253 49.1736 41.422 49.2791 42.3187 49.2791C50.9692 49.2791 57.9846 42.2637 57.9846 33.6132C57.9319 25.0154 50.9165 18 42.2659 18C33.6154 18 26.6 25.0154 26.6 33.6659C26.6 34.2989 26.6527 34.8791 26.7055 35.5121V35.8286L26.5473 35.8813C20.7451 38.3604 17 44.0571 17 50.3341C17 58.9846 24.0154 66 32.6132 66C35.356 66 38.0462 65.2615 40.4198 63.8901L39.8396 62.9934C37.5714 64.2593 35.0923 64.9451 32.6132 64.9451C24.5956 64.9451 18.0549 58.4044 18.0549 50.3868C18.0549 42.3692 24.5956 35.8286 32.6132 35.8286C35.6725 35.8286 38.6264 36.778 41.1582 38.5714L41.422 38.7824L41.211 38.9934C38.9429 41.1033 37.3604 43.7934 36.622 46.8L36.5692 47.1165L36.2527 47.011C32.6132 45.3758 29.7648 42.2637 28.4462 38.5187L27.444 38.8352C28.8681 43.0549 32.0857 46.4308 36.2 48.1714L36.411 48.2769L36.3582 48.4879C36.2 49.1209 36.1473 49.7538 36.1473 50.3868ZM56.5077 36.778C55.5582 41.2615 52.4462 45.0593 48.2264 46.9582L47.9099 47.0637L47.8571 46.7473C47.1714 43.6879 45.589 40.9978 43.3209 38.9407L43.0571 38.7297L43.3209 38.5187C45.8527 36.7253 48.7538 35.7758 51.8132 35.7758C53.3956 35.7758 54.8725 35.9868 56.2967 36.4615L56.5077 36.5143V36.778ZM32.6132 34.6681C31.1363 34.6681 29.6066 34.8791 28.0769 35.3538L27.7604 35.4593V35.1429C27.7077 34.6681 27.6549 34.1934 27.6549 33.6659C27.7077 25.6484 34.2484 19.1077 42.2659 19.1077C50.2835 19.1077 56.8242 25.6484 56.8242 33.6659C56.8242 34.1407 56.8242 34.6154 56.7714 35.1429L56.7187 35.4593L56.4022 35.3538C55.0308 34.9319 53.4484 34.6681 51.9187 34.6681C48.4901 34.6681 45.167 35.7758 42.4769 37.833L42.3187 37.9385L42.1604 37.833C39.3121 35.7758 36.0418 34.6681 32.6132 34.6681Z" fill="#252628"/>
</svg>
