<svg width="85" height="85" viewBox="0 0 85 85" fill="none" xmlns="http://www.w3.org/2000/svg">
<circle cx="42.5" cy="42.5" r="42" stroke="#252628"/>
<path d="M72.4301 39.5556C72.4301 39.4875 72.4301 39.4875 72.4301 39.5556C72.4301 39.4875 72.4301 39.4875 72.4301 39.4875C72.4301 39.4875 72.4301 39.4875 72.4301 39.4194L56.9032 29H54.9283H43.147H31.4337H29.4588L14 39.2832C14 39.2832 14 39.2832 14 39.3513V39.4194V39.4875C14 39.4875 14 39.4875 14 39.5556L42.9427 66.7957L43.147 67L43.3513 66.7957L72.2939 39.5556C72.2939 39.5556 72.2939 39.5556 72.2939 39.4875C72.2939 39.4875 72.2939 39.4875 72.2939 39.4194C72.4301 39.6237 72.4301 39.6237 72.4301 39.5556ZM70.9319 39.2151H63.9857L64.6667 34.9928L70.9319 39.2151ZM55.0645 29.681H56.6989L64.1219 34.5842L63.4409 39.0789L52.0681 34.3118L55.0645 29.681ZM53.6344 39.2151H44.3728L51.319 34.9247L53.6344 39.2151ZM52.2043 35.129L61.9427 39.2151H54.4516L52.2043 35.129ZM53.7025 39.8961L46.552 57.0573L43.5556 39.8961H53.7025ZM54.4516 39.8961H62.828L47.4373 56.6487L54.4516 39.8961ZM54.2473 29.681L51.319 33.9713L44.3047 29.681H54.2473ZM50.7742 34.448L43.147 39.147L35.5197 34.448L43.147 29.7491L50.7742 34.448ZM31.8423 39.2151H24.3513L34.0896 35.129L31.8423 39.2151ZM34.9749 34.9247L41.9211 39.2151H32.6595L34.9749 34.9247ZM31.8423 39.8961L38.8566 56.6487L23.466 39.8961H31.8423ZM32.5914 39.8961H42.7384L39.7419 57.0573L32.5914 39.8961ZM41.9211 29.681L34.9749 33.9713L32.0466 29.681H41.9211ZM29.6631 29.681H31.2975L34.4301 34.3118L23.0573 39.0789L22.3763 34.5842L29.6631 29.681ZM21.6272 34.9928L22.3082 39.2151H15.362L21.6272 34.9928ZM15.0896 39.8961H22.5125L32.5233 56.3082L15.0896 39.8961ZM34.362 58.0788L24.7599 42.3477L39.6057 58.4875L42.3297 65.5699L34.362 58.0788ZM43.147 65.8423L40.2186 58.2151L43.147 41.5305L46.0753 58.2151L43.147 65.8423ZM44.0323 65.4337L46.6882 58.4875L61.1936 42.6882L51.3871 58.0788L44.0323 65.4337ZM52.6129 57.3978L63.7814 39.8961H71.2043L52.6129 57.3978Z" fill="#252628"/>
<path fill-rule="evenodd" clip-rule="evenodd" d="M29.3991 28.7998H56.9649L72.0947 38.9527V38.7586L72.3288 39.1098L72.4149 39.1676L72.4947 39.0925V39.2211L72.6309 39.3125V39.4867L72.4947 39.4873C72.5366 39.4873 72.5837 39.4867 72.6309 39.4867V39.5554C72.6309 39.5624 72.6309 39.5747 72.6304 39.5861C72.6301 39.5939 72.6289 39.6236 72.6185 39.6548C72.613 39.6713 72.5985 39.7088 72.5621 39.7423C72.5177 39.7831 72.4589 39.8012 72.4016 39.7948C72.3803 39.7925 72.3619 39.787 72.3468 39.7809L43.4913 66.939L43.1477 67.2826L42.8042 66.9391L13.8008 39.6418V39.1758L29.3991 28.7998ZM72.0947 39.4689V39.4346L56.8431 29.1998H29.52L14.2008 39.3901V39.4689L43.0849 66.654L43.1477 66.717L43.2149 66.6498L72.0947 39.4689ZM29.6028 29.4808H31.4044L34.7333 34.4017L22.8988 39.3623L22.1604 34.4888L29.6028 29.4808ZM29.7249 29.8808L22.5938 34.6793L23.2174 38.795L34.1285 34.2215L31.1921 29.8808H29.7249ZM31.6687 29.4808H42.6263L34.9182 34.2417L31.6687 29.4808ZM32.426 29.8808L35.0332 33.7006L41.2175 29.8808H32.426ZM43.5952 29.4808H54.6267L51.3777 34.241L43.5952 29.4808ZM45.0157 29.8808L51.2618 33.7012L53.8694 29.8808H45.0157ZM54.9565 29.4808H56.7598L64.3395 34.4876L63.601 39.3623L51.7711 34.4037L54.9565 29.4808ZM55.1741 29.8808L52.3667 34.2196L63.2823 38.795L63.9058 34.6805L56.6396 29.8808H55.1741ZM43.1477 29.514L51.1563 34.4478L43.1477 39.3817L35.1392 34.4478L43.1477 29.514ZM35.9018 34.4478L43.1477 38.9119L50.3937 34.4478L43.1477 29.9838L35.9018 34.4478ZM34.9004 34.643L42.6263 39.4149H32.3251L34.9004 34.643ZM51.3951 34.643L53.9704 39.4149H43.6691L51.3951 34.643ZM21.7757 34.652L22.5439 39.4149H14.7081L21.7757 34.652ZM64.5198 34.652L71.5873 39.4149H63.7516L64.5198 34.652ZM34.5422 34.7224L31.9613 39.4149H24.352L24.2747 39.0304L34.5422 34.7224ZM51.7533 34.7224L62.0208 39.0304L61.9434 39.4149H54.3341L51.7533 34.7224ZM35.051 35.2061L32.9955 39.0149H41.2175L35.051 35.2061ZM45.0779 39.0149H53.3L51.2445 35.2061L45.0779 39.0149ZM16.0174 39.0149H22.0742L21.4804 35.3333L16.0174 39.0149ZM64.8151 35.3333L64.2213 39.0149H70.278L64.8151 35.3333ZM25.3456 39.0149H31.7248L33.6386 35.5353L25.3456 39.0149ZM52.6569 35.5353L54.5706 39.0149H60.9498L52.6569 35.5353ZM14.5862 39.6959H22.6256L32.6948 56.2039L32.387 56.4537L14.5862 39.6959ZM15.5946 40.0959L31.5804 55.145L22.401 40.0959H15.5946ZM23.0114 39.6959H31.9762L39.0419 56.5713L38.7101 56.7839L23.0114 39.6959ZM23.9221 40.0959L38.2316 55.6717L31.71 40.0959H23.9221ZM32.2922 39.6959H42.9771L39.8218 57.767L32.2922 39.6959ZM32.8922 40.0959L39.6636 56.3473L42.5012 40.0959H32.8922ZM43.3184 39.6959H54.0033L46.4737 57.767L43.3184 39.6959ZM43.7943 40.0959L46.6318 56.3473L53.4033 40.0959H43.7943ZM54.3193 39.6959H63.2841L47.5853 56.7839L47.2536 56.5713L54.3193 39.6959ZM54.5855 40.0959L48.0639 55.6717L62.3734 40.0959H54.5855ZM63.6725 39.6959H71.7093L52.7508 57.5433L52.4451 57.2901L63.6725 39.6959ZM63.8918 40.0959L53.6469 56.1503L70.7009 40.0959H63.8918ZM40.426 58.1949L43.1477 65.2841L45.8695 58.1949L43.1477 42.6872L40.426 58.1949ZM42.9507 41.4957H43.3447L46.2826 58.2348L43.1477 66.4001L40.0129 58.2348L42.9507 41.4957ZM24.5899 42.4517L24.9078 42.2121L39.7795 58.3799L42.5172 65.4979L42.1935 65.7154L34.2061 58.2059L24.5899 42.4517ZM25.9932 43.9829L39.4335 58.5946L41.8295 64.8241L34.5194 57.9514L25.9932 43.9829ZM46.8621 58.5944L44.5548 64.6289L51.231 57.9527L59.8035 44.4986L46.8621 58.5944ZM61.047 42.5527L61.363 42.7954L51.5448 58.2046L44.1745 65.5749L43.8462 65.3621L46.5158 58.3801L61.047 42.5527Z" fill="#252628"/>
</svg>
