<svg width="85" height="85" viewBox="0 0 85 85" fill="none" xmlns="http://www.w3.org/2000/svg">
<circle cx="42.5" cy="42.5" r="42" stroke="#252628"/>
<path d="M43.0721 39.0522H43.0058C42.4345 39.0353 41.8895 38.8083 41.4752 38.4145C41.333 38.2888 41.2062 38.1467 41.0977 37.991C40.7404 38.2335 40.3202 38.3665 39.8885 38.3737C39.4515 38.3607 39.0273 38.2232 38.6657 37.9773C38.3042 37.7315 38.0204 37.3875 37.8477 36.9859C37.5288 37.1339 37.1782 37.2005 36.8272 37.1798C35.6028 37.0778 34.6079 35.8533 34.5568 34.389V27.8533C34.5491 26.918 34.7697 25.9951 35.1997 25.1645C35.6053 24.4089 36.1507 23.7371 36.8068 23.1849C36.8106 23.1118 36.8106 23.0386 36.8068 22.9655V21.5165C36.8068 21.3542 36.8713 21.1984 36.9862 21.0836C37.101 20.9688 37.2567 20.9043 37.4191 20.9043C37.5815 20.9043 37.7372 20.9688 37.852 21.0836C37.9668 21.1984 38.0313 21.3542 38.0313 21.5165V22.991C38.0586 23.3701 37.9379 23.745 37.6946 24.0369C37.1077 24.5076 36.6203 25.0903 36.2609 25.7512C35.9211 26.3995 35.7459 27.1214 35.7507 27.8533V34.3482C35.7813 35.2665 36.3681 35.8788 36.8936 35.94C37.2269 35.9272 37.5419 35.7843 37.7711 35.542C37.8551 35.4659 37.9586 35.4146 38.07 35.3938C38.1815 35.373 38.2965 35.3836 38.4023 35.4243C38.5081 35.465 38.6005 35.5343 38.6692 35.6245C38.7379 35.7146 38.7803 35.8221 38.7915 35.9349C38.7895 36.2234 38.8916 36.5029 39.079 36.7222C39.2665 36.9415 39.5267 37.0858 39.8119 37.1288C39.9874 37.1191 40.1581 37.0678 40.3098 36.979C40.4615 36.8903 40.5899 36.7668 40.6844 36.6186L40.715 36.4859C40.8119 36.088 40.9089 35.7104 41.3885 35.7104C41.4794 35.6926 41.5732 35.6956 41.6628 35.7192C41.7523 35.7429 41.8354 35.7866 41.9056 35.847C41.9759 35.9074 42.0315 35.983 42.0683 36.0681C42.1051 36.1531 42.1221 36.2454 42.1181 36.338C42.1273 36.4926 42.1273 36.6476 42.1181 36.8022C42.1121 36.9144 42.1121 37.0268 42.1181 37.139C42.1592 37.291 42.2466 37.4265 42.3681 37.5267C42.5642 37.7091 42.8197 37.8143 43.0874 37.8227C43.2212 37.8322 43.3555 37.814 43.4819 37.7692C43.6084 37.7244 43.7242 37.654 43.8221 37.5624C43.9128 37.4544 43.9727 37.324 43.9956 37.1849V36.3176C43.9959 36.1706 44.0491 36.0287 44.1454 35.9177C44.2417 35.8067 44.3748 35.7341 44.5202 35.713C44.6656 35.692 44.8138 35.724 44.9376 35.8031C45.0614 35.8822 45.1526 36.0033 45.1946 36.1441C45.2563 36.3609 45.3835 36.5533 45.5589 36.6949C45.7343 36.8365 45.9492 36.9203 46.1742 36.9349C46.4144 36.9378 46.6486 36.8599 46.8392 36.7137C47.0298 36.5675 47.1657 36.3615 47.2252 36.1288V29.6543C47.2252 29.4919 47.2897 29.3362 47.4045 29.2214C47.5193 29.1066 47.6751 29.042 47.8374 29.042C47.9998 29.042 48.1555 29.1066 48.2704 29.2214C48.3852 29.3362 48.4497 29.4919 48.4497 29.6543V36.2104C48.4549 36.2562 48.4549 36.3024 48.4497 36.3482C48.3406 36.874 48.0496 37.3444 47.6277 37.6767C47.2058 38.0089 46.6803 38.1817 46.1436 38.1645C45.7694 38.1509 45.4046 38.0439 45.0823 37.8533C45.0011 38.0395 44.8909 38.2117 44.7558 38.3635C44.5475 38.6007 44.2871 38.7863 43.995 38.9058C43.7028 39.0253 43.3869 39.0755 43.0721 39.0522Z" fill="#252628"/>
<path d="M49.8164 35.3073C49.32 35.2768 48.8441 35.0992 48.449 34.7971C48.0699 34.4983 47.7597 34.1211 47.5396 33.6914C47.3194 33.2618 47.1946 32.7897 47.1735 32.3074C47.1628 32.2247 47.1691 32.1407 47.1921 32.0605C47.215 31.9804 47.254 31.9058 47.3068 31.8412C47.3596 31.7767 47.425 31.7237 47.499 31.6853C47.573 31.647 47.6541 31.6241 47.7373 31.6182C47.8204 31.6123 47.9039 31.6234 47.9826 31.6509C48.0613 31.6784 48.1336 31.7217 48.1949 31.7781C48.2563 31.8345 48.3055 31.9028 48.3396 31.9789C48.3736 32.055 48.3918 32.1373 48.3929 32.2206C48.3995 32.5217 48.4693 32.818 48.5976 33.0904C48.7259 33.3629 48.9099 33.6054 49.1378 33.8022C49.3214 33.9395 49.5317 34.0368 49.7551 34.088V29.889C49.6888 27.4706 49.2857 27.0625 48.3113 26.0778C48.1225 25.889 47.9133 25.6798 47.6939 25.44C47.4745 25.2002 46.25 24.1186 45.1174 23.1237C45.0519 23.0664 44.9994 22.9958 44.9633 22.9166C44.9272 22.8375 44.9084 22.7515 44.9082 22.6645V21.5165C44.9082 21.3542 44.9727 21.1984 45.0875 21.0836C45.2023 20.9688 45.3581 20.9043 45.5204 20.9043C45.6828 20.9043 45.8386 20.9688 45.9534 21.0836C46.0682 21.1984 46.1327 21.3542 46.1327 21.5165V22.3788C46.7806 22.9502 48.3572 24.3533 48.5919 24.6033C48.8266 24.8533 49 25.0318 49.1786 25.2104C50.3419 26.3839 50.9031 27.0727 50.9796 29.8686V34.4043C50.9788 34.5264 50.9415 34.6454 50.8725 34.7461C50.7577 34.9208 50.6008 35.0638 50.4162 35.1619C50.2317 35.26 50.0254 35.31 49.8164 35.3073Z" fill="#252628"/>
<path d="M38.413 36.6941C38.2506 36.6941 38.0949 36.6296 37.9801 36.5148C37.8653 36.4 37.8008 36.2442 37.8008 36.0819V35.1074C37.8008 35.027 37.8166 34.9473 37.8474 34.8731C37.8782 34.7988 37.9233 34.7313 37.9801 34.6744C38.037 34.6176 38.1044 34.5725 38.1787 34.5417C38.253 34.511 38.3326 34.4951 38.413 34.4951C38.4934 34.4951 38.573 34.511 38.6473 34.5417C38.7216 34.5725 38.7891 34.6176 38.8459 34.6744C38.9028 34.7313 38.9479 34.7988 38.9787 34.8731C39.0094 34.9473 39.0253 35.027 39.0253 35.1074V36.0819C39.0253 36.2442 38.9608 36.4 38.8459 36.5148C38.7311 36.6296 38.5754 36.6941 38.413 36.6941Z" fill="#252628"/>
<path d="M41.4853 37.1842C41.4049 37.1842 41.3253 37.1684 41.251 37.1376C41.1767 37.1068 41.1092 37.0617 41.0524 37.0049C40.9955 36.948 40.9504 36.8805 40.9197 36.8062C40.8889 36.732 40.873 36.6523 40.873 36.5719V35.9189C40.873 35.7565 40.9376 35.6008 41.0524 35.486C41.1672 35.3711 41.3229 35.3066 41.4853 35.3066C41.6477 35.3066 41.8034 35.3711 41.9182 35.486C42.033 35.6008 42.0975 35.7565 42.0975 35.9189V36.5719C42.0975 36.6523 42.0817 36.732 42.0509 36.8062C42.0202 36.8805 41.9751 36.948 41.9182 37.0049C41.8614 37.0617 41.7939 37.1068 41.7196 37.1376C41.6453 37.1684 41.5657 37.1842 41.4853 37.1842Z" fill="#252628"/>
<path d="M44.5244 36.8578C44.362 36.8578 44.2062 36.7933 44.0914 36.6785C43.9766 36.5637 43.9121 36.4079 43.9121 36.2456V35.5976C43.9121 35.4352 43.9766 35.2795 44.0914 35.1647C44.2062 35.0499 44.362 34.9854 44.5244 34.9854C44.6867 34.9854 44.8425 35.0499 44.9573 35.1647C45.0721 35.2795 45.1366 35.4352 45.1366 35.5976V36.2507C45.1353 36.4121 45.0702 36.5666 44.9555 36.6803C44.8408 36.794 44.6859 36.8578 44.5244 36.8578Z" fill="#252628"/>
<path d="M34.6073 39.8821H33.3828V34.428C33.3828 34.1799 33.481 33.9419 33.656 33.766C33.8309 33.5901 34.0684 33.4906 34.3165 33.4893H35.4491V34.7137H34.6073V39.8821Z" fill="#252628"/>
<path d="M51.7343 39.8838H50.5098V34.4298C50.5095 34.4772 50.521 34.5239 50.5432 34.5658C50.5655 34.6077 50.5978 34.6433 50.6373 34.6696V33.4961H50.7904C51.0385 33.4974 51.2759 33.5969 51.4509 33.7729C51.6259 33.9488 51.7241 34.1868 51.7241 34.4349V39.894L51.7343 39.8838Z" fill="#252628"/>
<path d="M56.6166 53.3866H45.9023V52.1621H56.6166C59.3207 52.1621 60.5299 49.856 60.5299 47.5703H61.7544C61.7544 50.9938 59.6421 53.3866 56.6166 53.3866Z" fill="#252628"/>
<path d="M45.306 57.5661H40.4591C40.211 57.5648 39.9735 57.4653 39.7985 57.2893C39.6236 57.1134 39.5254 56.8754 39.5254 56.6273V50.4437C39.5254 50.1956 39.6236 49.9576 39.7985 49.7816C39.9735 49.6057 40.211 49.5062 40.4591 49.5049H45.306C45.5541 49.5062 45.7916 49.6057 45.9665 49.7816C46.1415 49.9576 46.2397 50.1956 46.2397 50.4437V56.6273C46.2397 56.8754 46.1415 57.1134 45.9665 57.2893C45.7916 57.4653 45.5541 57.5648 45.306 57.5661ZM40.7499 56.3416H45.0203V50.7294H40.7499V56.3416Z" fill="#252628"/>
<path d="M39.9741 53.3878H29.77C28.2354 53.3757 26.7681 52.7565 25.6887 51.6657C24.6093 50.5748 24.0057 49.101 24.0098 47.5664H25.2343C25.2342 48.7781 25.7131 49.9406 26.5665 50.8008C27.42 51.6609 28.5788 52.1488 29.7904 52.1582H39.9945V53.3827L39.9741 53.3878Z" fill="#252628"/>
<path d="M59.2041 67.0003H26.551C26.216 67.0003 25.8843 66.9343 25.5748 66.8061C25.2653 66.6779 24.9841 66.49 24.7472 66.2531C24.2688 65.7747 24 65.1258 24 64.4492V41.6584C24 40.9819 24.2688 40.333 24.7472 39.8546C25.2256 39.3762 25.8744 39.1074 26.551 39.1074H59.2041C59.8806 39.1074 60.5295 39.3762 61.0079 39.8546C61.4863 40.333 61.7551 40.9819 61.7551 41.6584V64.4492C61.7551 65.1258 61.4863 65.7747 61.0079 66.2531C60.5295 66.7315 59.8806 67.0003 59.2041 67.0003ZM26.551 40.3217C26.1974 40.3244 25.8592 40.4671 25.6106 40.7186C25.362 40.9701 25.2231 41.3099 25.2245 41.6635V64.4492C25.2231 64.8029 25.362 65.1427 25.6106 65.3942C25.8592 65.6456 26.1974 65.7884 26.551 65.7911H59.2041C59.5577 65.7884 59.8959 65.6456 60.1445 65.3942C60.3931 65.1427 60.5319 64.8029 60.5306 64.4492V41.6584C60.5319 41.3048 60.3931 40.965 60.1445 40.7135C59.8959 40.462 59.5577 40.3193 59.2041 40.3166H26.551V40.3217Z" fill="#252628"/>
<path d="M47.1383 22.1275H35.8271C35.6647 22.1275 35.509 22.063 35.3942 21.9482C35.2793 21.8334 35.2148 21.6777 35.2148 21.5153V17.6122C35.2148 17.4499 35.2793 17.2941 35.3942 17.1793C35.509 17.0645 35.6647 17 35.8271 17C35.9895 17 36.1452 17.0645 36.26 17.1793C36.3748 17.2941 36.4393 17.4499 36.4393 17.6122V20.9031H46.5261V17.6122C46.5261 17.5318 46.5419 17.4522 46.5727 17.3779C46.6034 17.3037 46.6485 17.2362 46.7054 17.1793C46.7622 17.1225 46.8297 17.0774 46.904 17.0466C46.9783 17.0158 47.0579 17 47.1383 17C47.2187 17 47.2983 17.0158 47.3726 17.0466C47.4469 17.0774 47.5144 17.1225 47.5712 17.1793C47.6281 17.2362 47.6732 17.3037 47.7039 17.3779C47.7347 17.4522 47.7506 17.5318 47.7506 17.6122V21.5153C47.7506 21.6777 47.686 21.8334 47.5712 21.9482C47.4564 22.063 47.3007 22.1275 47.1383 22.1275Z" fill="#252628"/>
</svg>
