<svg width="85" height="85" viewBox="0 0 85 85" fill="none" xmlns="http://www.w3.org/2000/svg">
<circle cx="42.5" cy="42.5" r="42" stroke="#252628"/>
<path d="M20.0018 62.0305C20.0018 64.2192 21.7826 66 23.9715 66H61.3963C63.5875 66 65.3704 64.2172 65.3704 62.0257V34.8375H65.3113C65.0799 33.7825 64.1406 32.9894 63.0171 32.9894H59.0188V28.0701C59.0188 26.8506 58.0268 25.8583 56.8072 25.8583H56.3925V25.6139C56.3925 24.792 55.724 24.1232 54.9021 24.1232H48.7164V23.4435C48.7164 22.0961 47.6204 21 46.2732 21H26.3442C24.9968 21 23.9007 22.0961 23.9007 23.4435V25.8639C21.7379 25.9376 20 27.7154 20 29.8959C20 29.9082 20.0017 29.92 20.0018 29.9323V62.0305ZM56.3925 26.8035H56.8072C57.5054 26.8035 58.0736 27.3716 58.0736 28.0701V32.9894H56.3925V26.8035ZM54.9021 25.0684C55.2028 25.0684 55.4474 25.313 55.4474 25.6139V32.9893H37.87V25.6139C37.87 25.313 38.1146 25.0684 38.4155 25.0684H54.9021ZM24.8459 23.4435C24.8459 22.6174 25.5181 21.9452 26.3442 21.9452H46.2732C47.0993 21.9452 47.7713 22.6174 47.7713 23.4435V24.1233H38.4155C37.5935 24.1233 36.9248 24.792 36.9248 25.614V32.9894H24.8459V23.4435ZM63.0171 33.9346C63.7924 33.9346 64.4233 34.5655 64.4233 35.3408V36.2175H63.0056V37.1626H64.4233V37.2766H64.4252V43.8845H57.2851C54.2168 43.8845 51.7204 46.3809 51.7204 49.4495C51.7204 52.5178 54.2168 55.0142 57.2851 55.0142H64.4252V62.0257C64.4252 62.091 64.4195 62.155 64.4154 62.2193H63.8171V63.1645H64.2011C63.75 64.2716 62.6636 65.0548 61.3963 65.0548H23.9715C22.3039 65.0548 20.947 63.6982 20.947 62.0305V32.4895C21.6606 33.3387 22.7169 33.8873 23.9007 33.9276V33.9348C32.4211 33.9348 53.9905 33.9346 63.0171 33.9346ZM62.5627 46.2475V44.8297H64.4233V54.069H57.2851C54.7378 54.069 52.6656 51.9968 52.6656 49.4495C52.6656 46.9022 54.7378 44.8297 57.2851 44.8297H61.6176V46.2475H62.5627ZM23.9007 26.8091V32.9824C22.2714 32.91 20.9663 31.5747 20.947 29.9323V29.8942H20.9452C20.9461 28.2356 22.2597 26.882 23.9007 26.8091Z" fill="#252628" stroke="#252628" stroke-width="0.2"/>
<path d="M26.7363 28.2399H27.6815V24.7811H29.5829V23.8359H26.7363V28.2399Z" fill="#252628" stroke="#252628" stroke-width="0.2"/>
<path d="M32.4132 23.8359H30.8066V24.7811H32.4132V23.8359Z" fill="#252628" stroke="#252628" stroke-width="0.2"/>
<path d="M44.4719 26.958H43.1699V27.9032H44.4719V26.958Z" fill="#252628" stroke="#252628" stroke-width="0.2"/>
<path d="M40.7049 27.9032H42.3514V26.958H39.7598V30.6257H40.7049V27.9032Z" fill="#252628" stroke="#252628" stroke-width="0.2"/>
<path d="M57.5114 47.0869C56.2085 47.0869 55.1484 48.147 55.1484 49.4499C55.1484 50.7527 56.2085 51.8128 57.5114 51.8128C58.8142 51.8128 59.8743 50.7527 59.8743 49.4499C59.8743 48.147 58.8142 47.0869 57.5114 47.0869ZM57.5114 50.8676C56.7296 50.8676 56.0936 50.2317 56.0936 49.4499C56.0936 48.6681 56.7296 48.0321 57.5114 48.0321C58.2932 48.0321 58.9291 48.6681 58.9291 49.4499C58.9291 50.2317 58.2932 50.8676 57.5114 50.8676Z" fill="#252628" stroke="#252628" stroke-width="0.2"/>
<path d="M62.5624 48.1377H61.6172V50.0281H62.5624V48.1377Z" fill="#252628" stroke="#252628" stroke-width="0.2"/>
<path d="M62.5624 51.9189H61.6172V53.8093H62.5624V51.9189Z" fill="#252628" stroke="#252628" stroke-width="0.2"/>
<path d="M50.5857 62.2188H48.6953V63.1639H50.5857V62.2188Z" fill="#252628" stroke="#252628" stroke-width="0.2"/>
<path d="M26.03 62.2168L25.9922 63.161C26.0388 63.1629 26.0857 63.164 26.1332 63.164H27.9014V62.2188H26.1332L26.03 62.2168Z" fill="#252628" stroke="#252628" stroke-width="0.2"/>
<path d="M25.7026 37.163H27.0885V36.2178H25.7026C25.5004 36.2178 25.299 36.239 25.1035 36.2805L25.3006 37.205C25.4312 37.177 25.5667 37.163 25.7026 37.163Z" fill="#252628" stroke="#252628" stroke-width="0.2"/>
<path d="M43.0232 62.2188H41.1328V63.1639H43.0232V62.2188Z" fill="#252628" stroke="#252628" stroke-width="0.2"/>
<path d="M49.7732 36.2178H47.8828V37.163H49.7732V36.2178Z" fill="#252628" stroke="#252628" stroke-width="0.2"/>
<path d="M31.6814 62.2188H29.791V63.1639H31.6814V62.2188Z" fill="#252628" stroke="#252628" stroke-width="0.2"/>
<path d="M61.115 36.2178H59.2246V37.163H61.115V36.2178Z" fill="#252628" stroke="#252628" stroke-width="0.2"/>
<path d="M45.9919 36.2178H44.1016V37.163H45.9919V36.2178Z" fill="#252628" stroke="#252628" stroke-width="0.2"/>
<path d="M53.5544 36.2178H51.6641V37.163H53.5544V36.2178Z" fill="#252628" stroke="#252628" stroke-width="0.2"/>
<path d="M57.3337 36.2178H55.4434V37.163H57.3337V36.2178Z" fill="#252628" stroke="#252628" stroke-width="0.2"/>
<path d="M42.2107 36.2178H40.3203V37.163H42.2107V36.2178Z" fill="#252628" stroke="#252628" stroke-width="0.2"/>
<path d="M35.4607 62.2188H33.5703V63.1639H35.4607V62.2188Z" fill="#252628" stroke="#252628" stroke-width="0.2"/>
<path d="M39.2419 62.2188H37.3516V63.1639H39.2419V62.2188Z" fill="#252628" stroke="#252628" stroke-width="0.2"/>
<path d="M22.8379 39.0817V39.6066H23.7831V39.0817C23.7831 38.7124 23.8881 38.3541 24.0865 38.0451L23.2913 37.5342C22.9948 37.9958 22.8379 38.5309 22.8379 39.0817Z" fill="#252628" stroke="#252628" stroke-width="0.2"/>
<path d="M23.7831 45.2783H22.8379V47.1687H23.7831V45.2783Z" fill="#252628" stroke="#252628" stroke-width="0.2"/>
<path d="M58.1462 62.2188H56.2559V63.1639H58.1462V62.2188Z" fill="#252628" stroke="#252628" stroke-width="0.2"/>
<path d="M23.7831 52.8398H22.8379V54.7302H23.7831V52.8398Z" fill="#252628" stroke="#252628" stroke-width="0.2"/>
<path d="M23.7831 49.0586H22.8379V50.9489H23.7831V49.0586Z" fill="#252628" stroke="#252628" stroke-width="0.2"/>
<path d="M34.6501 36.2178H32.7598V37.163H34.6501V36.2178Z" fill="#252628" stroke="#252628" stroke-width="0.2"/>
<path d="M46.8044 62.2188H44.9141V63.1639H46.8044V62.2188Z" fill="#252628" stroke="#252628" stroke-width="0.2"/>
<path d="M38.4314 36.2178H36.541V37.163H38.4314V36.2178Z" fill="#252628" stroke="#252628" stroke-width="0.2"/>
<path d="M54.365 62.2188H52.4746V63.1639H54.365V62.2188Z" fill="#252628" stroke="#252628" stroke-width="0.2"/>
<path d="M30.8708 36.2178H28.9805V37.163H30.8708V36.2178Z" fill="#252628" stroke="#252628" stroke-width="0.2"/>
<path d="M22.8945 60.4844C23.0316 61.2088 23.416 61.875 23.9763 62.3602L24.5952 61.6458C24.1951 61.2995 23.9209 60.8246 23.8231 60.3086L22.8945 60.4844Z" fill="#252628" stroke="#252628" stroke-width="0.2"/>
<path d="M61.9255 62.2188H60.0352V63.1639H61.9255V62.2188Z" fill="#252628" stroke="#252628" stroke-width="0.2"/>
<path d="M23.7831 56.6211H22.8379V58.5114H23.7831V56.6211Z" fill="#252628" stroke="#252628" stroke-width="0.2"/>
<path d="M23.7831 41.4971H22.8379V43.3874H23.7831V41.4971Z" fill="#252628" stroke="#252628" stroke-width="0.2"/>
<path d="M34.455 53.6366H30.9095C30.7588 53.6366 30.6367 53.5144 30.6367 53.3638V46.2727C30.6367 46.1221 30.7588 46 30.9095 46H34.455C36.5604 46 38.2733 47.7129 38.2733 49.8183C38.2733 51.9237 36.5604 53.6366 34.455 53.6366ZM31.1822 53.0911H34.455C36.2596 53.0911 37.7278 51.6229 37.7278 49.8183C37.7278 48.0137 36.2596 46.5455 34.455 46.5455H31.1822V53.0911Z" fill="#252628" stroke="#252628" stroke-width="0.5"/>
<path d="M30.9095 58C30.7588 58 30.6367 57.8779 30.6367 57.7273V53.3636C30.6367 53.213 30.7588 53.0908 30.9095 53.0908C31.0601 53.0908 31.1822 53.213 31.1822 53.3636V57.7273C31.1822 57.8779 31.0601 58 30.9095 58Z" fill="#252628" stroke="#252628" stroke-width="0.5"/>
<path d="M30.9091 53.6363H29.2727C29.1221 53.6363 29 53.5142 29 53.3636C29 53.213 29.1221 53.0908 29.2727 53.0908H30.9091C31.0598 53.0908 31.1819 53.213 31.1819 53.3636C31.1819 53.5142 31.0598 53.6363 30.9091 53.6363Z" fill="#252628" stroke="#252628" stroke-width="0.5"/>
<path d="M35.5456 55.8179H29.2727C29.1221 55.8179 29 55.6958 29 55.5452C29 55.3946 29.1221 55.2725 29.2727 55.2725H35.5456C35.6962 55.2725 35.8184 55.3946 35.8184 55.5452C35.8184 55.6958 35.6962 55.8179 35.5456 55.8179Z" fill="#252628" stroke="#252628" stroke-width="0.5"/>
</svg>
