<svg width="85" height="85" viewBox="0 0 85 85" fill="none" xmlns="http://www.w3.org/2000/svg">
<circle cx="42.5" cy="42.5" r="42" stroke="#252628"/>
<path d="M42.9623 66.9993C42.8505 66.9993 42.7598 66.9086 42.7598 66.7968V55.6576C42.7598 55.5458 42.8505 55.4551 42.9623 55.4551C43.0741 55.4551 43.1648 55.5458 43.1648 55.6576V66.7968C43.1648 66.9087 43.0741 66.9993 42.9623 66.9993Z" fill="#252628"/>
<path d="M50.5563 52.8221H35.3666C35.2548 52.8221 35.1641 52.7313 35.1641 52.6195V37.4298C35.1641 37.318 35.2548 37.2273 35.3666 37.2273C35.4784 37.2273 35.5691 37.318 35.5691 37.4298V52.417H50.3538V46.5436C50.3538 46.4318 50.4445 46.3411 50.5563 46.3411C50.6681 46.3411 50.7589 46.4318 50.7589 46.5436V52.6195C50.7589 52.7314 50.6681 52.8221 50.5563 52.8221ZM50.5563 43.7082C50.4445 43.7082 50.3538 43.6175 50.3538 43.5057V31.5564H35.5691V34.3918C35.5691 34.5036 35.4784 34.5944 35.3666 34.5944C35.2548 34.5944 35.1641 34.5036 35.1641 34.3918V31.3539C35.1641 31.2421 35.2548 31.1514 35.3666 31.1514H50.5563C50.6681 31.1514 50.7589 31.2421 50.7589 31.3539V43.5057C50.7589 43.6176 50.6681 43.7082 50.5563 43.7082Z" fill="#252628"/>
<path d="M61.6952 35.607H50.556C50.4442 35.607 50.3535 35.5163 50.3535 35.4045V31.3539C50.3535 31.2421 50.4442 31.1514 50.556 31.1514H63.7205C63.7907 31.1514 63.8559 31.1877 63.8927 31.2475C63.9296 31.3071 63.9329 31.3816 63.9017 31.4444L62.9959 33.256C62.946 33.3558 62.8245 33.3968 62.7241 33.3466C62.6241 33.2966 62.5835 33.1749 62.6335 33.0748L63.3927 31.5564H50.7586V35.202H61.6952C61.807 35.202 61.8977 35.2927 61.8977 35.4045C61.8977 35.5163 61.807 35.607 61.6952 35.607Z" fill="#252628"/>
<path d="M58.6572 39.6578H50.556C50.4442 39.6578 50.3535 39.5671 50.3535 39.4553V35.4047C50.3535 35.2929 50.4442 35.2021 50.556 35.2021H59.6699C59.7323 35.2021 59.7911 35.2309 59.8295 35.2801C59.8679 35.3293 59.8815 35.3933 59.8663 35.4539L58.8537 39.5045C58.8312 39.5946 58.7502 39.6578 58.6572 39.6578ZM50.7586 39.2527H58.4991L59.4104 35.6072H50.7586V39.2527Z" fill="#252628"/>
<path d="M55.6193 43.7086H50.556C50.4442 43.7086 50.3535 43.6179 50.3535 43.5061V39.4555C50.3535 39.3437 50.4442 39.2529 50.556 39.2529H56.6319C56.6943 39.2529 56.7532 39.2817 56.7915 39.3309C56.8299 39.3801 56.8436 39.4441 56.8284 39.5047L55.8157 43.5553C55.7933 43.6454 55.7123 43.7086 55.6193 43.7086ZM50.7586 43.3035H55.4611L56.3725 39.658H50.7586V43.3035Z" fill="#252628"/>
<path d="M53.2565 47.7594H50.556C50.4442 47.7594 50.3535 47.6686 50.3535 47.5568V43.5062C50.3535 43.3944 50.4442 43.3037 50.556 43.3037H54.6066C54.6718 43.3037 54.7328 43.3351 54.7709 43.3879C54.809 43.4406 54.8194 43.5085 54.7987 43.5703L53.4486 47.6209C53.421 47.7036 53.3437 47.7594 53.2565 47.7594ZM50.7586 47.3543H53.1106L54.3257 43.7088H50.7586V47.3543Z" fill="#252628"/>
<path d="M35.3671 39.6579H27.2659C27.173 39.6579 27.0919 39.5947 27.0695 39.5045L26.0568 35.4539C26.0417 35.3933 26.0553 35.3293 26.0937 35.2801C26.1321 35.231 26.191 35.2021 26.2534 35.2021H35.3672C35.479 35.2021 35.5697 35.2929 35.5697 35.4047V39.4553C35.5696 39.5673 35.4789 39.6579 35.3671 39.6579ZM27.4241 39.2528H35.1646V35.6073H26.5127L27.4241 39.2528Z" fill="#252628"/>
<path d="M35.3663 43.7087H30.303C30.2101 43.7087 30.1291 43.6455 30.1066 43.5553L29.0939 39.5047C29.0788 39.4441 29.0924 39.3801 29.1308 39.3309C29.1692 39.2818 29.228 39.2529 29.2904 39.2529H35.3663C35.4781 39.2529 35.5688 39.3437 35.5688 39.4555V43.5061C35.5688 43.6181 35.4781 43.7087 35.3663 43.7087ZM30.4612 43.3036H35.1637V39.6581H29.5498L30.4612 43.3036Z" fill="#252628"/>
<path d="M35.3664 47.7594H32.6659C32.5787 47.7594 32.5014 47.7036 32.4738 47.6209L31.1237 43.5703C31.1031 43.5086 31.1134 43.4407 31.1515 43.3879C31.1896 43.335 31.2506 43.3037 31.3159 43.3037H35.3665C35.4783 43.3037 35.569 43.3944 35.569 43.5062V47.5568C35.5689 47.6687 35.4782 47.7594 35.3664 47.7594ZM32.812 47.3543H35.1638V43.7088H31.5968L32.812 47.3543Z" fill="#252628"/>
<path d="M35.367 35.6079H24.2278C24.1512 35.6079 24.081 35.5646 24.0467 35.496L22.0214 31.4454C21.99 31.3826 21.9933 31.3081 22.0303 31.2484C22.0672 31.1887 22.1324 31.1523 22.2025 31.1523H35.367C35.4788 31.1523 35.5695 31.2431 35.5695 31.3549V32.9021C35.5695 33.0139 35.4788 33.1046 35.367 33.1046C35.2552 33.1046 35.1645 33.0139 35.1645 32.9021V31.5574H22.5302L24.353 35.2029H35.367C35.4788 35.2029 35.5695 35.2937 35.5695 35.4055C35.5695 35.5173 35.4788 35.6079 35.367 35.6079Z" fill="#252628"/>
<path d="M48.5311 66.9991H37.392C37.2802 66.9991 37.1895 66.9084 37.1895 66.7966V52.6195C37.1895 52.5077 37.2802 52.417 37.392 52.417H42.4552C42.567 52.417 42.6578 52.5077 42.6578 52.6195C42.6578 52.7313 42.567 52.8221 42.4552 52.8221H37.5945V66.5941H48.3286V52.8221H45.4932C45.3814 52.8221 45.2907 52.7313 45.2907 52.6195C45.2907 52.5077 45.3814 52.417 45.4932 52.417H48.5311C48.6429 52.417 48.7337 52.5077 48.7337 52.6195V66.7966C48.7337 66.9085 48.6429 66.9991 48.5311 66.9991Z" fill="#252628"/>
<path d="M58.6589 66.9998H56.6336C56.5218 66.9998 56.4311 66.9091 56.4311 66.7973C56.4311 66.6855 56.5218 66.5947 56.6336 66.5947H58.6589C58.7707 66.5947 58.8615 66.6855 58.8615 66.7973C58.8615 66.9091 58.7707 66.9998 58.6589 66.9998ZM53.5957 66.9998H23.2162C23.1044 66.9998 23.0137 66.9091 23.0137 66.7973C23.0137 66.6855 23.1044 66.5947 23.2162 66.5947H53.5957C53.7075 66.5947 53.7982 66.6855 53.7982 66.7973C53.7982 66.9091 53.7075 66.9998 53.5957 66.9998Z" fill="#252628"/>
<path d="M61.6967 67.0002C61.643 67.0002 61.5914 66.9778 61.5529 66.9403C61.5154 66.903 61.4941 66.8502 61.4941 66.7977C61.4941 66.744 61.5154 66.6923 61.5529 66.6539C61.6288 66.5789 61.7645 66.5789 61.8395 66.6539C61.8779 66.6923 61.8992 66.744 61.8992 66.7977C61.8992 66.8503 61.8779 66.903 61.8395 66.9403C61.802 66.9778 61.7503 67.0002 61.6967 67.0002Z" fill="#252628"/>
<path d="M64.7338 67.0002C64.681 67.0002 64.6285 66.9778 64.591 66.9403C64.5525 66.903 64.5312 66.8502 64.5312 66.7977C64.5312 66.744 64.5525 66.6912 64.59 66.6539C64.6659 66.5789 64.8016 66.5789 64.8766 66.6539C64.915 66.6923 64.9363 66.744 64.9363 66.7977C64.9363 66.8503 64.915 66.903 64.8776 66.9403C64.8391 66.9778 64.7864 67.0002 64.7338 67.0002Z" fill="#252628"/>
<path d="M42.9626 28.5189C40.3382 28.5189 38.2031 26.3838 38.2031 23.7595C38.2031 21.1351 40.3382 19 42.9626 19C45.587 19 47.722 21.1351 47.722 23.7595C47.722 26.3838 45.587 28.5189 42.9626 28.5189ZM42.9626 19.4051C40.5616 19.4051 38.6082 21.3585 38.6082 23.7595C38.6082 26.1605 40.5616 28.1138 42.9626 28.1138C45.3636 28.1138 47.317 26.1605 47.317 23.7595C47.317 21.3585 45.3636 19.4051 42.9626 19.4051Z" fill="#252628"/>
<path d="M47.5195 49.7849H38.4057C38.2939 49.7849 38.2031 49.6942 38.2031 49.5824C38.2031 49.4706 38.2939 49.3799 38.4057 49.3799H47.5195C47.6313 49.3799 47.722 49.4706 47.722 49.5824C47.722 49.6942 47.6313 49.7849 47.5195 49.7849Z" fill="#252628"/>
<path d="M43.4691 34.5945H42.4564C42.3446 34.5945 42.2539 34.5038 42.2539 34.392C42.2539 34.2802 42.3446 34.1895 42.4564 34.1895H43.4691C43.5809 34.1895 43.6716 34.2802 43.6716 34.392C43.6716 34.5038 43.5809 34.5945 43.4691 34.5945Z" fill="#252628"/>
<path d="M43.4691 37.6326H42.4564C42.3446 37.6326 42.2539 37.5419 42.2539 37.4301C42.2539 37.3183 42.3446 37.2275 42.4564 37.2275H43.4691C43.5809 37.2275 43.6716 37.3183 43.6716 37.4301C43.6716 37.5419 43.5809 37.6326 43.4691 37.6326Z" fill="#252628"/>
<path d="M43.4691 40.6707H42.4564C42.3446 40.6707 42.2539 40.58 42.2539 40.4682C42.2539 40.3564 42.3446 40.2656 42.4564 40.2656H43.4691C43.5809 40.2656 43.6716 40.3564 43.6716 40.4682C43.6716 40.58 43.5809 40.6707 43.4691 40.6707Z" fill="#252628"/>
</svg>
