<svg width="85" height="85" viewBox="0 0 85 85" fill="none" xmlns="http://www.w3.org/2000/svg">
<circle cx="42.5" cy="42.5" r="42" stroke="#252628"/>
<path d="M58.1694 56.546C58.1483 56.5181 58.0867 56.4722 57.985 56.409C57.883 56.3457 57.753 56.2771 57.5948 56.2034C57.4368 56.1296 57.2611 56.0595 57.0679 55.9927C56.8747 55.926 56.6795 55.8786 56.4829 55.8504V57.2838L56.8203 57.3681C57.1787 57.4666 57.5017 57.5736 57.7898 57.6896C58.0779 57.8056 58.3221 57.9496 58.5224 58.1217C58.7226 58.294 58.877 58.5031 58.9862 58.7488C59.0949 58.9949 59.1494 59.29 59.1494 59.6341C59.1494 60.0346 59.079 60.3755 58.9386 60.6565C58.7979 60.9376 58.6102 61.1677 58.3748 61.3468C58.1394 61.5261 57.8689 61.6613 57.5633 61.7526C57.2575 61.8438 56.936 61.8966 56.5988 61.9108V63.1333H55.8716V61.9001C55.3867 61.858 54.9073 61.7597 54.433 61.605C53.9586 61.4506 53.5318 61.2468 53.1523 60.9938L53.9111 59.4866C53.9392 59.5219 54.0147 59.5798 54.1378 59.6605C54.2606 59.7413 54.417 59.8257 54.6067 59.9135C54.7964 60.0014 55.0108 60.0858 55.2498 60.1664C55.4885 60.2473 55.7345 60.3052 55.9874 60.3403V58.9385L55.4816 58.791C55.1373 58.6856 54.8385 58.5714 54.5857 58.4484C54.3328 58.3255 54.1236 58.1833 53.9586 58.0215C53.7934 57.8599 53.6704 57.6737 53.5897 57.4629C53.5088 57.2521 53.4684 57.0063 53.4684 56.7251C53.4684 56.3599 53.5317 56.0348 53.6583 55.7503C53.7847 55.4656 53.955 55.2215 54.1695 55.0177C54.3835 54.8141 54.6366 54.6542 54.9282 54.5382C55.2197 54.4223 55.5342 54.3468 55.8715 54.3117V53.2471H56.5987V54.3117C57.0554 54.3538 57.484 54.4558 57.8845 54.6174C58.2851 54.7791 58.633 54.9441 58.9279 55.1128L58.1694 56.546ZM55.2499 56.4511C55.2499 56.6268 55.3111 56.7657 55.4343 56.8674C55.5571 56.9694 55.7414 57.059 55.9875 57.1362V55.8398C55.4955 55.882 55.2499 56.0859 55.2499 56.4511ZM57.2945 59.8028C57.2945 59.6201 57.2207 59.4779 57.0731 59.3759C56.9256 59.2741 56.7287 59.1809 56.4828 59.0966V60.3613C57.0238 60.3402 57.2945 60.1542 57.2945 59.8028Z" fill="#252628"/>
<path d="M42.5823 64.1646C30.1304 64.1646 20 54.0342 20 41.5823C20 29.1304 30.1304 19 42.5823 19C55.0342 19 65.1646 29.1304 65.1646 41.5823C65.1646 44.2405 64.7067 46.8434 63.804 49.3188C63.6699 49.6866 63.2634 49.8763 62.8951 49.7419C62.5273 49.6078 62.3378 49.2008 62.472 48.833C63.318 46.5138 63.7468 44.0742 63.7468 41.5823C63.7468 29.9121 54.2525 20.4177 42.5823 20.4177C30.9121 20.4177 21.4177 29.9121 21.4177 41.5823C21.4177 53.2525 30.9121 62.7468 42.5823 62.7468C43.5501 62.7468 44.5231 62.681 45.4746 62.5509C45.8626 62.4981 46.2198 62.7693 46.2729 63.1573C46.3259 63.5451 46.0545 63.9025 45.6665 63.9555C44.6517 64.0943 43.614 64.1646 42.5823 64.1646Z" fill="#252628"/>
<path d="M42.5819 28.0732C42.1904 28.0732 41.873 27.7559 41.873 27.3644V23.0643C41.873 22.6728 42.1904 22.3555 42.5819 22.3555C42.9734 22.3555 43.2908 22.6728 43.2908 23.0643V27.3644C43.2908 27.7559 42.9734 28.0732 42.5819 28.0732Z" fill="#252628"/>
<path d="M49.6887 29.9798C49.5684 29.9798 49.4464 29.9491 49.3348 29.8846C48.9958 29.6888 48.8798 29.2551 49.0757 28.9162L51.2286 25.1903C51.4243 24.8513 51.8581 24.7352 52.197 24.9312C52.536 25.127 52.652 25.5607 52.4561 25.8996L50.3032 29.6255C50.1719 29.8527 49.9337 29.9798 49.6887 29.9798Z" fill="#252628"/>
<path d="M54.8952 35.1812C54.6501 35.1812 54.4119 35.054 54.2805 34.8265C54.0849 34.4874 54.2012 34.054 54.5402 33.8582L58.2661 31.7083C58.6057 31.5126 59.0388 31.629 59.2345 31.9679C59.4302 32.307 59.3138 32.7405 58.9749 32.9362L55.2489 35.0862C55.1372 35.1505 55.0153 35.1812 54.8952 35.1812Z" fill="#252628"/>
<path d="M61.1007 42.2908H56.8007C56.4092 42.2908 56.0918 41.9734 56.0918 41.5819C56.0918 41.1904 56.4092 40.873 56.8007 40.873H61.1007C61.4922 40.873 61.8096 41.1904 61.8096 41.5819C61.8096 41.9734 61.4922 42.2908 61.1007 42.2908Z" fill="#252628"/>
<path d="M42.5819 60.8086C42.1904 60.8086 41.873 60.4912 41.873 60.0997V55.7997C41.873 55.4082 42.1904 55.0908 42.5819 55.0908C42.9734 55.0908 43.2908 55.4082 43.2908 55.7997V60.0997C43.2908 60.4912 42.9734 60.8086 42.5819 60.8086Z" fill="#252628"/>
<path d="M33.3216 58.3286C33.2013 58.3286 33.0796 58.298 32.968 58.2336C32.6288 58.0378 32.5126 57.6043 32.7083 57.2652L34.8583 53.5392C35.0541 53.2 35.4876 53.084 35.8266 53.2795C36.1658 53.4753 36.282 53.9088 36.0863 54.2479L33.9363 57.9739C33.805 58.2014 33.5666 58.3286 33.3216 58.3286Z" fill="#252628"/>
<path d="M26.5455 51.5515C26.3007 51.5515 26.0624 51.4245 25.9312 51.1972C25.7353 50.8581 25.8513 50.4246 26.1903 50.2288L29.9162 48.0758C30.255 47.8797 30.6886 47.9958 30.8846 48.335C31.0804 48.674 30.9645 49.1075 30.6254 49.3034L26.8996 51.4563C26.7879 51.5209 26.6658 51.5515 26.5455 51.5515Z" fill="#252628"/>
<path d="M28.3644 42.2908H24.0643C23.6728 42.2908 23.3555 41.9734 23.3555 41.5819C23.3555 41.1904 23.6728 40.873 24.0643 40.873H28.3644C28.7559 40.873 29.0732 41.1904 29.0732 41.5819C29.0732 41.9734 28.7559 42.2908 28.3644 42.2908Z" fill="#252628"/>
<path d="M30.2702 35.1814C30.1499 35.1814 30.0282 35.1508 29.9166 35.0864L26.1906 32.9363C25.8515 32.7407 25.7353 32.3071 25.931 31.968C26.1267 31.6288 26.5604 31.5126 26.8993 31.7084L30.6252 33.8583C30.9643 34.054 31.0806 34.4875 30.8848 34.8266C30.7535 35.0542 30.5152 35.1814 30.2702 35.1814Z" fill="#252628"/>
<path d="M35.4728 29.9798C35.2279 29.9798 34.9895 29.8526 34.8583 29.6252L32.7083 25.8993C32.5126 25.5601 32.6289 25.1267 32.9679 24.931C33.307 24.7352 33.7405 24.8516 33.9362 25.1906L36.0862 28.9165C36.2818 29.2556 36.1656 29.6891 35.8266 29.8848C35.7149 29.9492 35.593 29.9798 35.4728 29.9798Z" fill="#252628"/>
<path d="M42.5827 43.3072C42.4602 43.3072 42.3378 43.2755 42.2282 43.2122L34.1534 38.5505C33.8144 38.3548 33.6982 37.9213 33.8938 37.5821C34.0897 37.243 34.5232 37.1269 34.8623 37.3226L42.5953 41.7871L48.2211 38.7701C48.5659 38.5853 48.9957 38.7146 49.1809 39.0598C49.3659 39.4048 49.2362 39.8345 48.8913 40.0195L42.9177 43.2229C42.8129 43.2791 42.6978 43.3072 42.5827 43.3072Z" fill="#252628"/>
<path d="M56.1519 67.0001C51.294 67.0001 47.3418 63.0479 47.3418 58.19C47.3418 53.3321 51.294 49.3799 56.1519 49.3799C61.0098 49.3799 64.962 53.3321 64.962 58.19C64.962 63.0479 61.0098 67.0001 56.1519 67.0001ZM56.1519 50.7976C52.0758 50.7976 48.7595 54.1139 48.7595 58.19C48.7595 62.2662 52.0758 65.5824 56.1519 65.5824C60.2281 65.5824 63.5443 62.2662 63.5443 58.19C63.5443 54.1139 60.2281 50.7976 56.1519 50.7976Z" fill="#252628"/>
<path d="M39.9494 66.9998H20.7089C20.3174 66.9998 20 66.6824 20 66.2909C20 65.8994 20.3174 65.582 20.7089 65.582H39.9494C40.3409 65.582 40.6582 65.8994 40.6582 66.2909C40.6582 66.6824 40.3409 66.9998 39.9494 66.9998Z" fill="#252628"/>
<path d="M26.7848 63.9617H20.7089C20.3174 63.9617 20 63.6443 20 63.2528C20 62.8613 20.3174 62.5439 20.7089 62.5439H26.7848C27.1763 62.5439 27.4937 62.8613 27.4937 63.2528C27.4937 63.6443 27.1763 63.9617 26.7848 63.9617Z" fill="#252628"/>
<path d="M23.7468 60.9236H20.7089C20.3174 60.9236 20 60.6062 20 60.2147C20 59.8232 20.3174 59.5059 20.7089 59.5059H23.7468C24.1383 59.5059 24.4557 59.8232 24.4557 60.2147C24.4557 60.6062 24.1383 60.9236 23.7468 60.9236Z" fill="#252628"/>
</svg>
