<svg width="85" height="85" viewBox="0 0 85 85" fill="none" xmlns="http://www.w3.org/2000/svg">
<circle cx="42.5" cy="42.5" r="42" stroke="#252628"/>
<path d="M31.3665 65.9997H22.6576C22.5462 65.9997 22.4551 65.9085 22.4551 65.7971V52.0554C22.4551 51.306 22.931 50.6478 23.6399 50.4047L25.6652 49.5136C25.7665 49.4731 25.888 49.5136 25.9285 49.6148C25.969 49.7161 25.9285 49.8376 25.8272 49.8781L23.7918 50.7693C23.7817 50.7693 23.7817 50.7693 23.7715 50.7794C23.2247 50.9617 22.8601 51.468 22.8601 52.0452V65.5946H31.1639V47.5389L28.6019 48.6629C28.5006 48.7035 28.3791 48.6629 28.3386 48.5617C28.2981 48.4604 28.3386 48.3389 28.4399 48.2984L31.2855 47.0528C31.3462 47.0224 31.4171 47.0326 31.4779 47.0731C31.5386 47.1136 31.569 47.1743 31.569 47.2452V65.7971C31.569 65.9085 31.4779 65.9997 31.3665 65.9997Z" fill="#252628"/>
<path fill-rule="evenodd" clip-rule="evenodd" d="M30.7635 48.1511L28.7502 49.0344C28.4811 49.142 28.1035 49.0519 27.9668 48.7101C27.86 48.4429 27.9479 48.069 28.2836 47.9299L31.1178 46.6892C31.3311 46.5884 31.5501 46.6406 31.6994 46.7401C31.8766 46.8583 31.9686 47.0469 31.9686 47.2451V65.797C31.9686 66.1293 31.6984 66.3995 31.3661 66.3995H22.6572C22.3249 66.3995 22.0547 66.1293 22.0547 65.797V52.0552C22.0547 51.1387 22.6338 50.3344 23.4931 50.032L25.5162 49.1418C25.7853 49.0342 26.1628 49.1244 26.2995 49.4661C26.4064 49.7333 26.3185 50.1072 25.9828 50.2464L24.0029 51.1132L23.9872 51.1289L23.9028 51.157L23.8751 51.1691H23.8681C23.5014 51.3048 23.2598 51.6502 23.2598 52.0451V65.1944H30.7635V48.1511ZM23.7914 51.1691H23.7932C23.7885 51.1692 23.7872 51.1691 23.7914 51.1691Z" fill="#252628"/>
<path d="M26.8103 27.519C24.1875 27.519 22.0508 25.3823 22.0508 22.7595C22.0508 20.1367 24.1875 18 26.8103 18C29.4331 18 31.5698 20.1367 31.5698 22.7595C31.5698 25.3823 29.4331 27.519 26.8103 27.519ZM26.8103 18.4051C24.4103 18.4051 22.4558 20.3595 22.4558 22.7595C22.4558 25.1595 24.4103 27.1139 26.8103 27.1139C29.2103 27.1139 31.1647 25.1595 31.1647 22.7595C31.1647 20.3595 29.2103 18.4051 26.8103 18.4051Z" fill="#252628"/>
<path fill-rule="evenodd" clip-rule="evenodd" d="M21.6504 22.7591C21.6504 19.9154 23.9662 17.5996 26.8099 17.5996C29.6536 17.5996 31.9694 19.9154 31.9694 22.7591C31.9694 25.6028 29.6536 27.9186 26.8099 27.9186C23.9662 27.9186 21.6504 25.6028 21.6504 22.7591ZM26.8099 18.8047C24.6308 18.8047 22.8555 20.58 22.8555 22.7591C22.8555 24.9382 24.6308 26.7135 26.8099 26.7135C28.989 26.7135 30.7643 24.9382 30.7643 22.7591C30.7643 20.58 28.989 18.8047 26.8099 18.8047Z" fill="#252628"/>
<path d="M33.3918 40.683H30.3539C30.3032 40.683 30.2627 40.6628 30.2222 40.6425L25.1589 36.5919C25.0678 36.521 25.0577 36.3995 25.1286 36.3083C25.1994 36.2172 25.321 36.2071 25.4121 36.278L30.4248 40.2881H33.3918C33.5032 40.2881 33.5944 40.3792 33.5944 40.4906C33.5944 40.602 33.5032 40.683 33.3918 40.683Z" fill="#252628"/>
<path fill-rule="evenodd" clip-rule="evenodd" d="M30.5644 39.8884L25.6613 35.9659L25.657 35.9625C25.4064 35.7676 25.03 35.7831 24.8122 36.0631C24.6178 36.3129 24.6326 36.6878 24.91 36.9059L30.0048 40.9817L30.0427 41.0006C30.0446 41.0016 30.0468 41.0027 30.0494 41.004C30.089 41.0243 30.2047 41.0833 30.3532 41.0833H33.3912C33.6961 41.0833 33.9937 40.8497 33.9937 40.4909C33.9937 40.1586 33.7235 39.8884 33.3912 39.8884H30.5644Z" fill="#252628"/>
<path d="M61.3411 65.9986H52.6322C52.5208 65.9986 52.4297 65.9074 52.4297 65.7961V47.234C52.4297 47.1631 52.4601 47.1024 52.5208 47.0619C52.5816 47.0214 52.6525 47.0214 52.7132 47.0416L55.5588 48.2872C55.6601 48.3277 55.7107 48.4492 55.6601 48.5505C55.6196 48.6518 55.498 48.7024 55.3968 48.6518L52.8348 47.5378V65.5935H61.1385V52.0543C61.1385 51.4771 60.774 50.9707 60.2272 50.7885C60.217 50.7885 60.217 50.7885 60.2069 50.7783L58.1715 49.8872C58.0702 49.8467 58.0196 49.7252 58.0702 49.6239C58.1107 49.5226 58.2322 49.472 58.3335 49.5226L60.3588 50.4138C61.0677 50.6568 61.5436 51.315 61.5436 52.0644V65.7961C61.5436 65.9074 61.4525 65.9986 61.3411 65.9986Z" fill="#252628"/>
<path fill-rule="evenodd" clip-rule="evenodd" d="M60.5049 50.0417C61.3641 50.344 61.9432 51.1484 61.9432 52.0649V65.7965C61.9432 66.1288 61.673 66.3991 61.3407 66.3991H52.6318C52.2995 66.3991 52.0293 66.1288 52.0293 65.7965V47.2345C52.0293 47.0363 52.1213 46.8477 52.2986 46.7295C52.4882 46.6031 52.695 46.6145 52.8393 46.6626L52.8566 46.6684L55.7146 47.9194C56.0142 48.0441 56.171 48.4019 56.0245 48.7152C55.8964 49.0103 55.5407 49.163 55.2296 49.0159L53.2344 48.1484V65.194H60.7382V52.0548C60.7382 51.6589 60.4953 51.3128 60.1272 51.1778C60.1001 51.1714 60.0696 51.1614 60.0378 51.1455C60.0261 51.1396 60.0154 51.1335 60.0056 51.1275L58.0149 50.2559C57.7153 50.1312 57.5585 49.7735 57.705 49.4601C57.8332 49.1647 58.1895 49.012 58.5009 49.1599L60.5049 50.0417Z" fill="#252628"/>
<path d="M57.1892 27.519C54.5664 27.519 52.4297 25.3823 52.4297 22.7595C52.4297 20.1367 54.5664 18 57.1892 18C59.812 18 61.9487 20.1367 61.9487 22.7595C61.9487 25.3823 59.812 27.519 57.1892 27.519ZM57.1892 18.4051C54.7892 18.4051 52.8348 20.3595 52.8348 22.7595C52.8348 25.1595 54.7892 27.1139 57.1892 27.1139C59.5892 27.1139 61.5436 25.1595 61.5436 22.7595C61.5436 20.3595 59.5892 18.4051 57.1892 18.4051Z" fill="#252628"/>
<path fill-rule="evenodd" clip-rule="evenodd" d="M52.0293 22.7591C52.0293 19.9154 54.3451 17.5996 57.1888 17.5996C60.0325 17.5996 62.3483 19.9154 62.3483 22.7591C62.3483 25.6028 60.0325 27.9186 57.1888 27.9186C54.3451 27.9186 52.0293 25.6028 52.0293 22.7591ZM57.1888 18.8047C55.0097 18.8047 53.2344 20.58 53.2344 22.7591C53.2344 24.9382 55.0097 26.7135 57.1888 26.7135C59.3679 26.7135 61.1432 24.9382 61.1432 22.7591C61.1432 20.58 59.3679 18.8047 57.1888 18.8047Z" fill="#252628"/>
<path d="M53.6448 40.6834H50.6068C50.4954 40.6834 50.4043 40.5922 50.4043 40.4809C50.4043 40.3695 50.4954 40.2783 50.6068 40.2783H53.5739L58.5866 36.2682C58.6777 36.1973 58.7992 36.2074 58.8701 36.2986C58.941 36.3897 58.9309 36.5112 58.8397 36.5821L53.7764 40.6328C53.7359 40.6631 53.6954 40.6834 53.6448 40.6834Z" fill="#252628"/>
<path fill-rule="evenodd" clip-rule="evenodd" d="M58.3406 35.9528C58.5912 35.7578 58.9677 35.7733 59.1855 36.0533C59.3798 36.3032 59.365 36.678 59.0876 36.8961L54.0162 40.9532C53.9406 41.0099 53.8163 41.0837 53.6444 41.0837H50.6064C50.2741 41.0837 50.0039 40.8135 50.0039 40.4812C50.0039 40.1489 50.2741 39.8786 50.6064 39.8786H53.4332L58.3406 35.9528Z" fill="#252628"/>
<path d="M22.1715 51.2258C21.2094 51.2258 20.4297 50.446 20.4297 49.484V45.0182C20.4297 44.9068 20.5208 44.8156 20.6322 44.8156C20.7436 44.8156 20.8348 44.9068 20.8348 45.0182V49.484C20.8348 50.2232 21.4322 50.8207 22.1715 50.8207C22.3132 50.8207 22.455 50.8004 22.5866 50.7498L31.2854 47.0435C31.2955 47.0435 31.2955 47.0435 31.3056 47.0334L33.1892 46.4055V40.4815C33.1892 40.3701 33.2803 40.2789 33.3917 40.2789H37.9791L38.0094 40.1777C38.0398 40.0663 38.1512 40.0055 38.2525 40.0258C38.3639 40.0561 38.4246 40.1675 38.4044 40.2688L38.3436 40.522C38.3234 40.6131 38.5563 40.6739 38.4651 40.6739H33.6044V46.5473C33.6044 46.6384 33.5436 46.7093 33.4626 46.7397L31.4474 47.408L22.7487 51.1144C22.7385 51.1144 22.7385 51.1144 22.7284 51.1245C22.5461 51.1954 22.3537 51.2258 22.1715 51.2258ZM20.6322 42.1928C20.5208 42.1928 20.4297 42.1017 20.4297 41.9903V34.0004C20.4297 31.8739 22.1512 30.1523 24.2778 30.1523H29.7461C31.8727 30.1523 33.5942 31.8739 33.5942 34.0004V36.2283H39.4677C39.5284 36.2283 39.4879 36.2587 39.5183 36.3093C39.5487 36.3599 39.5689 36.4207 39.5588 36.4815L39.3461 37.3321C39.3158 37.4435 39.2044 37.5042 39.1031 37.484C38.9917 37.4536 38.931 37.3422 38.9512 37.241L39.1436 36.6435H33.3917C33.2803 36.6435 33.1892 36.5523 33.1892 36.441V34.0106C33.1892 32.1169 31.6398 30.5675 29.7461 30.5675H24.2778C22.3841 30.5675 20.8348 32.1169 20.8348 34.0106V42.0004C20.8348 42.1017 20.7436 42.1928 20.6322 42.1928Z" fill="#252628"/>
<path fill-rule="evenodd" clip-rule="evenodd" d="M38.5942 37.0431H33.3913C33.059 37.0431 32.7888 36.7729 32.7888 36.4406V34.0102C32.7888 32.3374 31.4185 30.9671 29.7458 30.9671H24.2774C22.6046 30.9671 21.2344 32.3374 21.2344 34.0102V42.0001C21.2344 42.3353 20.9508 42.5925 20.6318 42.5925C20.2995 42.5925 20.0293 42.3222 20.0293 41.9899V34.0001C20.0293 31.6526 21.9299 29.752 24.2774 29.752H29.7458C32.0932 29.752 33.9939 31.6526 33.9939 34.0001V35.8279H39.4673C39.4891 35.8279 39.523 35.8291 39.5622 35.8367C39.6013 35.8443 39.6626 35.8616 39.7253 35.9053C39.8446 35.9885 39.883 36.1025 39.896 36.1688C39.9413 36.2647 39.9781 36.3961 39.953 36.5468L39.9503 36.5626L39.7317 37.437C39.6435 37.7604 39.3222 37.9354 39.0243 37.8758L39.0108 37.8731L38.9975 37.8695C38.6741 37.7813 38.499 37.4601 38.5586 37.1621L38.5631 37.1397L38.5942 37.0431ZM39.9055 36.2422C39.9055 36.2424 39.9051 36.2397 39.9043 36.2332C39.9052 36.2386 39.9056 36.2419 39.9055 36.2422ZM37.7142 39.8785H33.3913C33.059 39.8785 32.7888 40.1488 32.7888 40.4811V46.1168L31.21 46.6431H31.2033L31.1795 46.6532L31.0892 46.6834L31.0746 46.6979L22.4369 50.3783C22.3624 50.4059 22.2734 50.4203 22.1711 50.4203C21.6527 50.4203 21.2344 50.0019 21.2344 49.4836V45.0178C21.2344 44.6855 20.9641 44.4152 20.6318 44.4152C20.2995 44.4152 20.0293 44.6855 20.0293 45.0178V49.4836C20.0293 50.6665 20.9881 51.6254 22.1711 51.6254C22.3818 51.6254 22.6074 51.5927 22.8273 51.514H22.8299L22.8456 51.5073C22.8547 51.5039 22.8639 51.5005 22.873 51.4969L22.9514 51.4664L22.9587 51.4591L31.5886 47.7821L33.5954 47.1165L33.6027 47.1138C33.8085 47.0366 34.004 46.8358 34.004 46.5469V41.0735H38.4647C38.4786 41.0735 38.5042 41.0731 38.5342 41.0688C38.5494 41.0667 38.5736 41.0625 38.6021 41.0535C38.6279 41.0455 38.6771 41.0274 38.7286 40.9878C38.7848 40.9447 38.852 40.8684 38.8768 40.7541C38.9008 40.6435 38.8732 40.5521 38.8484 40.4988C38.8291 40.4572 38.8049 40.4242 38.7837 40.4001L38.7947 40.3543L38.7962 40.3469C38.8558 40.0489 38.6807 39.7277 38.3573 39.6395L38.344 39.6358L38.3305 39.6331C38.0991 39.5869 37.8536 39.6821 37.7142 39.8785ZM22.7483 51.514H22.7501C22.7454 51.5141 22.7441 51.514 22.7483 51.514ZM31.285 46.6431H31.2832C31.2879 46.643 31.2892 46.6431 31.285 46.6431Z" fill="#252628"/>
<path d="M61.8271 51.2258C61.6448 51.2258 61.4524 51.1954 61.2702 51.1346C61.26 51.1346 61.26 51.1346 61.2499 51.1245L52.5512 47.4182L50.536 46.7498C50.455 46.7194 50.3942 46.6485 50.3942 46.5574V44.9574C50.3942 44.846 50.4853 44.7549 50.5967 44.7549C50.7081 44.7549 50.7993 44.846 50.7993 44.9574V46.4156L52.6828 47.0435C52.6929 47.0435 52.6929 47.0435 52.7031 47.0536L61.4018 50.7599C61.5334 50.8004 61.6752 50.8308 61.817 50.8308C62.5562 50.8308 63.1537 50.2334 63.1537 49.4941V35.2258C63.1537 35.1144 63.2448 35.0232 63.3562 35.0232C63.4676 35.0232 63.5588 35.1144 63.5588 35.2258V49.4941C63.5689 50.446 62.7891 51.2258 61.8271 51.2258ZM50.6069 42.122C50.4955 42.122 50.4043 42.0308 50.4043 41.9194V40.684H45.8271C45.736 40.684 45.655 40.6232 45.6347 40.5321L44.3689 36.4815C44.3588 36.4207 44.3689 36.3599 44.4094 36.3093C44.4499 36.2587 44.5107 36.2283 44.5714 36.2283H50.4043V34.0004C50.4043 31.8739 52.1259 30.1523 54.2524 30.1523H59.7208C61.1284 30.1523 62.4246 30.922 63.1031 32.1574C63.1537 32.2587 63.1233 32.3802 63.0221 32.4308C62.9208 32.4815 62.7993 32.4511 62.7486 32.3498C62.141 31.2359 60.9866 30.5473 59.7208 30.5473H54.2524C52.3588 30.5473 50.8094 32.0966 50.8094 33.9903V36.4207C50.8094 36.5321 50.7183 36.6232 50.6069 36.6232H44.8246L45.9891 40.2688H50.6069C50.7183 40.2688 50.8094 40.3599 50.8094 40.4713V41.9093C50.8094 42.0308 50.7183 42.122 50.6069 42.122Z" fill="#252628"/>
<path fill-rule="evenodd" clip-rule="evenodd" d="M50.0038 35.8279V34.0001C50.0038 31.6526 51.9044 29.752 54.2519 29.752H59.7203C61.2745 29.752 62.7047 30.6016 63.4532 31.9645L63.4569 31.9712L63.4603 31.9781C63.5936 32.2447 63.5301 32.6234 63.2004 32.7882C62.9361 32.9204 62.5614 32.859 62.3945 32.5364C61.8559 31.5528 60.8371 30.9469 59.7203 30.9469H54.2519C52.5792 30.9469 51.2089 32.3172 51.2089 33.9899V36.4203C51.2089 36.7526 50.9387 37.0228 50.6064 37.0228H45.3718L46.2808 39.8684H50.6064C50.9387 39.8684 51.2089 40.1386 51.2089 40.4709V41.9089C51.2089 42.2385 50.9513 42.5216 50.6064 42.5216C50.2741 42.5216 50.0038 42.2513 50.0038 41.919V41.0836H45.8266C45.5649 41.0836 45.3191 40.9113 45.2487 40.6391L43.9784 36.574L43.9738 36.5468C43.9491 36.3985 43.9709 36.2162 44.0965 36.059C44.2071 35.9209 44.3796 35.8279 44.5709 35.8279H50.0038ZM61.5379 50.383C61.6412 50.4135 61.7344 50.4304 61.8165 50.4304C62.3348 50.4304 62.7532 50.0121 62.7532 49.4937V35.2254C62.7532 34.8931 63.0234 34.6228 63.3557 34.6228C63.688 34.6228 63.9583 34.8931 63.9583 35.2254V49.4917C63.9695 50.6692 63.0064 51.6254 61.8266 51.6254C61.6128 51.6254 61.3901 51.5918 61.1772 51.5247C61.1483 51.5185 61.1152 51.508 61.0806 51.4907C61.07 51.4854 61.0602 51.4799 61.0511 51.4744L52.4091 47.7922L50.4022 47.1267L50.395 47.124C50.1891 47.0467 49.9937 46.846 49.9937 46.557V44.957C49.9937 44.6247 50.2639 44.3545 50.5962 44.3545C50.9285 44.3545 51.1988 44.6247 51.1988 44.957V46.1269L52.7776 46.6532C52.8058 46.6595 52.8378 46.6698 52.8713 46.6866C52.8819 46.6919 52.8918 46.6974 52.9008 46.7029L61.5379 50.383Z" fill="#252628"/>
<path d="M47.5703 65.9996H36.431C36.3197 65.9996 36.2285 65.9085 36.2285 65.7971V45.7465C36.2285 45.6351 36.3197 45.5439 36.431 45.5439H42.1019C42.2133 45.5439 42.3045 45.6351 42.3045 45.7465C42.3045 45.8579 42.2133 45.949 42.1019 45.949H36.6336V65.5946H47.3678V45.949H44.5323C44.4209 45.949 44.3298 45.8579 44.3298 45.7465C44.3298 45.6351 44.4209 45.5439 44.5323 45.5439H47.5703C47.6817 45.5439 47.7728 45.6351 47.7728 45.7465V65.7971C47.7728 65.9085 47.6817 65.9996 47.5703 65.9996Z" fill="#252628"/>
<path fill-rule="evenodd" clip-rule="evenodd" d="M35.8281 45.7461C35.8281 45.4138 36.0984 45.1436 36.4307 45.1436H42.1015C42.4338 45.1436 42.7041 45.4138 42.7041 45.7461C42.7041 46.0784 42.4338 46.3486 42.1015 46.3486H37.0332V65.1942H46.9674V46.3486H44.5319C44.1996 46.3486 43.9294 46.0784 43.9294 45.7461C43.9294 45.4138 44.1996 45.1436 44.5319 45.1436H47.5699C47.9022 45.1436 48.1724 45.4138 48.1724 45.7461V65.7967C48.1724 66.129 47.9022 66.3993 47.5699 66.3993H36.4307C36.0984 66.3993 35.8281 66.129 35.8281 65.7967V45.7461Z" fill="#252628"/>
<path d="M43.5189 65.9996C43.4075 65.9996 43.3164 65.9085 43.3164 65.7971V45.7465C43.3164 45.6351 43.4075 45.5439 43.5189 45.5439C43.6303 45.5439 43.7215 45.6351 43.7215 45.7465V65.7971C43.7215 65.9085 43.6303 65.9996 43.5189 65.9996Z" fill="#252628"/>
<path fill-rule="evenodd" clip-rule="evenodd" d="M42.916 45.7461C42.916 45.4138 43.1862 45.1436 43.5185 45.1436C43.8509 45.1436 44.1211 45.4138 44.1211 45.7461V65.7967C44.1211 66.129 43.8509 66.3993 43.5185 66.3993C43.1862 66.3993 42.916 66.129 42.916 65.7967V45.7461Z" fill="#252628"/>
<path d="M40.4818 65.9996C40.3704 65.9996 40.2793 65.9085 40.2793 65.7971V60.7338C40.2793 60.6224 40.3704 60.5312 40.4818 60.5312C40.5932 60.5312 40.6844 60.6224 40.6844 60.7338V65.7971C40.6844 65.9085 40.5932 65.9996 40.4818 65.9996Z" fill="#252628"/>
<path fill-rule="evenodd" clip-rule="evenodd" d="M39.8789 60.7334C39.8789 60.4011 40.1491 60.1309 40.4814 60.1309C40.8137 60.1309 41.084 60.4011 41.084 60.7334V65.7967C41.084 66.129 40.8137 66.3992 40.4814 66.3992C40.1491 66.3992 39.8789 66.129 39.8789 65.7967V60.7334Z" fill="#252628"/>
<path d="M40.4818 57.8984C40.4312 57.8984 40.3806 57.8782 40.3401 57.8377C40.2996 57.7972 40.2793 57.7465 40.2793 57.6959C40.2793 57.6453 40.2996 57.5845 40.3401 57.5541C40.4109 57.4833 40.5527 57.4833 40.6236 57.5541C40.6641 57.5946 40.6844 57.6453 40.6844 57.6959C40.6844 57.7465 40.6641 57.7972 40.6236 57.8377C40.5831 57.8782 40.5325 57.8984 40.4818 57.8984Z" fill="#252628"/>
<path fill-rule="evenodd" clip-rule="evenodd" d="M40.6038 57.8536C40.5952 57.8606 40.5866 57.8666 40.5782 57.8718C40.5375 57.8965 40.5008 57.9006 40.4814 57.9006C40.4552 57.9006 40.3969 57.8931 40.3404 57.8366C40.3083 57.8045 40.284 57.7543 40.284 57.6955C40.284 57.6368 40.3082 57.5867 40.3403 57.5546C40.3403 57.5545 40.3403 57.5545 40.3404 57.5545C40.3725 57.5223 40.4226 57.4981 40.4814 57.4981C40.5402 57.4981 40.5904 57.5223 40.6225 57.5545C40.6546 57.5866 40.6789 57.6367 40.6789 57.6955C40.6789 57.72 40.6747 57.7426 40.6655 57.7656C40.6596 57.7803 40.6469 57.8069 40.6214 57.8355C40.6161 57.8415 40.6103 57.8475 40.6038 57.8536ZM40.4814 57.1006C40.614 57.1006 40.7786 57.1435 40.9061 57.2709C41.0192 57.384 41.084 57.5355 41.084 57.6955C41.084 57.8556 41.0192 58.007 40.9061 58.1201C40.7929 58.2333 40.6415 58.2981 40.4814 58.2981C40.3214 58.2981 40.1699 58.2333 40.0568 58.1201C39.9437 58.007 39.8789 57.8556 39.8789 57.6955C39.8789 57.5782 39.9183 57.3853 40.0765 57.2522C40.2009 57.1392 40.3556 57.1006 40.4814 57.1006Z" fill="#252628"/>
<path d="M65.7975 65.9998H51.6203C51.5089 65.9998 51.4177 65.9087 51.4177 65.7973C51.4177 65.6859 51.5089 65.5947 51.6203 65.5947H65.7975C65.9089 65.5947 66 65.6859 66 65.7973C66 65.9087 65.9089 65.9998 65.7975 65.9998ZM48.5823 65.9998H18.2025C18.0911 65.9998 18 65.9087 18 65.7973C18 65.6859 18.0911 65.5947 18.2025 65.5947H48.5823C48.6937 65.5947 48.7848 65.6859 48.7848 65.7973C48.7848 65.9087 48.6937 65.9998 48.5823 65.9998Z" fill="#252628"/>
<path fill-rule="evenodd" clip-rule="evenodd" d="M17.5996 65.7969C17.5996 65.4646 17.8698 65.1943 18.2021 65.1943H48.5819C48.9142 65.1943 49.1844 65.4646 49.1844 65.7969C49.1844 66.1292 48.9142 66.3994 48.5819 66.3994H18.2021C17.8698 66.3994 17.5996 66.1292 17.5996 65.7969ZM51.0173 65.7969C51.0173 65.4646 51.2876 65.1943 51.6199 65.1943H65.7971C66.1294 65.1943 66.3996 65.4646 66.3996 65.7969C66.3996 66.1292 66.1294 66.3994 65.7971 66.3994H51.6199C51.2876 66.3994 51.0173 66.1292 51.0173 65.7969Z" fill="#252628"/>
<path d="M46.4654 41.6351L41.9996 38.3844L37.5337 41.6351L39.2451 36.3794L34.7793 33.1287H40.2983L42.0097 27.873L43.7211 33.1287H49.2401L44.7742 36.3794L46.4654 41.6351ZM36.0147 33.5439L39.7109 36.2275L38.2932 40.5718L41.9894 37.8882L45.6856 40.5718L44.2679 36.2275L47.9641 33.5439H43.4173L41.9996 29.1996L40.5818 33.5439H36.0147Z" fill="#252628"/>
<path fill-rule="evenodd" clip-rule="evenodd" d="M42.0104 26.5811L44.0122 32.7286H50.47L45.2444 36.5323L47.2227 42.6804L42.0003 38.8791L36.7719 42.6847L38.7755 36.5317L33.5508 32.7286H40.0086L42.0104 26.5811ZM42.0003 30.4889L40.8728 33.9438H37.2472L40.1822 36.0747L39.0567 39.5236L41.9901 37.3938L44.9235 39.5236L43.798 36.0747L46.733 33.9438H43.1278L42.0003 30.4889Z" fill="#252628"/>
<path d="M39.052 30.2727L37.219 28.936L35.3861 30.2727L36.0849 28.1157L34.252 26.779H36.5203L37.219 24.6221L37.9178 26.779H40.1861L38.3532 28.1259L39.052 30.2727ZM37.219 28.4398L38.2823 29.2094L37.8773 27.9638L38.9406 27.1942H37.6241L37.219 25.9487L36.814 27.1942H35.4975L36.5608 27.9638L36.1558 29.2094L37.219 28.4398Z" fill="#252628"/>
<path fill-rule="evenodd" clip-rule="evenodd" d="M37.2198 23.3242L38.2094 26.3791H41.4068L38.8238 28.2771L39.8156 31.3242L37.2198 29.4312L34.6264 31.3225L35.6158 28.2683L33.0254 26.3791H36.2302L37.2198 23.3242ZM37.2198 27.2422L37.1053 27.5943H36.7331L37.032 27.8107L36.9166 28.1655L37.2198 27.9461L37.523 28.1655L37.4076 27.8107L37.7065 27.5943H37.3343L37.2198 27.2422Z" fill="#252628"/>
<path d="M44.8744 30.2727L45.5731 28.1157L43.7402 26.779H46.0086L46.7073 24.6221L47.4061 26.779H49.6744L47.8415 28.1259L48.5402 30.2828L46.7073 28.9461L44.8744 30.2727ZM46.7073 28.4398L47.7706 29.2094L47.3655 27.9638L48.4288 27.1942H47.1124L46.7073 25.9487L46.3023 27.1942H44.9858L46.0491 27.9638L45.644 29.2094L46.7073 28.4398Z" fill="#252628"/>
<path fill-rule="evenodd" clip-rule="evenodd" d="M46.7081 23.3242L47.6977 26.3791H50.8951L48.3118 28.2774L49.3015 31.3326L46.7072 29.4406L44.117 31.3153L45.1041 28.2683L42.5137 26.3791H45.7185L46.7081 23.3242ZM46.7081 27.2422L46.5936 27.5943H46.2214L46.5203 27.8107L46.4049 28.1655L46.7081 27.9461L47.0113 28.1655L46.8959 27.8107L47.1948 27.5943H46.8226L46.7081 27.2422Z" fill="#252628"/>
<path d="M42.2019 38.1416H41.7969V45.7872H42.2019V38.1416Z" fill="#252628"/>
<path fill-rule="evenodd" clip-rule="evenodd" d="M41.3965 37.7412H42.6015V46.1868H41.3965V37.7412Z" fill="#252628"/>
</svg>
