<svg width="31" height="25" viewBox="0 0 31 25" fill="none" xmlns="http://www.w3.org/2000/svg">
<path d="M11 5.36803C11 2.40367 8.5375 0 5.49941 0C2.4625 0 0 2.40367 0 5.36803C0 8.33354 4.71085 13 5.49941 13C6.28915 13 11 8.33297 11 5.36803ZM2.98939 5.43848C2.98939 4.08516 4.11356 2.98784 5.49941 2.98784C6.88644 2.98784 8.01062 4.08516 8.01062 5.43848C8.01062 6.7918 6.88644 7.88854 5.49941 7.88854C4.11356 7.88854 2.98939 6.7918 2.98939 5.43848Z" fill="white"/>
<path d="M24.9991 7C21.6865 7 19 9.77301 19 13.1941C19 16.6147 24.1382 22 24.9991 22C25.8612 22 31 16.6147 31 13.1941C31 9.77301 28.3134 7 24.9991 7ZM24.9991 16.1019C23.4871 16.1019 22.2613 14.8358 22.2613 13.2748C22.2613 11.7138 23.4877 10.4476 24.9991 10.4476C26.5129 10.4476 27.7381 11.7138 27.7381 13.2748C27.7381 14.8358 26.5129 16.1019 24.9991 16.1019Z" fill="white"/>
<path d="M6.70906 21.3087C6.70906 20.2465 7.54536 19.3827 8.57365 19.3827H14.3201C16.2901 19.3827 17.8932 17.7268 17.8932 15.6913C17.8932 13.6559 16.2901 12 14.3201 12H8.57365V13.7653H14.3201C15.3478 13.7653 16.1841 14.6298 16.1841 15.6913C16.1841 16.7541 15.3478 17.6173 14.3201 17.6173H8.57365C6.6031 17.6173 5 19.2732 5 21.3087C5 23.3441 6.6031 25 8.57365 25H25V23.2347H8.57365C7.54536 23.2347 6.70906 22.3708 6.70906 21.3087Z" fill="#88BD6F"/>
</svg>
