<svg width="20" height="20" viewBox="0 0 20 20" fill="none" xmlns="http://www.w3.org/2000/svg">
<path d="M16.8172 12.0859C15.9585 11.2272 14.8213 11.2272 13.9625 12.0859C13.452 12.5965 12.9414 13.0838 12.4076 13.6408C12.2915 13.5712 12.1523 13.5016 12.0362 13.4552C11.8506 13.3623 11.6417 13.2695 11.4792 13.1535C10.1099 12.2947 8.87986 11.1575 7.64981 9.67218C7.04639 8.9063 6.62863 8.25646 6.32692 7.5602C6.83751 7.04961 7.3481 6.53902 7.85869 6.05164C8.74061 5.1465 8.74061 4.03249 7.85869 3.15057C7.44093 2.73281 7.04639 2.31506 6.62863 1.92051L6.21088 1.50276C5.93237 1.22425 5.65387 0.94575 5.35216 0.644038C4.47023 -0.214679 3.35622 -0.214679 2.4975 0.644038C2.28862 0.852916 2.07975 1.06179 1.89408 1.24746C1.56916 1.57238 1.26745 1.8973 0.942527 2.19901C0.385521 2.73281 0.0606005 3.40586 0.0141833 4.21816C-0.0554424 5.23934 0.130226 6.26052 0.594398 7.53699C1.33707 9.53293 2.47429 11.4128 4.05248 13.3159C6.002 15.6368 8.39248 17.5167 11.1311 18.8396C12.6164 19.559 13.8929 19.9304 15.1462 20C15.239 20 15.3319 20 15.4015 20C16.4459 20 17.2582 19.6519 17.908 18.9324C18.2097 18.6075 18.5346 18.2826 18.8596 17.9809C19.022 17.8184 19.1845 17.6791 19.3237 17.5167C20.2057 16.6348 20.2057 15.4975 19.3237 14.6156L16.8172 12.0859Z" fill="#225B51"/>
</svg>
