<svg width="224" height="224" viewBox="0 0 224 224" fill="none" xmlns="http://www.w3.org/2000/svg">
<circle cx="1" cy="1" r="1" fill="#E0E0E0"/>
<circle cx="15" cy="1" r="1" fill="#E0E0E0"/>
<circle cx="29" cy="1" r="1" fill="#E0E0E0"/>
<circle cx="43" cy="1" r="1" fill="#E0E0E0"/>
<circle cx="57" cy="1" r="1" fill="#E0E0E0"/>
<circle cx="71" cy="1" r="1" fill="#E0E0E0"/>
<circle cx="85" cy="1" r="1" fill="#E0E0E0"/>
<circle cx="99" cy="1" r="1" fill="#E0E0E0"/>
<circle cx="1" cy="15" r="1" fill="#E0E0E0"/>
<circle cx="15" cy="15" r="1" fill="#E0E0E0"/>
<circle cx="29" cy="15" r="1" fill="#E0E0E0"/>
<circle cx="43" cy="15" r="1" fill="#E0E0E0"/>
<circle cx="57" cy="15" r="1" fill="#E0E0E0"/>
<circle cx="71" cy="15" r="1" fill="#E0E0E0"/>
<circle cx="85" cy="15" r="1" fill="#E0E0E0"/>
<circle cx="99" cy="15" r="1" fill="#E0E0E0"/>
<circle cx="1" cy="29" r="1" fill="#E0E0E0"/>
<circle cx="15" cy="29" r="1" fill="#E0E0E0"/>
<circle cx="29" cy="29" r="1" fill="#E0E0E0"/>
<circle cx="43" cy="29" r="1" fill="#E0E0E0"/>
<circle cx="57" cy="29" r="1" fill="#E0E0E0"/>
<circle cx="71" cy="29" r="1" fill="#E0E0E0"/>
<circle cx="85" cy="29" r="1" fill="#E0E0E0"/>
<circle cx="99" cy="29" r="1" fill="#E0E0E0"/>
<circle cx="1" cy="43" r="1" fill="#E0E0E0"/>
<circle cx="15" cy="43" r="1" fill="#E0E0E0"/>
<circle cx="29" cy="43" r="1" fill="#E0E0E0"/>
<circle cx="43" cy="43" r="1" fill="#E0E0E0"/>
<circle cx="57" cy="43" r="1" fill="#E0E0E0"/>
<circle cx="71" cy="43" r="1" fill="#E0E0E0"/>
<circle cx="85" cy="43" r="1" fill="#E0E0E0"/>
<circle cx="99" cy="43" r="1" fill="#E0E0E0"/>
<circle cx="1" cy="57" r="1" fill="#E0E0E0"/>
<circle cx="15" cy="57" r="1" fill="#E0E0E0"/>
<circle cx="29" cy="57" r="1" fill="#E0E0E0"/>
<circle cx="43" cy="57" r="1" fill="#E0E0E0"/>
<circle cx="57" cy="57" r="1" fill="#E0E0E0"/>
<circle cx="71" cy="57" r="1" fill="#E0E0E0"/>
<circle cx="85" cy="57" r="1" fill="#E0E0E0"/>
<circle cx="99" cy="57" r="1" fill="#E0E0E0"/>
<circle cx="1" cy="71" r="1" fill="#E0E0E0"/>
<circle cx="15" cy="71" r="1" fill="#E0E0E0"/>
<circle cx="29" cy="71" r="1" fill="#E0E0E0"/>
<circle cx="43" cy="71" r="1" fill="#E0E0E0"/>
<circle cx="57" cy="71" r="1" fill="#E0E0E0"/>
<circle cx="71" cy="71" r="1" fill="#E0E0E0"/>
<circle cx="85" cy="71" r="1" fill="#E0E0E0"/>
<circle cx="99" cy="71" r="1" fill="#E0E0E0"/>
<circle cx="1" cy="85" r="1" fill="#E0E0E0"/>
<circle cx="15" cy="85" r="1" fill="#E0E0E0"/>
<circle cx="29" cy="85" r="1" fill="#E0E0E0"/>
<circle cx="43" cy="85" r="1" fill="#E0E0E0"/>
<circle cx="57" cy="85" r="1" fill="#E0E0E0"/>
<circle cx="71" cy="85" r="1" fill="#E0E0E0"/>
<circle cx="85" cy="85" r="1" fill="#E0E0E0"/>
<circle cx="99" cy="85" r="1" fill="#E0E0E0"/>
<circle cx="1" cy="99" r="1" fill="#E0E0E0"/>
<circle cx="15" cy="99" r="1" fill="#E0E0E0"/>
<circle cx="29" cy="99" r="1" fill="#E0E0E0"/>
<circle cx="43" cy="99" r="1" fill="#E0E0E0"/>
<circle cx="57" cy="99" r="1" fill="#E0E0E0"/>
<circle cx="71" cy="99" r="1" fill="#E0E0E0"/>
<circle cx="85" cy="99" r="1" fill="#E0E0E0"/>
<circle cx="99" cy="99" r="1" fill="#E0E0E0"/>
<circle cx="125" cy="1" r="1" fill="#E0E0E0"/>
<circle cx="139" cy="1" r="1" fill="#E0E0E0"/>
<circle cx="153" cy="1" r="1" fill="#E0E0E0"/>
<circle cx="167" cy="1" r="1" fill="#E0E0E0"/>
<circle cx="181" cy="1" r="1" fill="#E0E0E0"/>
<circle cx="195" cy="1" r="1" fill="#E0E0E0"/>
<circle cx="209" cy="1" r="1" fill="#E0E0E0"/>
<circle cx="223" cy="1" r="1" fill="#E0E0E0"/>
<circle cx="125" cy="15" r="1" fill="#E0E0E0"/>
<circle cx="139" cy="15" r="1" fill="#E0E0E0"/>
<circle cx="153" cy="15" r="1" fill="#E0E0E0"/>
<circle cx="167" cy="15" r="1" fill="#E0E0E0"/>
<circle cx="181" cy="15" r="1" fill="#E0E0E0"/>
<circle cx="195" cy="15" r="1" fill="#E0E0E0"/>
<circle cx="209" cy="15" r="1" fill="#E0E0E0"/>
<circle cx="223" cy="15" r="1" fill="#E0E0E0"/>
<circle cx="125" cy="29" r="1" fill="#E0E0E0"/>
<circle cx="139" cy="29" r="1" fill="#E0E0E0"/>
<circle cx="153" cy="29" r="1" fill="#E0E0E0"/>
<circle cx="167" cy="29" r="1" fill="#E0E0E0"/>
<circle cx="181" cy="29" r="1" fill="#E0E0E0"/>
<circle cx="195" cy="29" r="1" fill="#E0E0E0"/>
<circle cx="209" cy="29" r="1" fill="#E0E0E0"/>
<circle cx="223" cy="29" r="1" fill="#E0E0E0"/>
<circle cx="125" cy="43" r="1" fill="#E0E0E0"/>
<circle cx="139" cy="43" r="1" fill="#E0E0E0"/>
<circle cx="153" cy="43" r="1" fill="#E0E0E0"/>
<circle cx="167" cy="43" r="1" fill="#E0E0E0"/>
<circle cx="181" cy="43" r="1" fill="#E0E0E0"/>
<circle cx="195" cy="43" r="1" fill="#E0E0E0"/>
<circle cx="209" cy="43" r="1" fill="#E0E0E0"/>
<circle cx="223" cy="43" r="1" fill="#E0E0E0"/>
<circle cx="125" cy="57" r="1" fill="#E0E0E0"/>
<circle cx="139" cy="57" r="1" fill="#E0E0E0"/>
<circle cx="153" cy="57" r="1" fill="#E0E0E0"/>
<circle cx="167" cy="57" r="1" fill="#E0E0E0"/>
<circle cx="181" cy="57" r="1" fill="#E0E0E0"/>
<circle cx="195" cy="57" r="1" fill="#E0E0E0"/>
<circle cx="209" cy="57" r="1" fill="#E0E0E0"/>
<circle cx="223" cy="57" r="1" fill="#E0E0E0"/>
<circle cx="125" cy="71" r="1" fill="#E0E0E0"/>
<circle cx="139" cy="71" r="1" fill="#E0E0E0"/>
<circle cx="153" cy="71" r="1" fill="#E0E0E0"/>
<circle cx="167" cy="71" r="1" fill="#E0E0E0"/>
<circle cx="181" cy="71" r="1" fill="#E0E0E0"/>
<circle cx="195" cy="71" r="1" fill="#E0E0E0"/>
<circle cx="209" cy="71" r="1" fill="#E0E0E0"/>
<circle cx="223" cy="71" r="1" fill="#E0E0E0"/>
<circle cx="125" cy="85" r="1" fill="#E0E0E0"/>
<circle cx="139" cy="85" r="1" fill="#E0E0E0"/>
<circle cx="153" cy="85" r="1" fill="#E0E0E0"/>
<circle cx="167" cy="85" r="1" fill="#E0E0E0"/>
<circle cx="181" cy="85" r="1" fill="#E0E0E0"/>
<circle cx="195" cy="85" r="1" fill="#E0E0E0"/>
<circle cx="209" cy="85" r="1" fill="#E0E0E0"/>
<circle cx="223" cy="85" r="1" fill="#E0E0E0"/>
<circle cx="125" cy="99" r="1" fill="#E0E0E0"/>
<circle cx="139" cy="99" r="1" fill="#E0E0E0"/>
<circle cx="153" cy="99" r="1" fill="#E0E0E0"/>
<circle cx="167" cy="99" r="1" fill="#E0E0E0"/>
<circle cx="181" cy="99" r="1" fill="#E0E0E0"/>
<circle cx="195" cy="99" r="1" fill="#E0E0E0"/>
<circle cx="209" cy="99" r="1" fill="#E0E0E0"/>
<circle cx="223" cy="99" r="1" fill="#E0E0E0"/>
<circle cx="1" cy="125" r="1" fill="#E0E0E0"/>
<circle cx="15" cy="125" r="1" fill="#E0E0E0"/>
<circle cx="29" cy="125" r="1" fill="#E0E0E0"/>
<circle cx="43" cy="125" r="1" fill="#E0E0E0"/>
<circle cx="57" cy="125" r="1" fill="#E0E0E0"/>
<circle cx="71" cy="125" r="1" fill="#E0E0E0"/>
<circle cx="85" cy="125" r="1" fill="#E0E0E0"/>
<circle cx="99" cy="125" r="1" fill="#E0E0E0"/>
<circle cx="1" cy="139" r="1" fill="#E0E0E0"/>
<circle cx="15" cy="139" r="1" fill="#E0E0E0"/>
<circle cx="29" cy="139" r="1" fill="#E0E0E0"/>
<circle cx="43" cy="139" r="1" fill="#E0E0E0"/>
<circle cx="57" cy="139" r="1" fill="#E0E0E0"/>
<circle cx="71" cy="139" r="1" fill="#E0E0E0"/>
<circle cx="85" cy="139" r="1" fill="#E0E0E0"/>
<circle cx="99" cy="139" r="1" fill="#E0E0E0"/>
<circle cx="1" cy="153" r="1" fill="#E0E0E0"/>
<circle cx="15" cy="153" r="1" fill="#E0E0E0"/>
<circle cx="29" cy="153" r="1" fill="#E0E0E0"/>
<circle cx="43" cy="153" r="1" fill="#E0E0E0"/>
<circle cx="57" cy="153" r="1" fill="#E0E0E0"/>
<circle cx="71" cy="153" r="1" fill="#E0E0E0"/>
<circle cx="85" cy="153" r="1" fill="#E0E0E0"/>
<circle cx="99" cy="153" r="1" fill="#E0E0E0"/>
<circle cx="1" cy="167" r="1" fill="#E0E0E0"/>
<circle cx="15" cy="167" r="1" fill="#E0E0E0"/>
<circle cx="29" cy="167" r="1" fill="#E0E0E0"/>
<circle cx="43" cy="167" r="1" fill="#E0E0E0"/>
<circle cx="57" cy="167" r="1" fill="#E0E0E0"/>
<circle cx="71" cy="167" r="1" fill="#E0E0E0"/>
<circle cx="85" cy="167" r="1" fill="#E0E0E0"/>
<circle cx="99" cy="167" r="1" fill="#E0E0E0"/>
<circle cx="1" cy="181" r="1" fill="#E0E0E0"/>
<circle cx="15" cy="181" r="1" fill="#E0E0E0"/>
<circle cx="29" cy="181" r="1" fill="#E0E0E0"/>
<circle cx="43" cy="181" r="1" fill="#E0E0E0"/>
<circle cx="57" cy="181" r="1" fill="#E0E0E0"/>
<circle cx="71" cy="181" r="1" fill="#E0E0E0"/>
<circle cx="85" cy="181" r="1" fill="#E0E0E0"/>
<circle cx="99" cy="181" r="1" fill="#E0E0E0"/>
<circle cx="1" cy="195" r="1" fill="#E0E0E0"/>
<circle cx="15" cy="195" r="1" fill="#E0E0E0"/>
<circle cx="29" cy="195" r="1" fill="#E0E0E0"/>
<circle cx="43" cy="195" r="1" fill="#E0E0E0"/>
<circle cx="57" cy="195" r="1" fill="#E0E0E0"/>
<circle cx="71" cy="195" r="1" fill="#E0E0E0"/>
<circle cx="85" cy="195" r="1" fill="#E0E0E0"/>
<circle cx="99" cy="195" r="1" fill="#E0E0E0"/>
<circle cx="1" cy="209" r="1" fill="#E0E0E0"/>
<circle cx="15" cy="209" r="1" fill="#E0E0E0"/>
<circle cx="29" cy="209" r="1" fill="#E0E0E0"/>
<circle cx="43" cy="209" r="1" fill="#E0E0E0"/>
<circle cx="57" cy="209" r="1" fill="#E0E0E0"/>
<circle cx="71" cy="209" r="1" fill="#E0E0E0"/>
<circle cx="85" cy="209" r="1" fill="#E0E0E0"/>
<circle cx="99" cy="209" r="1" fill="#E0E0E0"/>
<circle cx="1" cy="223" r="1" fill="#E0E0E0"/>
<circle cx="15" cy="223" r="1" fill="#E0E0E0"/>
<circle cx="29" cy="223" r="1" fill="#E0E0E0"/>
<circle cx="43" cy="223" r="1" fill="#E0E0E0"/>
<circle cx="57" cy="223" r="1" fill="#E0E0E0"/>
<circle cx="71" cy="223" r="1" fill="#E0E0E0"/>
<circle cx="85" cy="223" r="1" fill="#E0E0E0"/>
<circle cx="99" cy="223" r="1" fill="#E0E0E0"/>
<circle cx="125" cy="125" r="1" fill="#E0E0E0"/>
<circle cx="139" cy="125" r="1" fill="#E0E0E0"/>
<circle cx="153" cy="125" r="1" fill="#E0E0E0"/>
<circle cx="167" cy="125" r="1" fill="#E0E0E0"/>
<circle cx="181" cy="125" r="1" fill="#E0E0E0"/>
<circle cx="195" cy="125" r="1" fill="#E0E0E0"/>
<circle cx="209" cy="125" r="1" fill="#E0E0E0"/>
<circle cx="223" cy="125" r="1" fill="#E0E0E0"/>
<circle cx="125" cy="139" r="1" fill="#E0E0E0"/>
<circle cx="139" cy="139" r="1" fill="#E0E0E0"/>
<circle cx="153" cy="139" r="1" fill="#E0E0E0"/>
<circle cx="167" cy="139" r="1" fill="#E0E0E0"/>
<circle cx="181" cy="139" r="1" fill="#E0E0E0"/>
<circle cx="195" cy="139" r="1" fill="#E0E0E0"/>
<circle cx="209" cy="139" r="1" fill="#E0E0E0"/>
<circle cx="223" cy="139" r="1" fill="#E0E0E0"/>
<circle cx="125" cy="153" r="1" fill="#E0E0E0"/>
<circle cx="139" cy="153" r="1" fill="#E0E0E0"/>
<circle cx="153" cy="153" r="1" fill="#E0E0E0"/>
<circle cx="167" cy="153" r="1" fill="#E0E0E0"/>
<circle cx="181" cy="153" r="1" fill="#E0E0E0"/>
<circle cx="195" cy="153" r="1" fill="#E0E0E0"/>
<circle cx="209" cy="153" r="1" fill="#E0E0E0"/>
<circle cx="223" cy="153" r="1" fill="#E0E0E0"/>
<circle cx="125" cy="167" r="1" fill="#E0E0E0"/>
<circle cx="139" cy="167" r="1" fill="#E0E0E0"/>
<circle cx="153" cy="167" r="1" fill="#E0E0E0"/>
<circle cx="167" cy="167" r="1" fill="#E0E0E0"/>
<circle cx="181" cy="167" r="1" fill="#E0E0E0"/>
<circle cx="195" cy="167" r="1" fill="#E0E0E0"/>
<circle cx="209" cy="167" r="1" fill="#E0E0E0"/>
<circle cx="223" cy="167" r="1" fill="#E0E0E0"/>
<circle cx="125" cy="181" r="1" fill="#E0E0E0"/>
<circle cx="139" cy="181" r="1" fill="#E0E0E0"/>
<circle cx="153" cy="181" r="1" fill="#E0E0E0"/>
<circle cx="167" cy="181" r="1" fill="#E0E0E0"/>
<circle cx="181" cy="181" r="1" fill="#E0E0E0"/>
<circle cx="195" cy="181" r="1" fill="#E0E0E0"/>
<circle cx="209" cy="181" r="1" fill="#E0E0E0"/>
<circle cx="223" cy="181" r="1" fill="#E0E0E0"/>
<circle cx="125" cy="195" r="1" fill="#E0E0E0"/>
<circle cx="139" cy="195" r="1" fill="#E0E0E0"/>
<circle cx="153" cy="195" r="1" fill="#E0E0E0"/>
<circle cx="167" cy="195" r="1" fill="#E0E0E0"/>
<circle cx="181" cy="195" r="1" fill="#E0E0E0"/>
<circle cx="195" cy="195" r="1" fill="#E0E0E0"/>
<circle cx="209" cy="195" r="1" fill="#E0E0E0"/>
<circle cx="223" cy="195" r="1" fill="#E0E0E0"/>
<circle cx="125" cy="209" r="1" fill="#E0E0E0"/>
<circle cx="139" cy="209" r="1" fill="#E0E0E0"/>
<circle cx="153" cy="209" r="1" fill="#E0E0E0"/>
<circle cx="167" cy="209" r="1" fill="#E0E0E0"/>
<circle cx="181" cy="209" r="1" fill="#E0E0E0"/>
<circle cx="195" cy="209" r="1" fill="#E0E0E0"/>
<circle cx="209" cy="209" r="1" fill="#E0E0E0"/>
<circle cx="223" cy="209" r="1" fill="#E0E0E0"/>
<circle cx="125" cy="223" r="1" fill="#E0E0E0"/>
<circle cx="139" cy="223" r="1" fill="#E0E0E0"/>
<circle cx="153" cy="223" r="1" fill="#E0E0E0"/>
<circle cx="167" cy="223" r="1" fill="#E0E0E0"/>
<circle cx="181" cy="223" r="1" fill="#E0E0E0"/>
<circle cx="195" cy="223" r="1" fill="#E0E0E0"/>
<circle cx="209" cy="223" r="1" fill="#E0E0E0"/>
<circle cx="223" cy="223" r="1" fill="#E0E0E0"/>
</svg>
