<svg width="80" height="80" viewBox="0 0 80 80" fill="none" xmlns="http://www.w3.org/2000/svg">
<circle cx="40" cy="40" r="40" fill="#F2F2F2"/>
<path d="M21.416 32.2H22.416V31.2H21.416V32.2ZM21.416 49V50H22.416V49H21.416ZM17.528 49H16.528V50H17.528V49ZM17.528 35.32H18.528V34.32H17.528V35.32ZM14.168 35.32H13.168V36.32H14.168V35.32ZM14.168 32.2V31.2H13.168V32.2H14.168ZM20.416 32.2V49H22.416V32.2H20.416ZM21.416 48H17.528V50H21.416V48ZM18.528 49V35.32H16.528V49H18.528ZM17.528 34.32H14.168V36.32H17.528V34.32ZM15.168 35.32V32.2H13.168V35.32H15.168ZM14.168 33.2H21.416V31.2H14.168V33.2ZM27.8144 48.256L28.3489 47.4108H28.3489L27.8144 48.256ZM25.2464 45.28L24.3391 45.7005L24.3422 45.7072L24.3454 45.7138L25.2464 45.28ZM25.2464 35.944L24.3434 35.5145L24.3411 35.5193L25.2464 35.944ZM27.8144 32.944L28.3489 33.7892L27.8144 32.944ZM35.2544 32.944L34.72 33.7892L35.2544 32.944ZM37.7984 35.944L36.8911 36.3645L36.8942 36.3712L36.8974 36.3778L37.7984 35.944ZM37.7984 45.28L36.8954 44.8505L36.8931 44.8553L37.7984 45.28ZM35.2544 48.256L34.72 47.4108H34.72L35.2544 48.256ZM33.9344 44.68L33.1046 44.1218L33.0977 44.1323L33.9344 44.68ZM33.9344 36.52L33.0977 37.0677L33.1047 37.0782L33.9344 36.52ZM29.1344 36.52L28.3046 35.9618L28.2977 35.9723L29.1344 36.52ZM29.1344 44.68L28.2977 45.2277L28.3047 45.2382L29.1344 44.68ZM31.5344 48.288C30.3156 48.288 29.264 47.9894 28.3489 47.4108L27.28 49.1012C28.5409 49.8986 29.9692 50.288 31.5344 50.288V48.288ZM28.3489 47.4108C27.4373 46.8344 26.7 45.9938 26.1474 44.8462L24.3454 45.7138C25.0409 47.1582 26.0156 48.3016 27.28 49.1012L28.3489 47.4108ZM26.1537 44.8595C25.6201 43.708 25.3344 42.2981 25.3344 40.6H23.3344C23.3344 42.5179 23.6568 44.228 24.3391 45.7005L26.1537 44.8595ZM25.3344 40.6C25.3344 38.9014 25.6203 37.5016 26.1518 36.3687L24.3411 35.5193C23.6566 36.9784 23.3344 38.6826 23.3344 40.6H25.3344ZM26.1495 36.3735C26.7031 35.2095 27.4404 34.3637 28.3489 33.7892L27.28 32.0988C26.0124 32.9003 25.0378 34.0545 24.3434 35.5145L26.1495 36.3735ZM28.3489 33.7892C29.264 33.2106 30.3156 32.912 31.5344 32.912V30.912C29.9692 30.912 28.5409 31.3014 27.28 32.0988L28.3489 33.7892ZM31.5344 32.912C32.7532 32.912 33.8049 33.2106 34.72 33.7892L35.7889 32.0988C34.528 31.3014 33.0996 30.912 31.5344 30.912V32.912ZM34.72 33.7892C35.6259 34.3621 36.3537 35.2047 36.8911 36.3645L38.7057 35.5235C38.0272 34.0593 37.059 32.9019 35.7889 32.0988L34.72 33.7892ZM36.8974 36.3778C37.4417 37.5083 37.7344 38.9047 37.7344 40.6H39.7344C39.7344 38.6793 39.4031 36.9717 38.6994 35.5102L36.8974 36.3778ZM37.7344 40.6C37.7344 42.2948 37.4419 43.7014 36.8954 44.8505L38.7015 45.7095C39.403 44.2346 39.7344 42.5212 39.7344 40.6H37.7344ZM36.8931 44.8553C36.3567 45.9986 35.6291 46.8359 34.72 47.4108L35.7889 49.1012C37.0558 48.3001 38.0241 47.1534 38.7038 45.7047L36.8931 44.8553ZM34.72 47.4108C33.8049 47.9894 32.7532 48.288 31.5344 48.288V50.288C33.0996 50.288 34.528 49.8986 35.7889 49.1012L34.72 47.4108ZM31.5344 47C32.9067 47 34.0164 46.3807 34.7711 45.2277L33.0977 44.1323C32.7004 44.7393 32.2102 45 31.5344 45V47ZM34.7642 45.2382C35.5222 44.1114 35.8224 42.5097 35.8224 40.6H33.8224C33.8224 42.3703 33.5307 43.4886 33.1047 44.1218L34.7642 45.2382ZM35.8224 40.6C35.8224 38.6903 35.5222 37.0886 34.7642 35.9618L33.1047 37.0782C33.5307 37.7114 33.8224 38.8297 33.8224 40.6H35.8224ZM34.7711 35.9723C34.0164 34.8193 32.9067 34.2 31.5344 34.2V36.2C32.2102 36.2 32.7004 36.4607 33.0977 37.0677L34.7711 35.9723ZM31.5344 34.2C30.1734 34.2 29.071 34.8228 28.3047 35.9618L29.9642 37.0782C30.3819 36.4572 30.8795 36.2 31.5344 36.2V34.2ZM28.2977 35.9723C27.5619 37.0966 27.2704 38.6935 27.2704 40.6H29.2704C29.2704 38.8265 29.555 37.7034 29.9711 37.0677L28.2977 35.9723ZM27.2704 40.6C27.2704 42.5065 27.5619 44.1034 28.2977 45.2277L29.9711 44.1323C29.555 43.4966 29.2704 42.3735 29.2704 40.6H27.2704ZM28.3047 45.2382C29.071 46.3772 30.1734 47 31.5344 47V45C30.8795 45 30.3819 44.7428 29.9642 44.1218L28.3047 45.2382Z" fill="#BDBDBD"/>
<g clip-path="url(#clip0_1592_3)">
<path d="M58.8966 62.7931C59.3917 62.7931 59.7931 62.3917 59.7931 61.8966C59.7931 61.4014 59.3917 61 58.8966 61C58.4014 61 58 61.4014 58 61.8966C58 62.3917 58.4014 62.7931 58.8966 62.7931Z" fill="#E0E0E0"/>
<path d="M20.8966 25.7931C21.3917 25.7931 21.7931 25.3917 21.7931 24.8966C21.7931 24.4014 21.3917 24 20.8966 24C20.4014 24 20 24.4014 20 24.8966C20 25.3917 20.4014 25.7931 20.8966 25.7931Z" fill="#949699"/>
<path d="M46.5811 37.5811C49.0215 35.1407 49.0215 31.1466 46.5811 28.7062L37.7053 19.8303C35.2649 17.3899 31.2707 17.3899 28.8303 19.8303C26.3899 22.2707 26.3899 26.2649 28.8303 28.7053L37.7062 37.5811C40.1466 40.0216 44.1398 40.0216 46.5811 37.5811Z" fill="#88BD6F"/>
<path d="M42.0473 24.1723L37.7053 19.8303C35.2649 17.3899 31.2707 17.3899 28.8303 19.8303C26.3899 22.2707 26.3899 26.2649 28.8303 28.7053L33.1723 33.0473L42.0473 24.1723Z" fill="#225B51"/>
<path d="M56.1774 55.8162C59.5753 56.4237 62.8524 54.1407 63.4599 50.7429L65.6691 38.3871C66.2767 34.9893 63.9937 31.7121 60.5959 31.1046C57.198 30.4971 53.9209 32.78 53.3134 36.1779L51.1041 48.5337C50.4966 51.9315 52.7796 55.2086 56.1774 55.8162Z" fill="#88BD6F"/>
<path d="M64.5884 44.4317L65.6691 38.3871C66.2767 34.9893 63.9937 31.7121 60.5959 31.1046C57.198 30.4971 53.9209 32.78 53.3134 36.1779L52.2326 42.2225L64.5884 44.4317Z" fill="#225B51"/>
<path d="M38.3943 59.8817L43.2927 55.6351C45.9005 53.3744 46.1845 49.3904 43.9237 46.7826C41.663 44.1749 37.679 43.8909 35.0712 46.1516L30.1728 50.3981L38.3943 59.8817Z" fill="#88BD6F"/>
<path d="M30.252 50.3274L25.5855 54.3729C22.9777 56.6336 22.6937 60.6177 24.9545 63.2254C27.2152 65.8332 31.1992 66.1172 33.807 63.8564L38.4735 59.8109L30.252 50.3274Z" fill="#225B51"/>
<path d="M45.3791 33.6897C45.1496 33.6897 44.9201 33.6019 44.7453 33.4271L32.6418 21.3236C32.2913 20.9731 32.2913 20.4064 32.6418 20.0559C32.9924 19.7053 33.559 19.7053 33.9095 20.0559L46.013 32.1593C46.3635 32.5099 46.3635 33.0765 46.013 33.4271C45.8382 33.6019 45.6086 33.6897 45.3791 33.6897Z" fill="#D8F8D9"/>
<path d="M60.811 50.2704C60.3239 50.1833 59.9992 49.7172 60.0863 49.23L62.3422 36.613C62.4293 36.1259 62.8954 35.8012 63.3826 35.8883C63.8697 35.9754 64.1944 36.4415 64.1073 36.9286L61.8514 49.5456C61.7643 50.0328 61.2982 50.3575 60.811 50.2704Z" fill="#D8F8D9"/>
<path d="M31.3609 61.1194C31.1319 61.1031 30.9092 60.9991 30.7473 60.8123C30.4225 60.4377 30.4628 59.8725 30.8374 59.5478L40.5221 51.1519C40.8967 50.8272 41.4619 50.8675 41.7867 51.2421C42.1114 51.6166 42.0711 52.1818 41.6965 52.5066L32.0118 60.9025C31.825 61.0644 31.5898 61.1357 31.3609 61.1194Z" fill="#D8F8D9"/>
<path d="M57.069 21.5862H54.3793V18.8966C54.3793 18.4017 53.9777 18 53.4828 18C52.9879 18 52.5862 18.4017 52.5862 18.8966V21.5862H49.8966C49.4017 21.5862 49 21.9879 49 22.4828C49 22.9777 49.4017 23.3793 49.8966 23.3793H52.5862V26.069C52.5862 26.5639 52.9879 26.9655 53.4828 26.9655C53.9777 26.9655 54.3793 26.5639 54.3793 26.069V23.3793H57.069C57.5639 23.3793 57.9655 22.9777 57.9655 22.4828C57.9655 21.9879 57.5648 21.5862 57.069 21.5862Z" fill="#E0E0E0"/>
<path d="M48.6999 61.4322L50.6015 59.5306C50.9521 59.1801 50.9521 58.6135 50.6015 58.2629C50.251 57.9124 49.6844 57.9124 49.3338 58.2629L47.4322 60.1645L45.5306 58.2629C45.1801 57.9124 44.6135 57.9124 44.2629 58.2629C43.9124 58.6135 43.9124 59.1801 44.2629 59.5306L46.1645 61.4322L44.2629 63.3338C43.9124 63.6844 43.9124 64.251 44.2629 64.6015C44.4377 64.7764 44.6673 64.8642 44.8968 64.8642C45.1263 64.8642 45.3558 64.7764 45.5306 64.6015L47.4322 62.7L49.3338 64.6015C49.5086 64.7764 49.7382 64.8642 49.9677 64.8642C50.1972 64.8642 50.4267 64.7764 50.6015 64.6015C50.9521 64.251 50.9521 63.6844 50.6015 63.3338L48.6999 61.4322Z" fill="#949699"/>
</g>
<defs>
<clipPath id="clip0_1592_3">
<rect width="52" height="52" fill="white" transform="translate(14 14)"/>
</clipPath>
</defs>
</svg>
