<svg width="80" height="80" viewBox="0 0 80 80" fill="none" xmlns="http://www.w3.org/2000/svg">
<circle cx="40" cy="40" r="40" fill="#F2F2F2"/>
<path d="M65.4 23C63.8062 23 62.2617 23.6275 60.8109 24.865C60.6899 24.9682 60.6148 25.1153 60.6021 25.2738C60.5895 25.4324 60.6404 25.5895 60.7435 25.7106C60.8467 25.8316 60.9938 25.9067 61.1524 25.9194C61.3109 25.932 61.468 25.8811 61.5891 25.7779C62.8172 24.731 64.0992 24.2 65.4 24.2C66.673 24.2 67.8939 24.7057 68.7941 25.6059C69.6943 26.5061 70.2 27.727 70.2 29C70.2 30.273 69.6943 31.4939 68.7941 32.3941C67.8939 33.2943 66.673 33.8 65.4 33.8C62.407 33.8 60.5994 31.298 58.6863 28.6484C56.6806 25.8717 54.607 23 51 23C49.4087 23 47.8826 23.6321 46.7574 24.7574C45.6321 25.8826 45 27.4087 45 29C45 30.5913 45.6321 32.1174 46.7574 33.2426C47.8826 34.3679 49.4087 35 51 35C52.5937 35 54.1383 34.3725 55.5891 33.135C55.7101 33.0318 55.7852 32.8847 55.7979 32.7262C55.8105 32.5676 55.7596 32.4105 55.6564 32.2894C55.6054 32.2295 55.543 32.1802 55.4728 32.1444C55.4027 32.1086 55.3262 32.0869 55.2476 32.0806C55.0891 32.068 54.932 32.1189 54.8109 32.2221C53.5828 33.2692 52.3008 33.8 51 33.8C49.727 33.8 48.5061 33.2943 47.6059 32.3941C46.7057 31.4939 46.2 30.273 46.2 29C46.2 27.727 46.7057 26.5061 47.6059 25.6059C48.5061 24.7057 49.727 24.2 51 24.2C53.993 24.2 55.8006 26.702 57.7137 29.3516C59.7193 32.1283 61.793 35 65.4 35C66.9913 35 68.5174 34.3679 69.6426 33.2426C70.7679 32.1174 71.4 30.5913 71.4 29C71.4 27.4087 70.7679 25.8826 69.6426 24.7574C68.5174 23.6321 66.9913 23 65.4 23Z" fill="#949699"/>
<g clip-path="url(#clip0_1592_5)">
<path d="M46.8088 62.2748C48.2697 62.2748 49.4954 61.2717 49.8363 59.9167C47.7899 58.1436 46.4954 55.5259 46.4954 52.6057C46.4954 49.6409 47.8298 46.9884 49.9308 45.2148V32.9263C49.9308 31.2021 48.533 29.8047 46.8088 29.8047H26.1216C24.3978 29.8047 23 31.2021 23 32.9263V59.1532C23 60.8773 24.3978 62.2748 26.1216 62.2748" fill="#225B51"/>
<path d="M46.8088 29.8047H44.4962C46.2203 29.8047 47.6182 31.2021 47.6182 32.9263V43.6401C47.6182 44.1272 47.4438 44.5974 47.1293 44.9695C46.1779 46.0934 45.4326 47.3971 44.9518 48.8228C44.457 49.9847 44.1827 51.2628 44.1827 52.6053C44.1827 53.9545 44.4592 55.2388 44.9584 56.4052C44.9617 56.415 44.965 56.4249 44.9683 56.4348C45.4268 57.7751 44.4464 59.1715 43.0295 59.1715H26.1216C24.3978 59.1715 23 57.7737 23 56.0496V59.1532C23 60.8773 24.3978 62.2748 26.1219 62.2748H46.8088C47.8225 62.2748 48.723 61.7914 49.2932 61.0425C49.2965 61.0381 49.2998 61.0337 49.3035 61.0289C49.3262 60.9985 49.3489 60.9674 49.3708 60.9359C49.3767 60.9275 49.3822 60.9191 49.3881 60.9106C49.4071 60.8828 49.4261 60.8542 49.4445 60.8253C49.451 60.8147 49.458 60.8037 49.4646 60.7931C49.4811 60.7664 49.4972 60.7393 49.5129 60.7118C49.5203 60.6993 49.5276 60.6865 49.5345 60.6741C49.5492 60.6481 49.5635 60.6217 49.577 60.5953C49.5844 60.5814 49.5917 60.5671 49.599 60.5529C49.6118 60.5272 49.6243 60.5016 49.6364 60.4756C49.6433 60.4602 49.6506 60.4452 49.6572 60.4302C49.6689 60.4042 49.6799 60.3782 49.6909 60.3522C49.6975 60.3364 49.7041 60.3207 49.7103 60.3049C49.7209 60.2782 49.7308 60.2515 49.7407 60.2247C49.7466 60.209 49.7524 60.1932 49.7579 60.1775C49.7682 60.1486 49.7773 60.1193 49.7865 60.09C49.7909 60.076 49.7957 60.0621 49.8 60.0482C49.8129 60.0046 49.825 59.9611 49.8363 59.9167C49.7308 59.8252 49.6276 59.7311 49.5261 59.6351C49.514 59.6238 49.502 59.6128 49.4899 59.6011C49.3925 59.5081 49.2969 59.4128 49.2035 59.3158C49.1903 59.3022 49.1775 59.2887 49.1647 59.2751C49.0706 59.1766 48.9786 59.0763 48.8889 58.9734C48.8801 58.9631 48.871 58.9529 48.8622 58.9426C48.7688 58.835 48.6772 58.7258 48.5886 58.6141C47.2783 56.964 46.495 54.8762 46.495 52.6057C46.495 49.6409 47.8298 46.9884 49.9304 45.2148V32.9263C49.9308 31.2021 48.533 29.8047 46.8088 29.8047Z" fill="#0D4F43"/>
<path d="M29.0879 26.8984H43.8429V29.8043H29.0879V26.8984Z" fill="#34786C"/>
<path d="M40.0488 26.8984H43.8431V29.8043H40.0488V26.8984Z" fill="#225B51"/>
<path d="M26.0215 22.7217V25.7268C26.0215 26.3743 26.5466 26.899 27.1937 26.899H45.7372C46.3846 26.899 46.9094 26.3743 46.9094 25.7268V19.7162C46.9094 19.0687 46.3846 18.5439 45.7372 18.5439H27.1937C26.5463 18.5439 26.0215 19.0691 26.0215 19.7162V22.7217Z" fill="#225B51"/>
<path d="M41.6465 18.5439V26.899H45.7363C46.3838 26.899 46.9086 26.3743 46.9086 25.7268V19.7162C46.9086 19.0687 46.3838 18.5439 45.7363 18.5439H41.6465Z" fill="#0D4F43"/>
<path d="M44.5618 46.04C44.5618 50.5118 40.9366 54.1373 36.4645 54.1373C31.9927 54.1373 28.3672 50.5118 28.3672 46.04C28.3672 41.5679 31.9927 37.9424 36.4645 37.9424C40.9366 37.9424 44.5618 41.5679 44.5618 46.04Z" fill="#88BD6F"/>
<path d="M41.0548 39.3691C41.9539 40.6736 42.4816 42.2542 42.4816 43.9581C42.4816 48.4303 38.8561 52.0554 34.3843 52.0554C32.6799 52.0554 31.0997 51.5281 29.7949 50.6287C31.2554 52.7472 33.6976 54.137 36.4655 54.137C40.9376 54.137 44.5627 50.5115 44.5627 46.0397C44.5627 43.2719 43.1733 40.8296 41.0548 39.3691Z" fill="#11C886"/>
<path d="M65.8346 52.6056C65.8346 57.946 61.5056 62.275 56.1652 62.275C50.8251 62.275 46.4961 57.946 46.4961 52.6056C46.4961 47.2655 50.8251 42.9365 56.1652 42.9365C61.5056 42.9365 65.8346 47.2655 65.8346 52.6056Z" fill="#D8F8D9"/>
<path d="M62.0085 44.9023C63.2423 46.5258 63.9751 48.5509 63.9751 50.7471C63.9751 56.0875 59.6461 60.4165 54.3057 60.4165C52.1095 60.4165 50.0844 59.6837 48.4609 58.45C50.2272 60.7739 53.0199 62.2747 56.1642 62.2747C61.5043 62.2747 65.8333 57.9457 65.8333 52.6052C65.8333 49.4613 64.3325 46.6686 62.0085 44.9023Z" fill="#BEF3C0"/>
<path d="M49.5254 59.5414C49.8956 59.8629 50.2908 60.157 50.7072 60.4203L64.0453 47.0818C63.782 46.6654 63.4883 46.2703 63.1664 45.9004C63.1067 45.9333 63.0499 45.9747 62.999 46.0256L49.6506 59.374C49.5997 59.4249 49.5583 59.4813 49.5254 59.5414Z" fill="#11C886"/>
<path d="M62.2203 30.9235C58.7633 31.7599 56.0566 34.5988 56.0566 38.2788V42.9371C56.0929 42.9367 56.1288 42.9356 56.165 42.9356C61.5055 42.9356 65.8345 47.2646 65.8345 52.605C65.8345 55.2399 64.7802 57.6283 63.0707 59.3722C63.2223 59.3818 63.3746 59.3876 63.5284 59.3876C67.6553 59.3876 71.0006 56.0423 71.0006 51.9158V38.2788C71.0006 34.5988 68.3394 31.5424 64.8369 30.9235C64.8369 30.9235 63.1161 30.7067 62.2203 30.9235Z" fill="#BDBDBD"/>
<path d="M64.8363 30.9236C63.8981 30.795 63.0261 30.795 62.2197 30.9236C62.1934 30.9283 62.167 30.9345 62.1406 30.9393C65.6035 31.5904 68.2249 34.6267 68.2249 38.2789V51.9159C68.2249 55.0528 66.2909 57.7368 63.5505 58.8442C63.3967 59.0262 63.2367 59.2024 63.0701 59.3723C63.2217 59.3818 63.374 59.3877 63.5282 59.3877C67.6547 59.3877 71 56.0423 71 51.9159V38.2789C71 34.5988 68.3387 31.5425 64.8363 30.9236Z" fill="#949699"/>
<path d="M62.2578 45.0977C64.4393 46.8705 65.8339 49.575 65.8339 52.605C65.8339 55.2402 64.7795 57.6287 63.0701 59.3726C63.2217 59.3817 63.374 59.3879 63.5278 59.3879C67.6547 59.3879 71 56.0426 71 51.9161V45.0977H62.2578Z" fill="#88BD6F"/>
<path d="M68.2251 51.9161C68.2251 55.0531 66.2911 57.7367 63.5508 58.8445C63.4794 58.9291 63.4065 59.0118 63.3322 59.0939C63.3193 59.1078 63.3065 59.1217 63.2941 59.1356C63.2205 59.2158 63.1461 59.2953 63.0703 59.3726C63.2219 59.3821 63.3743 59.3879 63.5281 59.3879C67.6549 59.3879 71.0002 56.0426 71.0002 51.9161V45.0977H68.2251V51.9161Z" fill="#11C886"/>
<path d="M40.1864 45.2969H37.2091V42.3196C37.2091 41.9091 36.8762 41.5762 36.4657 41.5762C36.0552 41.5762 35.7227 41.9091 35.7227 42.3196V45.2969H32.7454C32.3348 45.2969 32.002 45.6294 32.002 46.0399C32.002 46.4504 32.3348 46.7833 32.7454 46.7833H35.7227V49.7606C35.7227 50.1711 36.0552 50.504 36.4657 50.504C36.8762 50.504 37.2091 50.1711 37.2091 49.7606V46.7833H40.1864C40.5969 46.7833 40.9298 46.4504 40.9298 46.0399C40.9298 45.6294 40.5969 45.2969 40.1864 45.2969Z" fill="white"/>
<path d="M31.1418 27.6232C30.7313 27.6232 30.3984 27.2903 30.3984 26.8798V18.5247C30.3984 18.1141 30.7313 17.7812 31.1418 17.7812C31.5524 17.7812 31.8853 18.1141 31.8853 18.5247V26.8798C31.8853 27.2903 31.5524 27.6232 31.1418 27.6232Z" fill="#252628"/>
<path d="M36.4778 27.6232C36.0673 27.6232 35.7344 27.2903 35.7344 26.8798V18.5247C35.7344 18.1141 36.0673 17.7812 36.4778 17.7812C36.8883 17.7812 37.2208 18.1141 37.2208 18.5247V26.8798C37.2212 27.2903 36.8883 27.6232 36.4778 27.6232Z" fill="#252628"/>
<path d="M41.8137 27.6232C41.4032 27.6232 41.0703 27.2903 41.0703 26.8798V18.5247C41.0703 18.1141 41.4032 17.7812 41.8137 17.7812C42.2242 17.7812 42.5568 18.1141 42.5568 18.5247V26.8798C42.5571 27.2903 42.2242 27.6232 41.8137 27.6232Z" fill="#252628"/>
<path d="M49.3934 60.1127C49.2034 60.1127 49.0133 60.0398 48.8679 59.8948C48.5779 59.6044 48.5779 59.1338 48.8679 58.8434L62.2163 45.495C62.5067 45.205 62.9773 45.2046 63.2677 45.495C63.5581 45.7854 63.5581 46.256 63.2677 46.5464L49.9193 59.8948C49.7739 60.0398 49.5839 60.1127 49.3934 60.1127Z" fill="#88BD6F"/>
</g>
<defs>
<clipPath id="clip0_1592_5">
<rect width="48" height="48" fill="white" transform="translate(23 16)"/>
</clipPath>
</defs>
</svg>
