<svg width="80" height="80" viewBox="0 0 80 80" fill="none" xmlns="http://www.w3.org/2000/svg">
<circle cx="40" cy="40" r="40" fill="#F2F2F2"/>
<path d="M33.416 22.2H34.416V21.2H33.416V22.2ZM33.416 39V40H34.416V39H33.416ZM29.528 39H28.528V40H29.528V39ZM29.528 25.32H30.528V24.32H29.528V25.32ZM26.168 25.32H25.168V26.32H26.168V25.32ZM26.168 22.2V21.2H25.168V22.2H26.168ZM32.416 22.2V39H34.416V22.2H32.416ZM33.416 38H29.528V40H33.416V38ZM30.528 39V25.32H28.528V39H30.528ZM29.528 24.32H26.168V26.32H29.528V24.32ZM27.168 25.32V22.2H25.168V25.32H27.168ZM26.168 23.2H33.416V21.2H26.168V23.2Z" fill="#BDBDBD"/>
<g clip-path="url(#clip0_1592_2)">
<path d="M33.6467 36.5283L25.0581 45.1169C20.9806 49.1943 20.9806 55.8658 25.0581 59.9425C29.1355 64.0199 35.8069 64.0199 39.8837 59.9425L48.4723 51.3539L33.6467 36.5283Z" fill="#225B51"/>
<path d="M48.4845 51.3415L56.942 42.8846C61.0188 38.8072 61.0188 32.1358 56.942 28.059C52.8646 23.9816 46.1932 23.9816 42.1164 28.059L33.6582 36.5153L48.4845 51.3415Z" fill="#949699"/>
<path d="M36.446 39.3018L25.2352 50.5125C24.8513 50.8958 24.8513 51.5189 25.2352 51.9022C25.4272 52.0942 25.6788 52.1899 25.9304 52.1899C26.182 52.1899 26.4336 52.0942 26.6256 51.9022L37.8364 40.6915L36.446 39.3018Z" fill="#88BD6F"/>
<path d="M37.8331 40.6913L48.2458 30.2792C48.6298 29.8959 48.6298 29.2728 48.2458 28.8895C47.8618 28.5056 47.24 28.5056 46.8561 28.8895L36.4434 39.3016L37.8331 40.6913Z" fill="#E0E0E0"/>
</g>
<defs>
<clipPath id="clip0_1592_2">
<rect width="38" height="38" fill="white" transform="translate(22 25)"/>
</clipPath>
</defs>
</svg>
