<svg width="22" height="22" viewBox="0 0 22 22" fill="none" xmlns="http://www.w3.org/2000/svg">
<path d="M11 1C5.48605 1 1 5.48605 1 11C1 16.514 5.48605 21 11 21C16.514 21 21 16.514 21 11C21 5.48605 16.514 1 11 1ZM11.5714 19.8367V19H10.4286V19.8367C5.99942 19.5531 2.44693 16.0007 2.16328 11.5714H3V10.4286H2.16328C2.44693 5.9993 5.99942 2.44692 10.4286 2.1633V3H11.5714V2.1633C16.0006 2.44692 19.5531 5.9993 19.8367 10.4286H19V11.5714H19.8367C19.5531 16.0007 16.0006 19.5531 11.5714 19.8367Z" fill="#949699"/>
<path fill-rule="evenodd" clip-rule="evenodd" d="M0.849609 10.9996C0.849609 5.40282 5.40282 0.849609 10.9996 0.849609C16.5964 0.849609 21.1496 5.40282 21.1496 10.9996C21.1496 16.5964 16.5964 21.1496 10.9996 21.1496C5.40282 21.1496 0.849609 16.5964 0.849609 10.9996ZM10.9996 1.14961C5.5685 1.14961 1.14961 5.5685 1.14961 10.9996C1.14961 16.4307 5.5685 20.8496 10.9996 20.8496C16.4307 20.8496 20.8496 16.4307 20.8496 10.9996C20.8496 5.5685 16.4307 1.14961 10.9996 1.14961ZM10.5782 2.00299V2.84961H11.421V2.00299L11.5806 2.01321C16.0851 2.30165 19.6975 5.91403 19.986 10.4186L19.9962 10.5782H19.1496V11.421H19.9962L19.986 11.5806C19.6975 16.0852 16.0851 19.6976 11.5806 19.986L11.421 19.9962V19.1496H10.5782V19.9962L10.4186 19.986C5.91416 19.6976 2.30167 16.0852 2.01319 11.5806L2.00297 11.421H2.84961V10.5782H2.00297L2.01319 10.4186C2.30167 5.91403 5.91416 2.30165 10.4186 2.01321L10.5782 2.00299ZM2.32427 10.2782H3.14961V11.721H2.32427C2.67272 15.9474 6.0519 19.3265 10.2782 19.6749V18.8496H11.721V19.6749C15.9473 19.3265 19.3265 15.9474 19.675 11.721H18.8496V10.2782H19.675C19.3265 6.05179 15.9473 2.6727 11.721 2.32428V3.14961H10.2782V2.32428C6.0519 2.6727 2.67272 6.05179 2.32427 10.2782Z" fill="#949699"/>
<path d="M11.5709 9.38546V4.14258H10.428V9.38546C9.76327 9.62151 9.28516 10.255 9.28516 10.9997C9.28516 11.945 10.0541 12.714 10.9994 12.714C11.7442 12.714 12.3776 12.2359 12.6137 11.5711H15.5709V10.4283H12.6137C12.4412 9.94259 12.0566 9.55797 11.5709 9.38546ZM10.9994 11.5711C10.6843 11.5711 10.428 11.3147 10.428 10.9997C10.428 10.6847 10.6843 10.4283 10.9994 10.4283C11.3146 10.4283 11.5709 10.6847 11.5709 10.9997C11.5709 11.3147 11.3146 11.5711 10.9994 11.5711Z" fill="#949699"/>
<path fill-rule="evenodd" clip-rule="evenodd" d="M10.2786 3.99219H11.7215V9.28244C12.1696 9.47135 12.528 9.82979 12.7169 10.2779H15.7215V11.7208H12.7169C12.4346 12.3907 11.7728 12.8636 11 12.8636C9.97187 12.8636 9.13574 12.0275 9.13574 10.9993C9.13574 10.2266 9.60869 9.56475 10.2786 9.28243V3.99219ZM10.5786 4.29219V9.49098L10.4788 9.52642C9.87156 9.74205 9.43574 10.3206 9.43574 10.9993C9.43574 11.8618 10.1376 12.5636 11 12.5636C11.6788 12.5636 12.2573 12.1278 12.473 11.5206L12.5084 11.4208H15.4215V10.5779H12.5084L12.473 10.4781C12.3156 10.035 11.9644 9.68381 11.5213 9.52642L11.4215 9.49098V4.29219H10.5786ZM11 10.5779C10.7677 10.5779 10.5786 10.7671 10.5786 10.9993C10.5786 11.2315 10.7677 11.4208 11 11.4208C11.2323 11.4208 11.4215 11.2315 11.4215 10.9993C11.4215 10.7671 11.2323 10.5779 11 10.5779ZM10.2786 10.9993C10.2786 10.6015 10.602 10.2779 11 10.2779C11.398 10.2779 11.7215 10.6015 11.7215 10.9993C11.7215 11.3972 11.398 11.7208 11 11.7208C10.602 11.7208 10.2786 11.3972 10.2786 10.9993Z" fill="#949699"/>
</svg>
