<svg width="45" height="50" viewBox="0 0 45 50" fill="none" xmlns="http://www.w3.org/2000/svg">
<path fill-rule="evenodd" clip-rule="evenodd" d="M7.02054 6.75226L8.68375 4.8231C8.749 4.74874 8.87186 4.73268 8.95863 4.7874C9.0461 4.84273 9.06484 4.94862 9.00098 5.02297L6.98236 7.36379C6.9657 7.38282 6.94488 7.39829 6.92267 7.40959C6.89351 7.42387 6.8595 7.4322 6.8234 7.4322C6.79702 7.4322 6.77203 7.42744 6.74913 7.4197C6.73455 7.41435 6.71997 7.40781 6.70678 7.39948C6.68457 7.3852 6.66583 7.36795 6.65333 7.34832C6.63667 7.32333 6.62695 7.29478 6.62695 7.26385V2.77734C6.62695 2.68454 6.71511 2.6084 6.8234 2.6084C6.93169 2.6084 7.01985 2.68395 7.01985 2.77734V6.75226H7.02054Z" fill="black" stroke="black" stroke-width="0.6"/>
<path fill-rule="evenodd" clip-rule="evenodd" d="M12.2555 6.62776C12.2555 3.52001 9.73538 1 6.62748 1C3.51957 1 1 3.51944 1 6.62776C1 9.73609 3.51957 12.2555 6.62748 12.2555C9.73538 12.2555 12.2555 9.73609 12.2555 6.62776ZM11.9294 6.62776C11.9294 3.70002 9.55595 1.32607 6.62748 1.32607C3.69958 1.32607 1.32551 3.69944 1.32551 6.62776C1.32551 9.55609 3.69958 11.9295 6.62748 11.9295C9.55595 11.9295 11.9294 9.55609 11.9294 6.62776Z" fill="black" stroke="black" stroke-width="0.6"/>
<path fill-rule="evenodd" clip-rule="evenodd" d="M39.5293 41.3028H31.1737C30.8682 41.3028 30.5771 41.183 30.3617 40.9675C30.1462 40.7521 30.0248 40.4586 30.0248 40.1539C30.0248 39.85 30.1446 39.5582 30.36 39.3427C30.5755 39.1273 30.8682 39.0067 31.1737 39.0059H39.5293C39.8332 39.0059 40.125 39.1265 40.3397 39.3419C40.5559 39.5574 40.6765 39.85 40.6773 40.1539C40.6773 40.4586 40.5568 40.7505 40.3413 40.9659C40.1258 41.1814 39.8332 41.302 39.5293 41.3028ZM39.5293 40.8461C39.7126 40.8461 39.8887 40.773 40.0189 40.6435C40.1483 40.5133 40.2207 40.3372 40.2207 40.1547C40.2207 39.9722 40.1475 39.7946 40.0173 39.6643C39.8887 39.5357 39.7118 39.4625 39.5293 39.4625H31.1737C30.9896 39.4625 30.8127 39.5357 30.6832 39.6651C30.5538 39.7945 30.4814 39.9706 30.4814 40.1539C30.4814 40.3372 30.5546 40.5149 30.684 40.6435C30.8135 40.7738 30.9904 40.8461 31.1737 40.8461H39.5293ZM13.816 40.8461H22.1725C22.3558 40.8461 22.531 40.7722 22.6613 40.6435C22.7907 40.5133 22.8639 40.338 22.8639 40.1547C22.8639 39.9714 22.7899 39.7945 22.6605 39.6651C22.531 39.5357 22.3558 39.4625 22.1725 39.4625H13.816C13.6319 39.4625 13.4567 39.5357 13.3264 39.6659C13.197 39.7962 13.1238 39.9706 13.1246 40.1539C13.1246 40.338 13.1978 40.5133 13.328 40.6435C13.4575 40.773 13.6327 40.8461 13.816 40.8461ZM13.816 41.3028H22.1725C22.4764 41.302 22.7682 41.1814 22.9837 40.9659C23.1999 40.7497 23.3205 40.4586 23.3205 40.1539C23.3197 39.85 23.1991 39.5574 22.9837 39.3419C22.7666 39.1265 22.4764 39.0059 22.1725 39.0059H13.816C13.5113 39.0067 13.2195 39.1273 13.004 39.3435C12.7886 39.559 12.668 39.85 12.668 40.1539C12.668 40.4586 12.7886 40.7513 13.0048 40.9667C13.2211 41.1822 13.5113 41.3028 13.816 41.3028Z" fill="black" stroke="black" stroke-width="0.6"/>
<path fill-rule="evenodd" clip-rule="evenodd" d="M42.3138 48.5442H44.1533V36.4494C44.1533 35.9412 43.7417 35.5288 43.2336 35.5288H37.125C36.9996 35.5288 36.8975 35.4259 36.8975 35.3013C36.8975 35.1759 36.9996 35.073 37.125 35.073H43.2336C43.9925 35.073 44.6091 35.6904 44.6091 36.4494V48.7717C44.6091 48.8972 44.5062 49.0001 44.3816 49.0001H42.0863C41.9609 49.0001 41.858 48.8972 41.858 48.7717V37.8249H31.1733C30.8075 37.8249 30.4577 37.6802 30.1997 37.4222C29.9424 37.1641 29.7969 36.8144 29.7969 36.4494V27.0526C29.7975 25.499 30.4071 23.6719 31.8132 22.7659C33.3014 21.8059 35.2124 21.8059 36.6989 22.7659C38.179 23.721 38.7153 25.4463 38.7153 27.2005V30.8747C38.7153 31.1183 38.8126 31.3522 38.9854 31.5251C39.1575 31.6979 39.3922 31.7944 39.6358 31.7944H44.3824C44.507 31.7944 44.61 31.8973 44.61 32.0227C44.61 32.1481 44.507 32.2502 44.3824 32.2502H39.6358C39.2716 32.2502 38.9211 32.1047 38.6638 31.8466C38.4049 31.5894 38.2602 31.2388 38.2602 30.8747V27.1828C38.2602 27.1708 38.261 27.1611 38.2626 27.1491C38.2602 25.5929 37.7867 24.0096 36.4529 23.1485C35.1159 22.2859 33.3978 22.2859 32.0608 23.1485C30.8026 23.9605 30.2503 25.4566 30.2503 26.9971C30.2519 27.0108 30.2535 27.0212 30.2535 27.0349V36.4494C30.2535 36.6938 30.35 36.9277 30.5221 37.1006C30.6949 37.2726 30.9289 37.3691 31.1741 37.3691H42.0871C42.2117 37.3691 42.3146 37.4712 42.3146 37.5966L42.3138 48.5442Z" fill="black" stroke="black" stroke-width="0.6"/>
<path fill-rule="evenodd" clip-rule="evenodd" d="M38.6328 17.1514C38.6328 14.7347 36.6736 12.7754 34.2568 12.7754C31.8401 12.7754 29.8809 14.7347 29.8809 17.1514C29.8809 19.5681 31.8409 21.5274 34.2568 21.5274C36.6744 21.5282 38.6328 19.5681 38.6328 17.1514ZM38.1778 17.1514C38.1778 14.9863 36.4219 13.2304 34.2568 13.2304C32.0926 13.2304 30.3375 14.9863 30.3375 17.1514C30.3375 19.3165 32.0926 21.0715 34.2568 21.0715C36.4219 21.0715 38.1778 19.3173 38.1778 17.1514Z" fill="black" stroke="black" stroke-width="0.6"/>
<path fill-rule="evenodd" clip-rule="evenodd" d="M9.18942 48.5442H11.0297V37.5966C11.0297 37.4712 11.1318 37.3691 11.2572 37.3691H22.1711C22.4147 37.3691 22.6486 37.2726 22.8215 37.1006C22.9943 36.9277 23.0908 36.6938 23.0908 36.4494V27.0349C23.0908 27.0212 23.0916 27.0108 23.094 26.9971C22.999 25.499 22.5417 23.9605 21.2835 23.1485C19.9465 22.2859 18.2284 22.2859 16.8914 23.1485C15.5576 24.0088 14.999 25.499 15.0809 27.1499C15.0825 27.1611 15.0833 27.1708 15.0833 27.1828V30.8747C15.0833 31.6336 14.4675 32.2502 13.7077 32.2502H8.9619C8.83648 32.2502 8.73438 32.1481 8.73438 32.0227C8.73438 31.8973 8.83648 31.7944 8.9619 31.7944H13.7077C14.2158 31.7944 14.6282 31.3828 14.6282 30.8747V27.2005C14.499 25.499 15.1653 23.721 16.6454 22.7659C18.1327 21.8059 20.0438 21.8059 21.5311 22.7659C22.9364 23.6719 23.499 25.499 23.5475 27.0526V36.4494C23.5475 36.8144 23.4019 37.1649 23.1447 37.4222C22.8866 37.6802 22.5361 37.8249 22.1719 37.8249H11.4864V48.7717C11.4864 48.8972 11.3834 49.0001 11.258 49.0001H8.9627C8.83728 49.0001 8.73518 48.8972 8.73518 48.7717V36.4494C8.73518 36.0844 8.87989 35.7338 9.13797 35.4766C9.39604 35.2185 9.74576 35.073 10.1108 35.073H16.2193C16.3447 35.073 16.4468 35.1759 16.4468 35.3013C16.4468 35.4259 16.3447 35.5288 16.2193 35.5288H10.1108C9.86636 35.5288 9.63241 35.6253 9.45955 35.7981C9.2875 35.971 9.19022 36.205 9.19022 36.4494L9.18942 48.5442Z" fill="black" stroke="black" stroke-width="0.6"/>
<path fill-rule="evenodd" clip-rule="evenodd" d="M23.4641 17.1514C23.4641 14.7347 21.5048 12.7754 19.0881 12.7754C16.6714 12.7754 14.7129 14.7347 14.7129 17.1514C14.7129 19.5681 16.6722 21.5274 19.0881 21.5274C21.5056 21.5282 23.4641 19.5681 23.4641 17.1514ZM23.009 17.1514C23.009 14.9863 21.254 13.2304 19.0881 13.2304C16.9238 13.2304 15.1687 14.9863 15.1687 17.1514C15.1687 19.3165 16.9238 21.0715 19.0881 21.0715C21.2532 21.0715 23.009 19.3173 23.009 17.1514Z" fill="black" stroke="black" stroke-width="0.6"/>
</svg>
