<svg width="50" height="48" viewBox="0 0 50 48" fill="none" xmlns="http://www.w3.org/2000/svg">
<path d="M0 24C0 37.2166 10.7834 48 24 48C27.2074 48 30.2488 47.3917 33.1797 46.1751C33.5115 46.0645 33.6774 45.6774 33.5115 45.3456C33.4562 45.1797 33.3456 45.0691 33.1797 45.0138C33.0138 44.9585 32.8479 44.9585 32.682 45.0138C29.917 46.1751 26.9862 46.7281 24 46.7281C17.917 46.7281 12.2212 44.3502 7.96313 40.0922C3.64977 35.7788 1.32719 30.0829 1.32719 24.0553C1.27189 11.447 11.447 1.27189 23.9447 1.27189C36.4977 1.27189 46.6728 11.447 46.6728 24C46.6728 26.9862 46.1198 29.917 44.9585 32.682C44.1843 34.5622 43.1336 36.2765 41.917 37.9355L41.6958 38.212L41.1428 31.8525C41.1428 31.6866 41.0323 31.5207 40.9217 31.4101C40.8111 31.2995 40.6452 31.2442 40.4793 31.2442C40.3134 31.2442 40.1475 31.3548 40.0369 31.4654C39.9263 31.576 39.871 31.7419 39.871 31.9078L40.5899 39.6498C40.5899 39.8157 40.7005 39.9816 40.8111 40.0922C40.9216 40.2028 41.0876 40.2581 41.2534 40.2028L48.9401 38.9309C49.2719 38.8756 49.5484 38.5438 49.4931 38.212C49.4378 37.8802 49.106 37.6037 48.7742 37.659L42.9677 38.6544L43.1889 38.3779C44.4055 36.7742 45.4009 35.0046 46.1751 33.1797C47.3364 30.2488 47.9447 27.1521 47.9447 24C47.9447 10.7834 37.2166 0 23.9447 0C10.7281 0 0 10.7834 0 24Z" fill="black"/>
<path d="M38.2671 9.78797C38.0459 9.56677 37.6035 9.56677 37.3823 9.78797L26.1565 20.9585L26.0459 20.9032C24.8294 20.0737 23.1151 20.0737 21.8985 20.9032L21.7879 20.9585L13.7694 12.8847C13.6588 12.7741 13.4929 12.7188 13.327 12.7188C13.1611 12.7188 12.9952 12.7741 12.8846 12.8847C12.7741 12.9953 12.7188 13.1612 12.7188 13.3271C12.7188 13.493 12.7741 13.6589 12.8846 13.7695L20.9031 21.788L20.8478 21.9539C20.4607 22.5622 20.2395 23.2811 20.2395 24C20.2395 26.046 21.8985 27.7603 23.9999 27.7603C26.0459 27.7603 27.7602 26.1013 27.7602 24C27.7602 23.2811 27.539 22.5622 27.1519 21.9539L27.0966 21.8433L38.2671 10.6728C38.5436 10.3963 38.4883 10.0092 38.2671 9.78797ZM23.9446 26.4884C22.5621 26.4884 21.4561 25.3824 21.4561 24C21.4561 22.6175 22.5621 21.5115 23.9446 21.5115C25.327 21.5115 26.433 22.6175 26.433 24C26.433 25.3824 25.327 26.4884 23.9446 26.4884Z" fill="black"/>
<path d="M24.6631 3.37356C24.6078 2.98646 24.3313 2.70996 23.9995 2.70996C23.6677 2.70996 23.3359 2.98646 23.3359 3.37356V7.02332C23.3359 7.35512 23.6124 7.68692 23.9995 7.68692C24.3313 7.68692 24.6631 7.41042 24.6631 7.02332V3.37356Z" fill="black"/>
<path d="M23.9995 40.3691C23.6677 40.3691 23.3359 40.6456 23.3359 41.0327V44.6825C23.3359 45.0143 23.6124 45.3461 23.9995 45.3461C24.3313 45.3461 24.6631 45.0696 24.6631 44.6825V41.0327C24.6078 40.6456 24.3313 40.3691 23.9995 40.3691Z" fill="black"/>
<path d="M44.6278 23.3369H40.9781C40.6463 23.3369 40.3145 23.6134 40.3145 24.0005C40.3145 24.3876 40.591 24.6641 40.9781 24.6641H44.6278C44.9596 24.6641 45.2914 24.3876 45.2914 24.0005C45.2914 23.6134 45.0149 23.3369 44.6278 23.3369Z" fill="black"/>
<path d="M6.96766 23.3369H3.31789C2.98609 23.3369 2.6543 23.6134 2.6543 24.0005C2.6543 24.3876 2.93079 24.6641 3.31789 24.6641H6.96766C7.29946 24.6641 7.63126 24.3876 7.63126 24.0005C7.63126 23.6134 7.35476 23.3369 6.96766 23.3369Z" fill="black"/>
</svg>
