<svg width="49" height="50" viewBox="0 0 49 50" fill="none" xmlns="http://www.w3.org/2000/svg">
<path d="M26.4886 24.5808C26.8119 24.5808 27.1126 24.4816 27.362 24.3123L33.5216 30.472C33.5798 30.5302 33.6561 30.5593 33.7323 30.5593C33.8087 30.5593 33.8848 30.5302 33.943 30.472C34.0595 30.3556 34.0595 30.1669 33.943 30.0505L27.7826 23.8901C27.9505 23.6407 28.049 23.3405 28.049 23.0176C28.049 22.2586 27.5048 21.6251 26.7867 21.4854V15.0803C26.7867 14.9157 26.6532 14.7822 26.4886 14.7822C26.3241 14.7822 26.1906 14.9157 26.1906 15.0803V21.4846C25.8864 21.5429 25.6068 21.6898 25.3833 21.9131C25.088 22.208 24.9257 22.6002 24.9258 23.0175C24.9255 23.8796 25.6267 24.5808 26.4886 24.5808ZM25.8045 22.335C25.9872 22.1527 26.23 22.0522 26.4886 22.0522C27.0206 22.0522 27.4528 22.4852 27.4528 23.0176C27.4528 23.2827 27.3457 23.5232 27.1729 23.6981C27.1723 23.6987 27.1715 23.6991 27.1708 23.6998C27.1699 23.7007 27.1693 23.7018 27.1686 23.7026C26.9941 23.8768 26.7537 23.9847 26.4886 23.9847C25.9556 23.9847 25.5219 23.5508 25.5219 23.0176C25.5216 22.7596 25.6221 22.5172 25.8045 22.335Z" fill="black" stroke="black" stroke-width="0.5"/>
<path d="M26.4895 9.05161C26.6541 9.05161 26.7875 8.91818 26.7875 8.75355V5.92306C26.7875 5.75843 26.6541 5.625 26.4895 5.625C26.3249 5.625 26.1914 5.75843 26.1914 5.92306V8.75355C26.1914 8.91818 26.3246 9.05161 26.4895 9.05161Z" fill="black" stroke="black" stroke-width="0.5"/>
<path d="M33.4693 10.9235C33.5163 10.9506 33.5673 10.9635 33.6181 10.9635C33.7211 10.9635 33.8212 10.9101 33.8765 10.8146L35.2941 8.36235C35.3765 8.21978 35.3279 8.03747 35.1851 7.9551C35.0427 7.87274 34.8604 7.92142 34.7779 8.06399L33.3601 10.5162C33.2781 10.6588 33.3268 10.8411 33.4693 10.9235Z" fill="black" stroke="black" stroke-width="0.5"/>
<path d="M38.8414 16.1824C38.8922 16.1824 38.9432 16.1696 38.9902 16.1425L41.4402 14.7281C41.583 14.6458 41.6317 14.4635 41.5496 14.321C41.4673 14.1785 41.2852 14.1295 41.1422 14.2119L38.6921 15.6263C38.5495 15.7085 38.5006 15.8908 38.5829 16.0334C38.6382 16.129 38.7384 16.1824 38.8414 16.1824Z" fill="black" stroke="black" stroke-width="0.5"/>
<path d="M40.4531 23.0178C40.4531 23.1824 40.5866 23.3158 40.7512 23.3158H43.5835C43.7481 23.3158 43.8815 23.1824 43.8815 23.0178C43.8815 22.8532 43.7481 22.7197 43.5835 22.7197H40.7512C40.5866 22.7197 40.4531 22.8532 40.4531 23.0178Z" fill="black" stroke="black" stroke-width="0.5"/>
<path d="M41.4402 31.3063L38.9901 29.8915C38.8475 29.8093 38.6653 29.858 38.583 30.0008C38.5006 30.1435 38.5495 30.3258 38.6921 30.4082L41.1421 31.8228C41.1891 31.8497 41.2403 31.8628 41.2909 31.8628C41.3939 31.8628 41.494 31.8094 41.5493 31.7137C41.6317 31.571 41.5827 31.3886 41.4402 31.3063Z" fill="black" stroke="black" stroke-width="0.5"/>
<path d="M19.0973 10.8144C19.1525 10.9101 19.2527 10.9636 19.3558 10.9636C19.4063 10.9636 19.4576 10.9507 19.5044 10.9236C19.647 10.8413 19.696 10.659 19.6137 10.5165L18.1989 8.06431C18.1166 7.92164 17.9344 7.87266 17.7918 7.95502C17.6492 8.03729 17.6002 8.2196 17.6825 8.36217L19.0973 10.8144Z" fill="black" stroke="black" stroke-width="0.5"/>
<path d="M48.5065 23.0174C48.5065 17.1362 46.216 11.607 42.0569 7.44836C37.8983 3.2901 32.3696 1 26.4893 1C22.9945 1 19.6525 1.79493 16.556 3.36273C13.6588 4.82969 11.0799 6.96182 9.0843 9.53399C8.90149 9.50111 8.71789 9.48382 8.53299 9.48382C6.71263 9.48382 5.19868 11.0797 3.54871 13.0077C1.03714 15.9405 0.732723 16.468 1.16193 20.4427C1.81588 26.4953 5.93807 33.652 12.1886 39.5869C18.3964 45.481 25.423 49 30.9847 49C32.1376 49 33.2309 48.8489 34.2344 48.5504C36.0735 48.0052 39.783 44.6889 40.4855 42.1213C40.6945 41.358 40.6305 40.6874 40.3045 40.156C45.5198 35.9494 48.5065 29.7208 48.5065 23.0174ZM39.9106 41.9638C39.2657 44.3208 35.7438 47.4809 34.0647 47.9787C33.1162 48.2609 32.0798 48.4038 30.9847 48.4038C25.572 48.4038 18.6989 44.946 12.599 39.1542C6.44785 33.3141 2.39382 26.2949 1.75458 20.3786C1.34822 16.6147 1.56233 16.2435 4.00156 13.3951C5.55396 11.5812 6.96648 10.0796 8.53299 10.0796C8.73825 10.0796 8.94302 10.1057 9.14819 10.1571L9.17034 10.1631C9.17412 10.1642 9.17799 10.1652 9.18177 10.1661L9.20561 10.1723C9.21724 10.1755 9.22886 10.179 9.24059 10.1824L9.28112 10.1951C9.28867 10.1975 9.29622 10.1997 9.30387 10.2015L9.3154 10.2047C9.31828 10.2057 9.32126 10.2068 9.32414 10.2077C9.32573 10.2082 9.32732 10.2089 9.32881 10.2094L9.33736 10.2123C9.35633 10.2185 9.37541 10.2248 9.39439 10.2316L9.39806 10.2328C9.40452 10.2356 9.41118 10.2382 9.41793 10.2405L9.41863 10.2408C9.42449 10.2434 9.43045 10.2459 9.43641 10.248L9.60015 10.3127C9.60511 10.3152 9.61008 10.3175 9.61505 10.3198L9.64615 10.3341C9.6537 10.3379 9.66264 10.3416 9.67178 10.3451L9.6991 10.3588C9.70308 10.3608 9.70705 10.3627 9.71103 10.3645L9.73795 10.3764C9.7462 10.3805 9.75454 10.3846 9.76279 10.3887C9.76706 10.391 9.77123 10.3936 9.77571 10.3958L9.87605 10.448C9.87953 10.4501 9.8846 10.4528 9.88966 10.4554C9.89076 10.456 9.89175 10.4565 9.89274 10.4571L9.97769 10.5053C9.99657 10.5163 10.0154 10.5275 10.0343 10.539L10.1164 10.5908C10.1182 10.5919 10.1201 10.5931 10.122 10.5943L10.1347 10.6032C10.1392 10.6064 10.1438 10.6095 10.1485 10.6125L10.2334 10.6684C10.2385 10.672 10.244 10.6756 10.2497 10.6789L10.3045 10.7182C10.3083 10.7211 10.3121 10.7239 10.3161 10.7265L10.4849 10.852C10.4869 10.8534 10.4889 10.8547 10.4909 10.8561C10.5189 10.8781 10.547 10.9001 10.5751 10.923L10.5903 10.9353C10.8616 11.2195 11.1323 11.5037 11.4035 11.7879C11.4049 11.7894 11.4059 11.7911 11.4074 11.7926L14.6949 15.2391C15.1284 15.6937 15.5624 16.1486 15.9958 16.6032L16.3808 17.0069C16.4013 17.0436 16.4187 17.0802 16.4368 17.1168C16.4444 17.1323 16.4532 17.1478 16.4603 17.1632C16.4625 17.168 16.4654 17.1728 16.4677 17.1777C16.4721 17.1872 16.4752 17.1968 16.4794 17.2063C17.0034 18.3934 16.3159 19.5527 15.2995 20.6437C14.812 21.1665 14.2494 21.6737 13.709 22.1608C13.2872 22.541 12.8887 22.9002 12.5622 23.2385C12.5282 23.2714 12.4977 23.3087 12.4684 23.3486C12.4581 23.3628 12.4472 23.376 12.4373 23.3912C12.4326 23.3979 12.4295 23.4035 12.4257 23.4097C12.4213 23.4168 12.4165 23.424 12.4132 23.4301C12.3272 23.57 12.2721 23.7313 12.2465 23.9127L12.2441 23.9267C12.2428 23.9341 12.2417 23.9416 12.241 23.9491L12.2345 24.0142C12.2338 24.0213 12.2333 24.0283 12.2331 24.0354L12.2325 24.0745C12.2309 24.1124 12.2299 24.1507 12.2306 24.1902L12.2302 24.2185C12.2302 24.2247 12.2304 24.231 12.2308 24.2374L12.2373 24.3391C12.2376 24.3436 12.238 24.348 12.2385 24.3525L12.2478 24.4384C12.2484 24.4443 12.2493 24.4502 12.2503 24.456L12.2594 24.5094C12.2658 24.5515 12.2726 24.5938 12.2812 24.6375L12.2838 24.6526C12.2838 24.6529 12.2839 24.6532 12.284 24.6535C12.2921 24.6935 12.3022 24.7354 12.3123 24.7763C12.3155 24.7897 12.3186 24.8029 12.3219 24.8163L12.3331 24.8657C12.3351 24.8742 12.3372 24.8827 12.3399 24.891L12.358 24.9473C12.3689 24.9851 12.3812 25.0236 12.3935 25.0623L12.3977 25.077C12.4007 25.0921 12.4049 25.1074 12.4103 25.1218L12.4268 25.1668C12.4382 25.1979 12.4504 25.2303 12.4623 25.2621C12.4739 25.2934 12.4846 25.3244 12.497 25.3564C12.4976 25.3582 12.4982 25.3599 12.4989 25.3616L12.5147 25.4001C12.5342 25.4492 12.5536 25.4983 12.5751 25.5487C12.5787 25.5571 12.5827 25.5658 12.5863 25.5743L12.5964 25.5984C12.598 25.6023 12.5997 25.6062 12.6015 25.61L12.6172 25.6436C12.6622 25.7452 12.71 25.8486 12.7624 25.9547L12.7748 25.9815L12.8045 26.0378C12.86 26.1474 12.9185 26.2587 12.9814 26.3725L12.9873 26.3837L12.9985 26.4027C13.0903 26.5678 13.19 26.7372 13.2962 26.9101L13.3266 26.9618L13.5078 27.2497L13.5762 27.3499C13.6929 27.5276 13.816 27.7082 13.945 27.8916L13.9697 27.9279L13.982 27.9466C13.9847 27.9507 13.9874 27.9547 13.9903 27.9586L14.1812 28.2223C14.1843 28.2266 14.188 28.2316 14.192 28.2364L14.339 28.4373L14.3989 28.5148C14.5479 28.7131 14.7028 28.9137 14.8627 29.1157L14.9257 29.1971L14.992 29.2778C15.1614 29.4887 15.3361 29.7014 15.5158 29.9144L15.5678 29.9777C15.5706 29.981 15.5735 29.9842 15.5764 29.9877L15.6493 30.0723C15.7079 30.1408 15.7668 30.2097 15.8264 30.2784C15.8305 30.284 15.8344 30.2896 15.839 30.2949L15.9604 30.4329C17.5836 32.2901 19.5222 34.1546 21.3144 35.5459C21.3368 35.5635 21.3594 35.5811 21.3817 35.5983C21.453 35.6534 21.5238 35.7072 21.5945 35.7605C21.6889 35.8319 21.7823 35.9014 21.8751 35.9696C21.8827 35.9752 21.8903 35.9806 21.8979 35.9862C22.4598 36.3977 22.9919 36.7487 23.4862 37.0317C23.4952 37.037 23.5046 37.0417 23.5142 37.0459C24.1835 37.4268 24.7667 37.6676 25.252 37.7661C25.2541 37.7666 25.2565 37.7671 25.2585 37.7675C25.2813 37.7723 25.3058 37.7781 25.3282 37.7821C25.3341 37.7831 25.3408 37.784 25.3476 37.7844C25.3534 37.7854 25.3589 37.7865 25.3648 37.7869C25.3694 37.7875 25.3743 37.788 25.3791 37.7885C25.4489 37.7997 25.5173 37.8087 25.5831 37.8136C25.5856 37.8138 25.5884 37.8144 25.591 37.8146C25.6281 37.8171 25.6638 37.8176 25.6999 37.8182C25.7086 37.8182 25.7178 37.8194 25.7264 37.8194C25.7274 37.8194 25.7281 37.8192 25.7288 37.8192C25.7584 37.8192 25.7867 37.8174 25.8154 37.8163C25.8299 37.8156 25.8447 37.8154 25.8589 37.8143C25.8898 37.8122 25.9192 37.8082 25.949 37.8043C25.9603 37.8027 25.9718 37.8016 25.9834 37.7998C26.0136 37.7952 26.0427 37.7894 26.0716 37.783C26.0819 37.7809 26.092 37.7785 26.1022 37.7762C26.1312 37.769 26.1595 37.7611 26.1875 37.7522C26.1962 37.7497 26.2049 37.7464 26.2137 37.7434C26.2422 37.7337 26.2703 37.7232 26.2977 37.7116C26.3036 37.7092 26.3093 37.7062 26.315 37.7039C26.3411 37.6922 26.3669 37.6806 26.3917 37.6672C26.4084 37.6584 26.424 37.6484 26.4399 37.6386C26.456 37.6288 26.4725 37.62 26.4877 37.6098C26.5208 37.5874 26.5526 37.5641 26.583 37.5384C27.0963 37.1046 27.5545 36.6031 28.0398 36.0721C28.1626 35.9376 28.2866 35.8019 28.4128 35.6663C28.6016 35.4627 28.7955 35.2594 28.9964 35.0599C29.1975 34.8605 29.4062 34.6651 29.6258 34.478C30.0222 34.1399 30.4191 33.8994 30.8238 33.7536C30.8542 33.7429 30.8842 33.7332 30.9145 33.7233C30.9292 33.7185 30.944 33.7129 30.9588 33.7088C31.2299 33.6255 31.5041 33.5847 31.7848 33.5846C31.7869 33.5846 31.7895 33.5848 31.7916 33.5848C31.8561 33.585 31.9206 33.587 31.985 33.5917C31.9989 33.5927 32.0126 33.5944 32.0264 33.5956C32.0812 33.6003 32.136 33.6057 32.1905 33.6133C32.1996 33.6146 32.2085 33.6162 32.2174 33.6175C32.2791 33.6268 32.3409 33.6369 32.4025 33.6499C32.4029 33.6499 32.4033 33.6501 32.4037 33.6501C33.4241 33.8633 34.4311 34.5763 35.4042 35.4984C35.4202 35.5136 35.4362 35.5292 35.4523 35.5443C35.491 35.5813 35.5294 35.6188 35.5682 35.6567C35.6033 35.6909 35.6382 35.725 35.6736 35.7599C35.6908 35.7772 35.708 35.7945 35.7253 35.8117C36.199 36.2859 36.6724 36.8108 37.1474 37.3601C37.4568 37.7188 37.7608 38.0809 38.0586 38.4356C38.6048 39.0863 39.1206 39.7006 39.6215 40.2382L39.6664 40.2923C39.6699 40.2968 39.6747 40.2999 39.6786 40.3042C40.0212 40.7159 40.0995 41.2732 39.9106 41.9638ZM17.0123 16.936C16.9731 16.8509 16.9307 16.7656 16.8814 16.6797C16.8731 16.6654 16.8623 16.6529 16.8519 16.6403C16.8477 16.6351 16.8445 16.6291 16.84 16.6243L16.8396 16.6239C16.8391 16.6236 16.8389 16.6231 16.8385 16.6227L16.2732 16.0297C16.2269 15.9812 16.1805 15.9326 16.1342 15.884L12.015 11.5617C15.5432 7.10738 20.8037 4.55855 26.4893 4.55855C36.6659 4.55855 44.9451 12.8392 44.9451 23.0174C44.9451 28.6772 42.4184 33.9183 38.0029 37.4424C37.9309 37.3575 37.8593 37.2737 37.7875 37.1897C37.0431 36.3183 36.2644 35.4534 35.4539 34.7368C35.4145 34.702 35.3756 34.6671 35.3364 34.6331C35.3334 34.6307 35.3301 34.6281 35.3271 34.6255C34.4066 33.8297 33.4691 33.2544 32.4934 33.0612C32.484 33.0593 32.4748 33.0575 32.4653 33.0555C32.4053 33.0441 32.3447 33.0342 32.2842 33.0256C32.2667 33.0233 32.2493 33.0203 32.2322 33.0182C32.1785 33.0115 32.1246 33.0064 32.0707 33.0022C32.0487 33.0002 32.0272 32.9978 32.0056 32.9963C31.9426 32.9924 31.8794 32.9903 31.8163 32.99C31.8062 32.9899 31.7963 32.989 31.7861 32.989C31.6756 32.989 31.5654 32.9945 31.4557 33.0054C30.7401 33.0763 30.0447 33.3789 29.3823 33.9077C29.3347 33.9458 29.287 33.9848 29.2395 34.0253C28.6282 34.547 28.1081 35.1152 27.6056 35.6647C27.1315 36.1833 26.6834 36.6728 26.1956 37.0838C26.1688 37.1064 26.1397 37.1257 26.1081 37.1428C26.0999 37.1469 26.0911 37.1503 26.0827 37.154C26.0675 37.1614 26.0508 37.1676 26.0344 37.1736C25.8377 37.1852 25.6107 37.1977 25.492 37.1977C25.4883 37.1977 25.4854 37.1977 25.4818 37.1977C25.46 37.1956 25.438 37.1938 25.4151 37.1923C25.3732 37.1848 25.3295 37.1744 25.285 37.1641C25.2724 37.1612 25.2606 37.159 25.2476 37.1559C25.1994 37.1437 25.1488 37.129 25.0979 37.1135C25.0881 37.1107 25.0792 37.1083 25.069 37.1053C25.0153 37.0885 24.9595 37.0694 24.9033 37.049C24.8954 37.0462 24.888 37.044 24.8803 37.0411C24.8168 37.018 24.7519 36.9924 24.6853 36.9646C24.6839 36.964 24.6826 36.9635 24.6813 36.963C24.4089 36.8496 24.1102 36.7001 23.7867 36.5149C23.7779 36.5098 23.7689 36.5054 23.7596 36.5013C23.6196 36.4206 23.4755 36.3329 23.3293 36.2411C22.7337 35.8675 22.0891 35.4051 21.4071 34.8605L21.1088 34.6169L21.0808 34.5949C20.811 34.3734 20.5276 34.133 20.2383 33.8793L20.2117 33.8538C20.2083 33.8505 20.2048 33.8476 20.2012 33.844C20.1412 33.7918 20.0797 33.7375 20.0173 33.6819C19.9127 33.5889 19.8033 33.4907 19.6877 33.3858C19.6701 33.3696 19.6525 33.3537 19.6347 33.3374L19.3531 33.0752C19.3504 33.0727 19.3476 33.0699 19.3449 33.0677L19.1532 32.8881C19.1175 32.8543 19.0821 32.8211 19.0463 32.787C18.8926 32.6404 18.7406 32.4931 18.59 32.3451C18.5623 32.3181 18.5351 32.2914 18.5065 32.2631L17.9411 31.6944L17.368 31.0924C17.3591 31.0827 17.3494 31.0738 17.3394 31.0654L17.1252 30.8346L16.5504 30.1973C16.546 30.1922 16.5413 30.1872 16.5364 30.1827L16.3563 29.9794C16.3369 29.9571 16.318 29.935 16.2987 29.9127C16.2959 29.9092 16.2933 29.9054 16.2903 29.902L16.0779 29.6524C16.0755 29.6498 16.073 29.6468 16.0706 29.6442L15.6475 29.1404C15.6228 29.11 15.5979 29.0799 15.5735 29.0498L15.1325 28.4946C15.1221 28.4812 15.1122 28.4679 15.1019 28.4548L14.6671 27.8757C14.6658 27.8738 14.6643 27.8721 14.6629 27.8701C14.651 27.8536 14.6387 27.8371 14.6268 27.8209L14.5906 27.7708C14.528 27.684 14.467 27.5983 14.4072 27.5127L14.2461 27.2795C14.1623 27.1563 14.0813 27.0347 14.004 26.9151L13.9799 26.8777C13.9407 26.817 13.9026 26.7566 13.8652 26.6969L13.5766 26.2131L13.3773 25.8476C13.3665 25.8268 13.3566 25.8068 13.3462 25.7862L13.2601 25.6126C13.2559 25.6037 13.2517 25.5948 13.2475 25.5859L13.0893 25.229C13.0826 25.2127 13.0755 25.196 13.0691 25.1799L13.0584 25.1519L13.0534 25.1388C13.0518 25.1341 13.0501 25.1295 13.0483 25.1248C13.0323 25.0839 13.0177 25.0438 13.003 25.0035C12.9913 24.9704 12.9802 24.9376 12.9696 24.9054L12.9598 24.8696C12.9587 24.8658 12.9576 24.8619 12.9563 24.858L12.9236 24.7557C12.9141 24.7222 12.9059 24.6897 12.8978 24.6574C12.894 24.6423 12.8904 24.6276 12.8869 24.6132C12.8794 24.5814 12.8727 24.5502 12.8666 24.5196L12.844 24.3868C12.8408 24.3629 12.8386 24.3402 12.8363 24.3172L12.831 24.2542C12.8256 24.1702 12.8271 24.0925 12.8355 24.0215L12.8431 23.9702C12.845 23.9591 12.8471 23.9481 12.8494 23.9374L12.8721 23.8544C12.8799 23.8313 12.889 23.8093 12.899 23.7884C12.905 23.7766 12.911 23.7647 12.9175 23.7531C12.9378 23.7172 12.961 23.6844 12.9884 23.6558C13.3001 23.3327 13.691 22.9803 14.105 22.6072C14.6156 22.147 15.1612 21.6551 15.653 21.1355C16.8429 19.8795 17.7163 18.4605 17.0123 16.936ZM39.9309 39.6939C39.9238 39.686 39.9164 39.6782 39.9091 39.6704C39.8739 39.6316 39.8385 39.5924 39.8032 39.5528C39.781 39.5286 39.7595 39.5044 39.7374 39.4797C39.6962 39.4335 39.6548 39.3867 39.6132 39.3396C39.5985 39.3228 39.5834 39.306 39.5689 39.2893C39.5204 39.2338 39.4717 39.1783 39.4228 39.1216C39.4171 39.1153 39.412 39.109 39.4066 39.1029C39.1188 38.7701 38.8231 38.4181 38.518 38.0545C38.4741 38.0023 38.4298 37.9495 38.3857 37.8969C42.9364 34.2591 45.5413 28.8543 45.5413 23.017C45.5413 12.51 36.9948 3.96203 26.4895 3.96203C23.482 3.96203 20.6045 4.64291 17.9365 5.98557C15.496 7.21378 13.3126 8.98854 11.6 11.1289C11.4031 10.9226 11.2067 10.7163 11.0097 10.5099C11.0014 10.5013 10.9926 10.4931 10.9833 10.4854C10.9778 10.4809 10.9723 10.4769 10.9669 10.4724L10.8517 10.3792C10.8475 10.3759 10.8431 10.3733 10.8387 10.3704C10.7699 10.3171 10.7012 10.2668 10.6326 10.2184C10.6314 10.2175 10.6302 10.2167 10.629 10.2159L10.6072 10.2009C10.5188 10.1393 10.4305 10.0812 10.3423 10.0277L10.3215 10.0145C10.3129 10.0089 10.3033 10.0034 10.2933 9.99837L10.2792 9.99032C10.2359 9.96499 10.1926 9.94055 10.1494 9.9171L10.1278 9.90488C10.124 9.90279 10.1202 9.90071 10.1163 9.89882L10.0998 9.89038C10.0743 9.87696 10.0486 9.86395 10.023 9.85113C10.0157 9.84726 10.0085 9.84328 10.0008 9.8401L9.98961 9.83484C9.93457 9.80801 9.87953 9.78277 9.82449 9.75903C9.8226 9.75833 9.82081 9.75734 9.81902 9.75664L9.81783 9.75615C9.77918 9.73956 9.74063 9.72386 9.70199 9.70886C13.7936 4.54753 19.8877 1.59612 26.4893 1.59612C38.3012 1.59612 47.9104 11.2056 47.9104 23.0174C47.9104 29.5395 45.0061 35.6012 39.9309 39.6939Z" fill="black" stroke="black" stroke-width="0.5"/>
</svg>
